<svg width="32" height="36" viewBox="0 0 32 36" fill="none" xmlns="http://www.w3.org/2000/svg">
<path d="M27.5841 22.708C27.5841 29.6377 23.2217 34 16.292 34C9.36233 34 5 29.6377 5 22.708C5 15.2717 13.095 5.23274 15.5777 2.32897C15.666 2.2258 15.7756 2.14297 15.899 2.08619C16.0224 2.0294 16.1566 2 16.2924 2C16.4283 2 16.5625 2.0294 16.6859 2.08619C16.8092 2.14297 16.9189 2.2258 17.0072 2.32897C19.4891 5.23274 27.5841 15.2717 27.5841 22.708Z" stroke="black" stroke-width="3.4375" stroke-miterlimit="10"/>
<path d="M23.1919 23.335C23.1919 24.8324 22.5971 26.2685 21.5382 27.3273C20.4794 28.3861 19.0433 28.981 17.5459 28.981" stroke="black" stroke-width="3.4375" stroke-linecap="round" stroke-linejoin="round"/>
</svg>
