<svg width="22" height="22" viewBox="0 0 22 22" fill="none" xmlns="http://www.w3.org/2000/svg">
<g opacity="0.8">
<path d="M8.4707 0.5C4.10795 0.5 0.595703 4.01224 0.595703 8.375C0.595703 12.7378 4.10795 16.25 8.4707 16.25C10.4148 16.25 12.1858 15.5482 13.5566 14.3889L20.6677 21.5L21.5957 20.572L14.4846 13.4609C15.6439 12.0901 16.3457 10.3191 16.3457 8.375C16.3457 4.01224 12.8335 0.5 8.4707 0.5ZM8.4707 1.8125C12.1063 1.8125 15.0332 4.73937 15.0332 8.375C15.0332 12.0106 12.1063 14.9375 8.4707 14.9375C4.83507 14.9375 1.9082 12.0106 1.9082 8.375C1.9082 4.73937 4.83507 1.8125 8.4707 1.8125Z" fill="white"/>
</g>
</svg>
