<svg width="24" height="24" viewBox="0 0 24 24" fill="none" xmlns="http://www.w3.org/2000/svg">
<path d="M6.66667 0.489258C2.98477 0.489258 0 3.77867 0 7.83634C0 15.1834 9.33333 21.0611 12 23.9999C14.6667 21.0611 24 15.1834 24 7.83634C24 3.77867 21.0152 0.489258 17.3333 0.489258C15.1472 0.489258 13.2157 1.63653 12 3.42809C10.7843 1.63653 8.8528 0.489258 6.66667 0.489258ZM6.66667 1.95867C8.42952 1.95867 9.95867 2.87442 10.9323 4.30917L12 5.8819L13.0677 4.30917C14.0413 2.87442 15.5705 1.95867 17.3333 1.95867C20.2946 1.95867 22.6667 4.5728 22.6667 7.83634C22.6667 10.8242 20.6501 13.8514 18.0885 16.4979C15.8705 18.7895 13.6418 20.5109 12 22.0943C10.3582 20.5109 8.1295 18.7895 5.91146 16.4979C3.34995 13.8514 1.33333 10.8242 1.33333 7.83634C1.33333 4.5728 3.70536 1.95867 6.66667 1.95867Z" fill="white"/>
<path d="M17.0172 1.48242C14.7877 1.48242 12.8521 2.83284 11.8691 4.81623C10.8862 2.83284 8.95056 1.48242 6.72113 1.48242C3.49916 1.48242 0.886719 4.30334 0.886719 7.78241C0.886719 16.3059 11.8691 22.2353 11.8691 22.2353C11.8691 22.2353 22.8516 16.3059 22.8516 7.78241C22.8516 4.30334 20.2391 1.48242 17.0172 1.48242Z" fill="white"/>
</svg>
