<svg width="33" height="32" viewBox="0 0 33 32" fill="none" xmlns="http://www.w3.org/2000/svg">
<path d="M5.97383 10.4C7.73883 10.4 9.17383 8.965 9.17383 7.2C9.17383 5.435 7.73883 4 5.97383 4C4.20883 4 2.77383 5.435 2.77383 7.2C2.77383 8.965 4.20883 10.4 5.97383 10.4ZM25.1738 10.4C26.9388 10.4 28.3738 8.965 28.3738 7.2C28.3738 5.435 26.9388 4 25.1738 4C23.4088 4 21.9738 5.435 21.9738 7.2C21.9738 8.965 23.4088 10.4 25.1738 10.4ZM31.5388 21.725L29.2588 12.435C29.0938 11.76 28.4838 11.285 27.7688 11.225C27.0188 11.71 26.1288 12 25.1688 12C24.2088 12 23.3188 11.71 22.5688 11.225C21.8538 11.285 21.2438 11.76 21.0788 12.435L18.7988 21.725C18.6238 22.48 19.2238 23.2 20.0338 23.2H22.7738V28.4C22.7738 29.065 23.3088 29.6 23.9738 29.6H26.3738C27.0388 29.6 27.5738 29.065 27.5738 28.4V23.2H30.3138C31.1238 23.2 31.7238 22.48 31.5388 21.725ZM16.3738 4H14.7738C14.3338 4 13.9738 4.36 13.9738 4.8V28.8C13.9738 29.24 14.3338 29.6 14.7738 29.6H16.3738C16.8138 29.6 17.1738 29.24 17.1738 28.8V4.8C17.1738 4.36 16.8138 4 16.3738 4ZM8.57883 11.22C7.82883 11.71 6.93383 12 5.97383 12C5.01383 12 4.11883 11.71 3.36883 11.22C2.13883 11.325 1.17383 12.345 1.17383 13.6V20.4C1.17383 21.065 1.70883 21.6 2.37383 21.6H2.77383V28.4C2.77383 29.065 3.30883 29.6 3.97383 29.6H7.97383C8.63883 29.6 9.17383 29.065 9.17383 28.4V21.6H9.57383C10.2388 21.6 10.7738 21.065 10.7738 20.4V13.6C10.7738 12.345 9.80883 11.325 8.57883 11.22Z" fill="white"/>
</svg>
