<svg width="25" height="24" viewBox="0 0 25 24" fill="none" xmlns="http://www.w3.org/2000/svg">
<g opacity="0.8">
<path d="M9.5957 5.00001C9.33049 5.00001 9.07613 5.10537 8.8886 5.2929C8.70106 5.48044 8.5957 5.73479 8.5957 6.00001C8.5957 6.26523 8.70106 6.51958 8.8886 6.70712C9.07613 6.89465 9.33049 7.00001 9.5957 7.00001C9.86092 7.00001 10.1153 6.89465 10.3028 6.70712C10.4903 6.51958 10.5957 6.26523 10.5957 6.00001C10.5957 5.73479 10.4903 5.48044 10.3028 5.2929C10.1153 5.10537 9.86092 5.00001 9.5957 5.00001ZM6.7657 5.00001C6.97231 4.41448 7.35544 3.90744 7.8623 3.5488C8.36916 3.19015 8.97479 2.99756 9.5957 2.99756C10.2166 2.99756 10.8222 3.19015 11.3291 3.5488C11.836 3.90744 12.2191 4.41448 12.4257 5.00001H19.5957C19.8609 5.00001 20.1153 5.10537 20.3028 5.2929C20.4903 5.48044 20.5957 5.73479 20.5957 6.00001C20.5957 6.26523 20.4903 6.51958 20.3028 6.70712C20.1153 6.89465 19.8609 7.00001 19.5957 7.00001H12.4257C12.2191 7.58554 11.836 8.09258 11.3291 8.45122C10.8222 8.80986 10.2166 9.00246 9.5957 9.00246C8.97479 9.00246 8.36916 8.80986 7.8623 8.45122C7.35544 8.09258 6.97231 7.58554 6.7657 7.00001H5.5957C5.33049 7.00001 5.07613 6.89465 4.8886 6.70712C4.70106 6.51958 4.5957 6.26523 4.5957 6.00001C4.5957 5.73479 4.70106 5.48044 4.8886 5.2929C5.07613 5.10537 5.33049 5.00001 5.5957 5.00001H6.7657ZM15.5957 11C15.3305 11 15.0761 11.1054 14.8886 11.2929C14.7011 11.4804 14.5957 11.7348 14.5957 12C14.5957 12.2652 14.7011 12.5196 14.8886 12.7071C15.0761 12.8947 15.3305 13 15.5957 13C15.8609 13 16.1153 12.8947 16.3028 12.7071C16.4903 12.5196 16.5957 12.2652 16.5957 12C16.5957 11.7348 16.4903 11.4804 16.3028 11.2929C16.1153 11.1054 15.8609 11 15.5957 11ZM12.7657 11C12.9723 10.4145 13.3554 9.90744 13.8623 9.5488C14.3692 9.19015 14.9748 8.99756 15.5957 8.99756C16.2166 8.99756 16.8222 9.19015 17.3291 9.5488C17.836 9.90744 18.2191 10.4145 18.4257 11H19.5957C19.8609 11 20.1153 11.1054 20.3028 11.2929C20.4903 11.4804 20.5957 11.7348 20.5957 12C20.5957 12.2652 20.4903 12.5196 20.3028 12.7071C20.1153 12.8947 19.8609 13 19.5957 13H18.4257C18.2191 13.5855 17.836 14.0926 17.3291 14.4512C16.8222 14.8099 16.2166 15.0025 15.5957 15.0025C14.9748 15.0025 14.3692 14.8099 13.8623 14.4512C13.3554 14.0926 12.9723 13.5855 12.7657 13H5.5957C5.33049 13 5.07613 12.8947 4.8886 12.7071C4.70106 12.5196 4.5957 12.2652 4.5957 12C4.5957 11.7348 4.70106 11.4804 4.8886 11.2929C5.07613 11.1054 5.33049 11 5.5957 11H12.7657ZM9.5957 17C9.33049 17 9.07613 17.1054 8.8886 17.2929C8.70106 17.4804 8.5957 17.7348 8.5957 18C8.5957 18.2652 8.70106 18.5196 8.8886 18.7071C9.07613 18.8947 9.33049 19 9.5957 19C9.86092 19 10.1153 18.8947 10.3028 18.7071C10.4903 18.5196 10.5957 18.2652 10.5957 18C10.5957 17.7348 10.4903 17.4804 10.3028 17.2929C10.1153 17.1054 9.86092 17 9.5957 17ZM6.7657 17C6.97231 16.4145 7.35544 15.9074 7.8623 15.5488C8.36916 15.1902 8.97479 14.9976 9.5957 14.9976C10.2166 14.9976 10.8222 15.1902 11.3291 15.5488C11.836 15.9074 12.2191 16.4145 12.4257 17H19.5957C19.8609 17 20.1153 17.1054 20.3028 17.2929C20.4903 17.4804 20.5957 17.7348 20.5957 18C20.5957 18.2652 20.4903 18.5196 20.3028 18.7071C20.1153 18.8947 19.8609 19 19.5957 19H12.4257C12.2191 19.5855 11.836 20.0926 11.3291 20.4512C10.8222 20.8099 10.2166 21.0025 9.5957 21.0025C8.97479 21.0025 8.36916 20.8099 7.8623 20.4512C7.35544 20.0926 6.97231 19.5855 6.7657 19H5.5957C5.33049 19 5.07613 18.8947 4.8886 18.7071C4.70106 18.5196 4.5957 18.2652 4.5957 18C4.5957 17.7348 4.70106 17.4804 4.8886 17.2929C5.07613 17.1054 5.33049 17 5.5957 17H6.7657Z" fill="black"/>
</g>
</svg>
