<svg width="28" height="32" viewBox="0 0 28 32" fill="none" xmlns="http://www.w3.org/2000/svg">
<path d="M3.69031 3.74875H21.8001L21.8604 8.75914C25.0277 8.75914 27.5952 11.3267 27.5952 14.4939V20.2286C27.5952 23.3959 25.0277 25.9634 21.8604 25.9634L21.8001 32H3.69031V3.74875ZM21.8001 22.5829C23.067 22.5829 24.6977 20.9522 24.6977 19.6854V15.339C24.6977 14.0721 23.067 11.717 21.8001 11.717V22.5829ZM5.86349 5.92192V7.3707H19.6269V5.92192H5.86349ZM19.6269 29.8268V28.378H5.86349V29.8268H19.6269ZM8.39886 9.54388C7.76545 9.54388 7.31227 10.3592 7.31227 10.9927V24.7561C7.31227 25.3896 7.76538 26.2049 8.39886 26.2049C9.03226 26.2049 9.48544 25.3896 9.48544 24.7561V10.9927C9.48544 10.3592 9.03234 9.54388 8.39886 9.54388ZM12.7452 9.54388C12.1118 9.54388 11.6586 10.3592 11.6586 10.9927V24.7561C11.6586 25.3896 12.1117 26.2049 12.7452 26.2049C13.3786 26.2049 13.8318 25.4499 13.8318 24.8164V10.9927C13.8318 10.3592 13.3787 9.54388 12.7452 9.54388ZM17.0916 9.54388C16.4581 9.54388 16.005 10.3592 16.005 10.9927V24.7561C16.005 25.3896 16.4581 26.2049 17.0916 26.2049C17.725 26.2049 18.1781 25.3896 18.1781 24.7561V10.9927C18.1781 10.3592 17.725 9.54388 17.0916 9.54388ZM3.50922 1.7416C4.41471 1.57557 9.244 -0.839039 10.3909 0.307889C11.5379 1.45482 12.6849 1.45482 13.8318 1.45482C14.9787 1.45482 16.1257 0.307889 18.4196 0.307889C19.5666 0.307889 21.8604 0.88139 21.8604 2.02832C21.8001 4.47314 21.0002 2.88853 21.0002 2.88853C21.0002 2.88853 20.4267 1.7416 18.1329 1.7416C15.8389 1.7416 14.9787 2.88853 13.8318 2.88853C12.6849 2.88853 10.6776 1.7416 8.38379 1.7416C6.08986 1.7416 5.77294 2.90367 4.36943 2.60182C2.96592 2.29996 1.51714 3.74875 2.0755 5.18246C2.96592 6.64631 2.36222 7.57476 2.36229 9.19682C2.36229 9.48353 2.06043 9.45333 1.78879 8.04982C1.51714 6.64631 0.0683594 6.04268 0.0683594 4.89568C0.0683594 3.74875 0.189115 3.62799 1.21529 2.60182C2.24153 1.57557 2.60373 1.90763 3.50922 1.7416Z" fill="black"/>
</svg>
