<svg width="32" height="32" viewBox="0 0 32 32" fill="none" xmlns="http://www.w3.org/2000/svg">
<g clip-path="url(#clip0_237_3169)">
<path d="M15.9994 6.85693C14.8693 6.85693 13.7645 7.19207 12.8248 7.81996C11.885 8.44786 11.1526 9.34031 10.7201 10.3845C10.2876 11.4286 10.1745 12.5776 10.395 13.686C10.6154 14.7945 11.1597 15.8127 11.9588 16.6118C12.758 17.411 13.7762 17.9552 14.8846 18.1757C15.9931 18.3962 17.1421 18.283 18.1862 17.8505C19.2304 17.418 20.1228 16.6856 20.7507 15.7459C21.3786 14.8062 21.7137 13.7014 21.7137 12.5712C21.7137 11.0557 21.1117 9.60225 20.0401 8.53061C18.9684 7.45897 17.515 6.85693 15.9994 6.85693Z" fill="white"/>
<path d="M16 0C12.8355 0 9.74207 0.938384 7.11088 2.69649C4.4797 4.45459 2.42894 6.95345 1.21793 9.87707C0.00693253 12.8007 -0.309921 16.0177 0.307443 19.1214C0.924806 22.2251 2.44866 25.0761 4.6863 27.3137C6.92394 29.5513 9.77487 31.0752 12.8786 31.6926C15.9823 32.3099 19.1993 31.9931 22.1229 30.7821C25.0466 29.5711 27.5454 27.5203 29.3035 24.8891C31.0616 22.2579 32 19.1645 32 16C31.9952 11.758 30.308 7.69112 27.3084 4.69157C24.3089 1.69202 20.242 0.00477931 16 0ZM25.1343 26.2009C25.1116 24.7018 24.5007 23.2716 23.4335 22.2185C22.3662 21.1655 20.9279 20.574 19.4286 20.5714H12.5714C11.0721 20.574 9.63383 21.1655 8.56655 22.2185C7.49927 23.2716 6.88844 24.7018 6.86572 26.2009C4.79322 24.3503 3.3317 21.9139 2.67468 19.2142C2.01765 16.5146 2.19612 13.679 3.18645 11.083C4.17678 8.48706 5.93226 6.25311 8.22043 4.67699C10.5086 3.10088 13.2215 2.25694 16 2.25694C18.7785 2.25694 21.4914 3.10088 23.7796 4.67699C26.0678 6.25311 27.8232 8.48706 28.8136 11.083C29.8039 13.679 29.9824 16.5146 29.3253 19.2142C28.6683 21.9139 27.2068 24.3503 25.1343 26.2009Z" fill="white"/>
</g>
<defs>
<clipPath id="clip0_237_3169">
<rect width="32" height="32" fill="white"/>
</clipPath>
</defs>
</svg>
