<svg width="32" height="32" viewBox="0 0 32 32" fill="none" xmlns="http://www.w3.org/2000/svg">
<g clip-path="url(#clip0_237_3173)">
<path d="M28.2845 26.2054C29.9253 24.2307 31.0664 21.8899 31.6113 19.3809C32.1562 16.8719 32.0889 14.2686 31.4149 11.7912C30.741 9.31378 29.4804 7.03509 27.7396 5.14788C25.9988 3.26066 23.8292 1.82044 21.4141 0.949035C18.9991 0.077626 16.4097 -0.19934 13.8649 0.141563C11.3202 0.482467 8.89502 1.43121 6.79448 2.90755C4.69394 4.38389 2.97985 6.3444 1.79719 8.62324C0.614532 10.9021 -0.00191131 13.4322 4.45165e-06 15.9997C0.000899531 19.7325 1.31636 23.3458 3.71555 26.2054L3.69269 26.2244C3.77269 26.321 3.86412 26.4035 3.94663 26.4978C4.04949 26.6162 4.15966 26.7263 4.26663 26.8415C4.58663 27.1882 4.91509 27.5218 5.26092 27.8358C5.36549 27.9308 5.47395 28.02 5.58092 28.112C5.94663 28.4274 6.32195 28.726 6.71235 29.005C6.76275 29.0406 6.80743 29.0842 6.85818 29.1199V29.1054C9.53487 30.989 12.728 31.9999 16.001 31.9999C19.2741 31.9999 22.4672 30.989 25.1439 29.1054V29.1197C25.1946 29.0839 25.2393 29.0404 25.2897 29.0047C25.6797 28.7258 26.0554 28.4271 26.4211 28.1118C26.5281 28.0204 26.6366 27.9306 26.7411 27.8356C27.0869 27.5214 27.4154 27.1878 27.7354 26.8413C27.8421 26.7263 27.9519 26.6159 28.0554 26.4975C28.1376 26.4032 28.2294 26.3207 28.3094 26.2242L28.2845 26.2054ZM16 6.85685C17.0172 6.85685 18.0115 7.15847 18.8572 7.72357C19.703 8.28868 20.3621 9.09188 20.7514 10.0316C21.1406 10.9714 21.2425 12.0054 21.044 13.003C20.8456 14.0006 20.3558 14.917 19.6366 15.6363C18.9173 16.3555 18.0009 16.8453 17.0033 17.0437C16.0057 17.2422 14.9717 17.1403 14.0319 16.7511C13.0922 16.3618 12.289 15.7027 11.7239 14.8569C11.1588 14.0112 10.8571 13.0169 10.8571 11.9997C10.8571 10.6357 11.399 9.32763 12.3635 8.36315C13.3279 7.39868 14.636 6.85685 16 6.85685ZM6.86526 26.2054C6.885 24.7048 7.49478 23.2723 8.56267 22.2179C9.63057 21.1634 11.0707 20.5718 12.5714 20.5711H19.4286C20.9293 20.5719 22.3694 21.1635 23.4373 22.2179C24.5052 23.2723 25.115 24.7048 25.1347 26.2054C22.6283 28.464 19.374 29.714 16 29.714C12.626 29.714 9.37171 28.464 6.86526 26.2054Z" fill="white"/>
</g>
<defs>
<clipPath id="clip0_237_3173">
<rect width="32" height="32" fill="white"/>
</clipPath>
</defs>
</svg>
