<svg width="32" height="32" viewBox="0 0 32 32" fill="none" xmlns="http://www.w3.org/2000/svg">
<g clip-path="url(#clip0_208_1662)">
<path d="M28.8976 24.7376C28.0404 23.9735 27.29 23.0975 26.6665 22.1332C25.9858 20.8021 25.5778 19.3485 25.4665 17.8576V13.4665C25.4724 11.1248 24.623 8.86161 23.0778 7.10206C21.5327 5.3425 19.3982 4.20773 17.0754 3.91097V2.7643C17.0754 2.44958 16.9504 2.14775 16.7278 1.9252C16.5053 1.70266 16.2034 1.57764 15.8887 1.57764C15.574 1.57764 15.2722 1.70266 15.0496 1.9252C14.8271 2.14775 14.702 2.44958 14.702 2.7643V3.92875C12.4001 4.24691 10.2914 5.38853 8.76652 7.14218C7.24168 8.89582 6.40403 11.1427 6.40872 13.4665V17.8576C6.29739 19.3485 5.88941 20.8021 5.20872 22.1332C4.59617 23.0953 3.85778 23.9712 3.01316 24.7376C2.91834 24.8209 2.84235 24.9235 2.79024 25.0384C2.73813 25.1534 2.7111 25.2781 2.71094 25.4043V26.6132C2.71094 26.8489 2.80459 27.075 2.97129 27.2417C3.13799 27.4084 3.36408 27.5021 3.59983 27.5021H28.3109C28.5467 27.5021 28.7728 27.4084 28.9395 27.2417C29.1062 27.075 29.1998 26.8489 29.1998 26.6132V25.4043C29.1997 25.2781 29.1726 25.1534 29.1205 25.0384C29.0684 24.9235 28.9924 24.8209 28.8976 24.7376ZM4.55983 25.7243C5.38686 24.9254 6.11503 24.0301 6.72872 23.0576C7.58615 21.4501 8.08643 19.6763 8.19538 17.8576V13.4665C8.16013 12.4248 8.33487 11.3866 8.7092 10.4138C9.08353 9.44098 9.64979 8.55344 10.3743 7.80404C11.0987 7.05463 11.9666 6.45867 12.9262 6.05166C13.8858 5.64464 14.9175 5.43489 15.9598 5.43489C17.0022 5.43489 18.0339 5.64464 18.9934 6.05166C19.953 6.45867 20.8209 7.05463 21.5454 7.80404C22.2699 8.55344 22.8361 9.44098 23.2105 10.4138C23.5848 11.3866 23.7595 12.4248 23.7243 13.4665V17.8576C23.8332 19.6763 24.3335 21.4501 25.1909 23.0576C25.8046 24.0301 26.5328 24.9254 27.3598 25.7243H4.55983Z" fill="black"/>
<path d="M15.9994 30.471C16.5594 30.4581 17.0967 30.2476 17.5164 29.8767C17.9361 29.5058 18.2111 28.9984 18.2927 28.4443H13.6172C13.7012 29.0135 13.989 29.5328 14.4272 29.9056C14.8654 30.2784 15.4241 30.4793 15.9994 30.471Z" fill="black"/>
<rect x="8" y="8" width="16" height="18" rx="2" fill="black"/>
<path d="M10 9C10 6.79086 11.7909 5 14 5H18C20.2091 5 22 6.79086 22 9H10Z" fill="black"/>
<rect x="4" y="24" width="24" height="2" fill="black"/>
<rect x="7" y="19" width="2" height="6" fill="black"/>
<rect x="6" y="22" width="2" height="3" fill="black"/>
<rect x="23" y="19" width="2" height="6" fill="black"/>
<rect x="24" y="22" width="2" height="3" fill="black"/>
</g>
<defs>
<clipPath id="clip0_208_1662">
<rect width="32" height="32" fill="white"/>
</clipPath>
</defs>
</svg>
