<svg width="143" height="32" viewBox="0 0 143 32" fill="none" xmlns="http://www.w3.org/2000/svg">
<path d="M73.0106 16.9443C73.0106 18.1276 72.7321 19.1716 72.1753 20.0764C71.6185 20.9812 70.8268 21.6773 69.8002 22.1645C68.7735 22.6517 67.5903 22.8953 66.2505 22.8953H65.5197C64.1798 22.8953 62.9966 22.6517 61.97 22.1645C60.9607 21.6773 60.1777 20.9812 59.6209 20.0764C59.0641 19.1716 58.7857 18.1276 58.7857 16.9443V4.7292H62.8052V16.866C62.8052 17.6838 63.0923 18.3625 63.6665 18.9019C64.2581 19.4413 65.0063 19.711 65.9112 19.711C66.8334 19.711 67.5729 19.45 68.1297 18.928C68.7039 18.3886 68.991 17.7012 68.991 16.866V4.7292H73.0106V16.9443Z" fill="black"/>
<path d="M73.0067 22.6343H68.9872V4.7292H77.6265C78.6009 4.7292 79.4971 4.96411 80.3149 5.43392C81.1501 5.88634 81.8113 6.52145 82.2985 7.33927C82.7857 8.1571 83.0293 9.07062 83.0293 10.0798V10.2365C83.0293 11.2283 82.7857 12.1505 82.2985 13.0031C81.8287 13.8383 81.1762 14.4996 80.341 14.9868C79.5232 15.474 78.6183 15.7176 77.6265 15.7176H73.0067V22.6343ZM73.0067 12.5594H76.6869C77.3481 12.5594 77.8962 12.3419 78.3312 11.9069C78.7662 11.4545 78.9837 10.9325 78.9837 10.3409V10.1842C78.9837 9.57523 78.7662 9.05322 78.3312 8.61821C77.9136 8.1658 77.3655 7.93959 76.6869 7.93959H73.0067V12.5594Z" fill="#F6163C"/>
<ellipse cx="62.812" cy="11.5294" rx="1.07972" ry="1.04614" transform="rotate(-18.7668 62.812 11.5294)" fill="#F6163C"/>
<ellipse cx="69.2222" cy="11.5196" rx="1.07972" ry="1.04614" transform="rotate(-18.7668 69.2222 11.5196)" fill="black"/>
<path d="M72.9769 23.5503H68.9574V5.64522H77.5967C78.5711 5.64522 79.4673 5.88013 80.2851 6.34994C81.1203 6.80235 81.7815 7.43747 82.2687 8.25529C82.7559 9.07311 82.9995 9.98664 82.9995 10.9959V11.1525C82.9995 12.1443 82.7559 13.0665 82.2687 13.9191C81.7989 14.7544 81.1464 15.4156 80.3112 15.9028C79.4934 16.39 78.5885 16.6336 77.5967 16.6336H72.9769V23.5503ZM72.9769 13.4754H76.6571C77.3183 13.4754 77.8664 13.2579 78.3014 12.8229C78.7364 12.3705 78.9539 11.8485 78.9539 11.2569V11.1003C78.9539 10.4912 78.7364 9.96924 78.3014 9.53422C77.8838 9.08181 77.3357 8.85561 76.6571 8.85561H72.9769V13.4754Z" fill="#F6163C"/>
<ellipse cx="68.978" cy="11.8077" rx="1.07972" ry="1.04614" transform="rotate(-18.7668 68.978 11.8077)" fill="black"/>
<path d="M75.871 7.11133C73.3527 7.11133 71.3118 9.1826 71.3118 11.7385C71.3118 12.6105 71.5496 13.4251 71.963 14.1209C71.8543 14.7044 71.5468 15.6048 70.6699 15.9744C70.6699 15.9744 72.329 16.1554 73.4075 15.6302C74.1181 16.095 74.9634 16.3656 75.8719 16.3656C78.3903 16.3656 80.4311 14.2943 80.4311 11.7385C80.4302 9.1826 78.3893 7.11133 75.871 7.11133Z" fill="black"/>
<path d="M11.4905 10.6668C11.4905 10.0055 11.2295 9.49223 10.7075 9.12682C10.1855 8.74401 9.46336 8.55261 8.54114 8.55261C7.58412 8.55261 6.8359 8.70921 6.29648 9.02242C5.77447 9.31823 5.51346 9.71844 5.51346 10.2231C5.51346 10.6581 5.67876 11.0235 6.00937 11.3193C6.33998 11.5977 6.75759 11.8239 7.26221 11.9979C7.78422 12.1719 8.48894 12.3633 9.37636 12.5721C10.6814 12.8853 11.7515 13.2072 12.5867 13.5378C13.4394 13.8684 14.1615 14.3818 14.7531 15.0778C15.3621 15.7738 15.6666 16.7047 15.6666 17.8706C15.6666 19.9064 15.0054 21.4028 13.683 22.3599C12.3779 23.2995 10.577 23.7693 8.28013 23.7693C6.19208 23.7693 4.46073 23.3169 3.0861 22.4121C1.72886 21.4898 1.05024 20.0978 1.05024 18.236L1.07634 17.6617H4.88704L4.86094 18.0794C4.86094 18.845 5.14805 19.454 5.72227 19.9064C6.29648 20.3414 7.1056 20.5589 8.14963 20.5589C9.36766 20.5589 10.2377 20.3675 10.7597 19.9847C11.2991 19.6019 11.5688 19.1147 11.5688 18.5231C11.5688 18.0707 11.4035 17.7052 11.0729 17.4268C10.7597 17.131 10.3508 16.9048 9.84617 16.7482C9.35896 16.5742 8.67164 16.3828 7.78422 16.174C6.46179 15.8434 5.38296 15.5128 4.54774 15.1822C3.71251 14.8516 2.99039 14.3209 2.38138 13.59C1.77236 12.8592 1.46785 11.8761 1.46785 10.6407C1.46785 9.49223 1.78106 8.51781 2.40748 7.71738C3.0339 6.91696 3.86912 6.32535 4.91314 5.94254C5.97457 5.54233 7.1578 5.34222 8.46284 5.34222C10.4639 5.34222 12.0995 5.78593 13.3698 6.67336C14.64 7.54338 15.2751 8.84841 15.2751 10.5885V10.9017L11.4905 10.9017V10.6668ZM25.6571 23.2734C25.3091 23.4126 24.848 23.5257 24.2737 23.6127C23.7169 23.7171 23.221 23.7693 22.786 23.7693C21.4462 23.7693 20.4369 23.4822 19.7583 22.908C19.0797 22.3338 18.7404 21.3767 18.7404 20.0369L18.7404 12.7809H17.2788V10.1708H18.8709L20.202 5.91644H22.5511V10.1708H25.6571V12.7809H22.5511L22.5511 19.3844C22.5511 20.0804 22.6816 20.5502 22.9426 20.7938C23.221 21.0374 23.5864 21.1592 24.0388 21.1592C24.2476 21.1592 24.5173 21.1244 24.848 21.0548C25.1786 20.9852 25.4483 20.9069 25.6571 20.8199V23.2734ZM36.2825 14.5036C36.2825 13.9119 36.0911 13.4334 35.7083 13.068C35.3429 12.7026 34.7426 12.5199 33.9073 12.5199C33.4201 12.5199 33.0025 12.6069 32.6545 12.7809C32.3065 12.9375 32.0368 13.1376 31.8454 13.3812C31.6714 13.6248 31.5844 13.851 31.5844 14.0599V14.2687H27.9042C27.8694 14.0599 27.852 13.9032 27.852 13.7988C27.852 13.0506 28.0956 12.3807 28.5828 11.7891C29.0874 11.1975 29.7834 10.7364 30.6709 10.4058C31.5583 10.0751 32.5762 9.90984 33.7246 9.90984H34.2727C36.152 9.90984 37.5788 10.284 38.5533 11.0322C39.5277 11.763 40.0149 12.7722 40.0149 14.0599V20.2196C40.0149 20.5328 40.0845 20.7677 40.2237 20.9243C40.3803 21.0809 40.563 21.1592 40.7718 21.1592C40.9458 21.1592 41.1372 21.1244 41.346 21.0548C41.5548 20.9852 41.7201 20.9243 41.8419 20.8721V23.2212C41.1981 23.5866 40.4325 23.7693 39.5451 23.7693C38.5881 23.7693 37.8572 23.5779 37.3526 23.1951C36.848 22.7949 36.5522 22.2381 36.4652 21.5246C35.2472 23.0211 33.7507 23.7693 31.9759 23.7693C30.6535 23.7693 29.5659 23.4996 28.7133 22.9602C27.8607 22.4208 27.4344 21.3941 27.4344 19.8803C27.4344 18.6449 27.7824 17.7052 28.4784 17.0614C29.1918 16.4002 30.1749 15.9565 31.4278 15.7303C32.6806 15.5041 34.2988 15.391 36.2825 15.391V14.5036ZM36.2825 17.5312C34.6295 17.5312 33.394 17.6965 32.5762 18.0272C31.7758 18.3404 31.3756 18.8624 31.3756 19.5932C31.3756 20.1674 31.5322 20.5763 31.8454 20.8199C32.176 21.0461 32.6719 21.1592 33.3331 21.1592C33.7855 21.1592 34.2379 21.0374 34.6904 20.7938C35.1428 20.5502 35.5169 20.2022 35.8127 19.7498C36.1259 19.2974 36.2825 18.7928 36.2825 18.236V17.5312ZM51.0726 22.7775C50.4288 24.5175 49.6371 25.8835 48.6975 26.8753C47.7578 27.8845 46.6268 28.3891 45.3044 28.3891C44.3821 28.3891 43.6339 28.2586 43.0597 27.9976L43.0597 25.3092C43.2685 25.3963 43.5382 25.4746 43.8688 25.5442C44.1994 25.6312 44.5126 25.6747 44.8085 25.6747C45.9221 25.6747 46.7138 24.8655 47.1836 23.2473L42.1462 10.1708H46.1918L49.1412 18.5492H49.2978L52.0644 10.1708L55.8229 10.1708L51.0726 22.7775Z" fill="black"/>
<path d="M88.7679 23.2998H84.7484V5.39473L93.3877 5.39473C94.3621 5.39473 95.2583 5.62964 96.0761 6.09945C96.9113 6.55186 97.5725 7.18698 98.0597 8.0048C98.547 8.82262 98.7906 9.73615 98.7906 10.7454V10.902C98.7906 11.8938 98.547 12.816 98.0597 13.6687C97.5899 14.5039 96.9374 15.1651 96.1022 15.6523C95.2844 16.1395 94.3795 16.3831 93.3877 16.3831H88.7679V23.2998ZM88.7679 13.2249H92.4481C93.1093 13.2249 93.6574 13.0074 94.0924 12.5724C94.5274 12.12 94.745 11.598 94.745 11.0064V10.8498C94.745 10.2408 94.5274 9.71875 94.0924 9.28374C93.6748 8.83132 93.1267 8.60512 92.4481 8.60512L88.7679 8.60512V13.2249ZM101.163 23.2998V5.39473L113.77 5.39473L113.326 8.60512L105.131 8.60512V12.5202L112.778 12.5202V15.7306L105.131 15.7306V20.0894H113.404L113.848 23.2998H101.163ZM131.797 23.1432C131.222 23.3694 130.474 23.4825 129.552 23.4825C128.664 23.4825 127.942 23.265 127.385 22.83C126.829 22.395 126.55 21.6642 126.55 20.6375C126.55 19.1411 126.35 17.9753 125.95 17.14C125.567 16.3048 124.836 15.8872 123.757 15.8872L120.73 15.8872V23.2998H116.763V5.39473L124.775 5.39473C126.481 5.39473 127.908 5.74274 129.056 6.43876C130.222 7.13478 130.805 8.26581 130.805 9.83185C130.805 10.4583 130.665 11.076 130.387 11.685C130.109 12.294 129.717 12.816 129.213 13.251C128.725 13.6861 128.186 13.9558 127.594 14.0602V14.1907C128.36 14.4343 129.03 14.9563 129.604 15.7567C130.178 16.5571 130.465 17.6273 130.465 18.9671C130.465 20.8811 130.909 21.9774 131.797 22.2558V23.1432ZM124.645 12.729C125.219 12.729 125.706 12.5376 126.107 12.1548C126.524 11.772 126.733 11.3109 126.733 10.7715V10.5888C126.733 10.0146 126.533 9.54474 126.133 9.17933C125.75 8.79652 125.254 8.60512 124.645 8.60512H120.73V12.729L124.645 12.729ZM133.703 5.39473L138.323 5.39473L137.253 18.0275H134.721L133.703 5.39473ZM134.12 19.463H137.931V23.2998H134.12V19.463Z" fill="#F6163C"/>
</svg>
