<svg width="219" height="42" viewBox="0 0 219 42" fill="none" xmlns="http://www.w3.org/2000/svg">
<path d="M111.889 24.5178C111.889 26.3311 111.463 27.9311 110.609 29.3178C109.756 30.7045 108.543 31.7711 106.969 32.5178C105.396 33.2645 103.583 33.6378 101.529 33.6378H100.409C98.356 33.6378 96.5426 33.2645 94.9693 32.5178C93.4226 31.7711 92.2226 30.7045 91.3693 29.3178C90.516 27.9311 90.0893 26.3311 90.0893 24.5178V5.79779H96.2493V24.3978C96.2493 25.6511 96.6893 26.6911 97.5693 27.5178C98.476 28.3445 99.6226 28.7578 101.009 28.7578C102.423 28.7578 103.556 28.3578 104.409 27.5578C105.289 26.7311 105.729 25.6778 105.729 24.3978V5.79779H111.889V24.5178Z" fill="white"/>
<path d="M111.883 33.2378H105.723V5.79779H118.963C120.457 5.79779 121.83 6.15779 123.083 6.87779C124.363 7.57113 125.377 8.54446 126.123 9.79779C126.87 11.0511 127.243 12.4511 127.243 13.9978V14.2378C127.243 15.7578 126.87 17.1711 126.123 18.4778C125.403 19.7578 124.403 20.7711 123.123 21.5178C121.87 22.2645 120.483 22.6378 118.963 22.6378H111.883V33.2378ZM111.883 17.7978H117.523C118.537 17.7978 119.377 17.4645 120.043 16.7978C120.71 16.1045 121.043 15.3045 121.043 14.3978V14.1578C121.043 13.2245 120.71 12.4245 120.043 11.7578C119.403 11.0645 118.563 10.7178 117.523 10.7178H111.883V17.7978Z" fill="#F6163C"/>
<ellipse cx="96.2603" cy="15.0648" rx="1.6547" ry="1.60323" transform="rotate(-18.7668 96.2603 15.0648)" fill="#F6163C"/>
<ellipse cx="106.083" cy="15.0506" rx="1.6547" ry="1.60323" transform="rotate(-18.7668 106.083 15.0506)" fill="white"/>
<path d="M111.841 33.2002H105.681V5.76019H118.921C120.414 5.76019 121.787 6.12019 123.041 6.84019C124.321 7.53353 125.334 8.50686 126.081 9.76019C126.827 11.0135 127.201 12.4135 127.201 13.9602V14.2002C127.201 15.7202 126.827 17.1335 126.081 18.4402C125.361 19.7202 124.361 20.7335 123.081 21.4802C121.827 22.2269 120.441 22.6002 118.921 22.6002H111.841V33.2002ZM111.841 17.7602H117.481C118.494 17.7602 119.334 17.4269 120.001 16.7602C120.667 16.0669 121.001 15.2669 121.001 14.3602V14.1202C121.001 13.1869 120.667 12.3869 120.001 11.7202C119.361 11.0269 118.521 10.6802 117.481 10.6802H111.841V17.7602Z" fill="#F6163C"/>
<ellipse cx="105.711" cy="15.0501" rx="1.6547" ry="1.60323" transform="rotate(-18.7668 105.711 15.0501)" fill="white"/>
<path d="M116.275 7.6123C112.416 7.6123 109.288 10.5885 109.288 14.2609C109.288 15.5139 109.653 16.6843 110.286 17.6841C110.12 18.5226 109.649 19.8163 108.305 20.3473C108.305 20.3473 110.847 20.6074 112.5 19.8528C113.589 20.5207 114.885 20.9095 116.277 20.9095C120.136 20.9095 123.264 17.9333 123.264 14.2609C123.263 10.5885 120.135 7.6123 116.275 7.6123Z" fill="white"/>
<path d="M17.6109 13.0915C17.6109 12.0782 17.2109 11.2915 16.4109 10.7315C15.6109 10.1448 14.5043 9.85148 13.0909 9.85148C11.6243 9.85148 10.4776 10.0915 9.65094 10.5715C8.85094 11.0248 8.45094 11.6381 8.45094 12.4115C8.45094 13.0782 8.70427 13.6382 9.21094 14.0915C9.7176 14.5182 10.3576 14.8648 11.1309 15.1315C11.9309 15.3982 13.0109 15.6915 14.3709 16.0115C16.3709 16.4915 18.0109 16.9848 19.2909 17.4915C20.5976 17.9982 21.7043 18.7848 22.6109 19.8515C23.5443 20.9182 24.0109 22.3448 24.0109 24.1315C24.0109 27.2515 22.9976 29.5448 20.9709 31.0115C18.9709 32.4515 16.2109 33.1715 12.6909 33.1715C9.49094 33.1715 6.8376 32.4782 4.73094 31.0915C2.65094 29.6782 1.61094 27.5448 1.61094 24.6915L1.65094 23.8115H7.49094L7.45094 24.4515C7.45094 25.6248 7.89094 26.5582 8.77094 27.2515C9.65094 27.9182 10.8909 28.2515 12.4909 28.2515C14.3576 28.2515 15.6909 27.9582 16.4909 27.3715C17.3176 26.7848 17.7309 26.0382 17.7309 25.1315C17.7309 24.4382 17.4776 23.8782 16.9709 23.4515C16.4909 22.9982 15.8643 22.6515 15.0909 22.4115C14.3443 22.1448 13.2909 21.8515 11.9309 21.5315C9.90427 21.0248 8.25094 20.5182 6.97094 20.0115C5.69094 19.5048 4.58427 18.6915 3.65094 17.5715C2.7176 16.4515 2.25094 14.9448 2.25094 13.0515C2.25094 11.2915 2.73094 9.79815 3.69094 8.57148C4.65094 7.34482 5.93094 6.43815 7.53094 5.85148C9.1576 5.23815 10.9709 4.93148 12.9709 4.93148C16.0376 4.93148 18.5443 5.61148 20.4909 6.97148C22.4376 8.30482 23.4109 10.3048 23.4109 12.9715V13.4515H17.6109V13.0915ZM39.3216 32.4115C38.7882 32.6248 38.0816 32.7982 37.2016 32.9315C36.3482 33.0915 35.5882 33.1715 34.9216 33.1715C32.8682 33.1715 31.3216 32.7315 30.2816 31.8515C29.2416 30.9715 28.7216 29.5048 28.7216 27.4515V16.3315L26.4816 16.3315L26.4816 12.3315L28.9216 12.3315L30.9616 5.81148H34.5616V12.3315L39.3216 12.3315V16.3315H34.5616L34.5616 26.4515C34.5616 27.5182 34.7616 28.2382 35.1616 28.6115C35.5882 28.9848 36.1482 29.1715 36.8416 29.1715C37.1616 29.1715 37.5749 29.1182 38.0816 29.0115C38.5882 28.9048 39.0016 28.7848 39.3216 28.6515V32.4115ZM55.6053 18.9715C55.6053 18.0648 55.312 17.3315 54.7253 16.7715C54.1653 16.2115 53.2453 15.9315 51.9653 15.9315C51.2186 15.9315 50.5786 16.0648 50.0453 16.3315C49.512 16.5715 49.0986 16.8782 48.8053 17.2515C48.5386 17.6248 48.4053 17.9715 48.4053 18.2915V18.6115H42.7653C42.712 18.2915 42.6853 18.0515 42.6853 17.8915C42.6853 16.7448 43.0586 15.7182 43.8053 14.8115C44.5786 13.9048 45.6453 13.1982 47.0053 12.6915C48.3653 12.1848 49.9253 11.9315 51.6853 11.9315H52.5253C55.4053 11.9315 57.592 12.5048 59.0853 13.6515C60.5786 14.7715 61.3253 16.3182 61.3253 18.2915L61.3253 27.7315C61.3253 28.2115 61.432 28.5715 61.6453 28.8115C61.8853 29.0515 62.1653 29.1715 62.4853 29.1715C62.752 29.1715 63.0453 29.1182 63.3653 29.0115C63.6853 28.9048 63.9386 28.8115 64.1253 28.7315V32.3315C63.1386 32.8915 61.9653 33.1715 60.6053 33.1715C59.1386 33.1715 58.0186 32.8782 57.2453 32.2915C56.472 31.6782 56.0186 30.8248 55.8853 29.7315C54.0186 32.0248 51.7253 33.1715 49.0053 33.1715C46.9786 33.1715 45.312 32.7582 44.0053 31.9315C42.6986 31.1048 42.0453 29.5315 42.0453 27.2115C42.0453 25.3182 42.5786 23.8782 43.6453 22.8915C44.7386 21.8782 46.2453 21.1982 48.1653 20.8515C50.0853 20.5048 52.5653 20.3315 55.6053 20.3315V18.9715ZM55.6053 23.6115C53.072 23.6115 51.1786 23.8648 49.9253 24.3715C48.6986 24.8515 48.0853 25.6515 48.0853 26.7715C48.0853 27.6515 48.3253 28.2782 48.8053 28.6515C49.312 28.9982 50.072 29.1715 51.0853 29.1715C51.7786 29.1715 52.472 28.9848 53.1653 28.6115C53.8586 28.2382 54.432 27.7048 54.8853 27.0115C55.3653 26.3182 55.6053 25.5448 55.6053 24.6915V23.6115ZM78.2716 31.6515C77.2849 34.3182 76.0716 36.4115 74.6316 37.9315C73.1916 39.4782 71.4582 40.2515 69.4316 40.2515C68.0182 40.2515 66.8716 40.0515 65.9916 39.6515V35.5315C66.3116 35.6648 66.7249 35.7848 67.2316 35.8915C67.7382 36.0248 68.2182 36.0915 68.6716 36.0915C70.3782 36.0915 71.5916 34.8515 72.3116 32.3715L64.5916 12.3315H70.7916L75.3116 25.1715H75.5516L79.7916 12.3315L85.5516 12.3315L78.2716 31.6515Z" fill="white"/>
<path d="M136.04 33H129.88V5.56L143.12 5.56C144.613 5.56 145.987 5.92 147.24 6.64C148.52 7.33333 149.533 8.30667 150.28 9.56C151.027 10.8133 151.4 12.2133 151.4 13.76V14C151.4 15.52 151.027 16.9333 150.28 18.24C149.56 19.52 148.56 20.5333 147.28 21.28C146.027 22.0267 144.64 22.4 143.12 22.4L136.04 22.4V33ZM136.04 17.56H141.68C142.693 17.56 143.533 17.2267 144.2 16.56C144.867 15.8667 145.2 15.0667 145.2 14.16V13.92C145.2 12.9867 144.867 12.1867 144.2 11.52C143.56 10.8267 142.72 10.48 141.68 10.48L136.04 10.48V17.56ZM155.036 33V5.56L174.356 5.56L173.676 10.48L161.116 10.48V16.48H172.836V21.4H161.116V28.08H173.796L174.476 33L155.036 33ZM201.983 32.76C201.103 33.1067 199.956 33.28 198.543 33.28C197.183 33.28 196.076 32.9467 195.223 32.28C194.369 31.6133 193.943 30.4933 193.943 28.92C193.943 26.6267 193.636 24.84 193.023 23.56C192.436 22.28 191.316 21.64 189.663 21.64H185.023V33L178.943 33V5.56L191.223 5.56C193.836 5.56 196.023 6.09333 197.783 7.16C199.569 8.22667 200.463 9.96 200.463 12.36C200.463 13.32 200.249 14.2667 199.823 15.2C199.396 16.1333 198.796 16.9333 198.023 17.6C197.276 18.2667 196.449 18.68 195.543 18.84V19.04C196.716 19.4133 197.743 20.2133 198.623 21.44C199.503 22.6667 199.943 24.3067 199.943 26.36C199.943 29.2933 200.623 30.9733 201.983 31.4V32.76ZM191.023 16.8C191.903 16.8 192.649 16.5067 193.263 15.92C193.903 15.3333 194.223 14.6267 194.223 13.8V13.52C194.223 12.64 193.916 11.92 193.303 11.36C192.716 10.7733 191.956 10.48 191.023 10.48H185.023V16.8L191.023 16.8ZM204.904 5.56L211.984 5.56L210.344 24.92H206.464L204.904 5.56ZM205.544 27.12H211.384V33H205.544V27.12Z" fill="#F6163C"/>
</svg>
