<svg width="33" height="32" viewBox="0 0 33 32" fill="none" xmlns="http://www.w3.org/2000/svg">
<path fill-rule="evenodd" clip-rule="evenodd" d="M18.4617 22.133C19.5284 23.1997 19.5284 24.7997 18.4617 25.8663C17.9284 26.3997 17.2617 26.6663 16.5951 26.6663C15.9284 26.6663 15.2617 26.3997 14.7284 25.8663C13.6617 24.7997 13.6617 23.1997 14.7284 22.133C15.7951 21.0663 17.3951 21.0663 18.4617 22.133V22.133ZM16.5951 15.9997C18.7284 15.9997 20.7284 16.7997 22.1951 18.3997C22.7284 18.933 22.7284 19.733 22.1951 20.2663C21.9284 20.533 21.5284 20.6663 21.2617 20.6663C20.9189 20.6663 20.674 20.5684 20.4431 20.3725L20.3284 20.2663C18.3284 18.2663 14.9951 18.2663 12.9951 20.2663C12.4617 20.7997 11.6617 20.7997 11.1284 20.2663C10.6361 19.774 10.5982 19.0545 11.0148 18.5272L11.1284 18.3997C12.4617 16.7997 14.4617 15.9997 16.5951 15.9997V15.9997ZM16.5951 10.6663C20.0617 10.6663 23.3951 11.9997 25.7951 14.533C26.3284 15.0663 26.3284 15.8663 25.7951 16.3997C25.5284 16.6663 25.2617 16.7997 24.8617 16.7997C24.5189 16.7997 24.274 16.7017 24.0431 16.5058L23.9284 16.3997C21.9284 14.3997 19.3951 13.333 16.5951 13.333C13.7951 13.333 11.2617 14.3997 9.26172 16.3997C8.72839 16.933 7.92839 16.933 7.39505 16.3997C6.86172 15.8663 6.86172 15.0663 7.39505 14.533C9.79505 11.9997 13.1284 10.6663 16.5951 10.6663V10.6663ZM16.5951 5.33301C21.5284 5.33301 26.0617 7.33301 29.5284 10.7997C30.0617 11.333 30.0617 12.133 29.5284 12.6663C29.2617 12.933 28.9951 13.0663 28.5951 13.0663C28.1951 13.0663 27.9284 12.933 27.6617 12.6663C24.7284 9.59967 20.7284 7.99967 16.5951 7.99967C12.4617 7.99967 8.46172 9.59967 5.52839 12.6663C4.99505 13.1997 4.19505 13.1997 3.66172 12.6663C3.12839 12.133 3.12839 11.333 3.66172 10.7997C7.12839 7.33301 11.6617 5.33301 16.5951 5.33301V5.33301Z" fill="white"/>
</svg>
