<svg width="33" height="32" viewBox="0 0 33 32" fill="none" xmlns="http://www.w3.org/2000/svg">
<path d="M15.645 18.3643L14.1543 19.8549L15.6418 22.8299L17.1054 21.2851L15.645 18.3643Z" fill="black"/>
<path d="M16.5938 24.7334L17.9874 27.5209L19.4511 25.9759L18.0573 23.1885L16.5938 24.7334Z" fill="black"/>
<path d="M28.0294 12.6636L26.584 14.1893L29.3604 15.5172L30.8059 13.9914L28.0294 12.6636Z" fill="black"/>
<path d="M22.0078 12.0017L24.6866 13.2829L26.1321 11.7572L23.5076 10.502L22.0078 12.0017Z" fill="black"/>
<path d="M19.832 21.3156L21.6147 23.6925L23.01 22.2197L21.2273 19.8428L19.832 21.3156Z" fill="black"/>
<path d="M20.0105 18.2195L18.202 15.8081L16.7734 17.2367L18.6152 19.6923L20.0105 18.2195Z" fill="black"/>
<path d="M19.3926 14.6178L21.6853 16.4519L23.0656 14.9949L20.8155 13.1948L19.3926 14.6178Z" fill="black"/>
<path d="M23.252 17.7055L25.547 19.5416L26.9273 18.0845L24.6323 16.2485L23.252 17.7055Z" fill="black"/>
<path d="M22.3886 6.29276L20.7486 7.9327L19.2038 6.38782C18.556 5.74008 17.787 5.22627 16.9407 4.87571C16.0944 4.52515 15.1873 4.34473 14.2713 4.34473C13.3553 4.34473 12.4482 4.52515 11.6019 4.87571C10.7555 5.22627 9.98657 5.74008 9.33883 6.38782C9.31745 6.40914 9.29677 6.43088 9.27577 6.45245C8.54595 5.9383 7.68893 5.6345 6.79824 5.57421C5.90754 5.51391 5.0174 5.69943 4.22495 6.11052C3.4325 6.52161 2.7682 7.14248 2.30454 7.90537C1.84088 8.66825 1.59568 9.54384 1.5957 10.4366V25.4998H3.5957V10.4366C3.59569 9.91282 3.73883 9.39902 4.00965 8.95072C4.28047 8.50242 4.66867 8.13666 5.13229 7.89299C5.5959 7.64931 6.1173 7.53699 6.64013 7.56816C7.16295 7.59932 7.66732 7.77279 8.0987 8.06982C7.40678 9.38802 7.15393 10.8927 7.377 12.3647C7.60007 13.8366 8.28741 15.1989 9.33883 16.2529L10.8836 17.7977L9.38864 19.2928L10.6386 20.5428L23.6386 7.54276L22.3886 6.29276ZM12.1586 16.2443L10.753 14.8387C9.82896 13.9037 9.31246 12.6411 9.31631 11.3265C9.32016 10.012 9.84406 8.75236 10.7736 7.82281C11.7031 6.89327 12.9627 6.36932 14.2772 6.36543C15.5918 6.36153 16.8544 6.87799 17.7895 7.80201L19.195 9.20763L12.1586 16.2443Z" fill="black"/>
</svg>
