<svg width="238" height="73" viewBox="0 0 238 73" fill="none" xmlns="http://www.w3.org/2000/svg">
<path d="M228.375 71.622H9.625C7.30649 71.615 5.08492 70.6877 3.44547 69.0425C1.80603 67.3974 0.881924 65.1681 0.875 62.8415V10.1585C0.881924 7.83195 1.80603 5.60263 3.44547 3.95747C5.08492 2.31232 7.30649 1.385 9.625 1.37805L228.375 1.37805C230.694 1.385 232.915 2.31232 234.555 3.95747C236.194 5.60263 237.118 7.83195 237.125 10.1585V62.8415C237.118 65.1681 236.194 67.3974 234.555 69.0425C232.915 70.6877 230.694 71.615 228.375 71.622Z" fill="black"/>
<path d="M228.375 71.622H9.625C7.30649 71.615 5.08492 70.6877 3.44547 69.0425C1.80603 67.3974 0.881924 65.1681 0.875 62.8415V10.1585C0.881924 7.83195 1.80603 5.60263 3.44547 3.95747C5.08492 2.31232 7.30649 1.385 9.625 1.37805L228.375 1.37805C230.694 1.385 232.915 2.31232 234.555 3.95747C236.194 5.60263 237.118 7.83195 237.125 10.1585V62.8415C237.118 65.1681 236.194 67.3974 234.555 69.0425C232.915 70.6877 230.694 71.615 228.375 71.622" stroke="#A6A6A6"/>
<path d="M51.1255 35.6079C51.1465 33.9652 51.5812 32.3546 52.3893 30.9259C53.1974 29.4973 54.3525 28.297 55.7472 27.4367C54.8611 26.1671 53.6923 25.1223 52.3335 24.3852C50.9747 23.6481 49.4634 23.239 47.9195 23.1905C44.626 22.8393 41.434 25.1679 39.7557 25.1679C38.0442 25.1679 35.4612 23.2256 32.6787 23.2818C30.879 23.3403 29.125 23.8655 27.5876 24.8063C26.0502 25.7471 24.7818 27.0714 23.906 28.6502C20.1137 35.2408 22.9435 44.9257 26.5765 50.2502C28.3947 52.858 30.5192 55.7714 33.2982 55.6678C36.0177 55.5554 37.0345 53.9275 40.3175 53.9275C43.5707 53.9275 44.5175 55.6678 47.3612 55.6028C50.2802 55.5554 52.1195 52.9827 53.873 50.3503C55.1784 48.4916 56.1825 46.4373 56.848 44.2637C55.1521 43.544 53.705 42.3392 52.6871 40.7996C51.6691 39.26 51.1254 37.4538 51.1237 35.6061" fill="white"/>
<path d="M45.769 19.6871C47.3605 17.7697 48.1445 15.3054 47.9547 12.8173C45.523 13.0738 43.2769 14.24 41.6635 16.0836C40.8749 16.9843 40.271 18.0322 39.8863 19.1673C39.5016 20.3024 39.3438 21.5024 39.4217 22.6988C40.6378 22.7115 41.841 22.4471 42.9404 21.9254C44.0399 21.4037 45.007 20.6384 45.769 19.6871Z" fill="white"/>
<path d="M85.5129 49.0666H76.2379L74.0084 55.6713H70.0762L78.8612 31.2317H82.9474L91.7412 55.6713H87.7424L85.5129 49.0666ZM77.1917 46.018H84.5504L80.9227 35.3058H80.8212L77.1917 46.018Z" fill="white"/>
<path d="M110.73 46.7644C110.73 52.3014 107.776 55.8592 103.319 55.8592C102.19 55.9183 101.068 55.6573 100.08 55.106C99.092 54.5548 98.2787 53.7356 97.7332 52.7421H97.6492V61.5665H94.0039V37.8592H97.5319V40.8235H97.5984C98.1691 39.8346 98.9963 39.0194 99.9919 38.4646C100.988 37.9099 102.114 37.6363 103.253 37.6731C107.759 37.6731 110.73 41.2485 110.73 46.7697M106.984 46.7697C106.984 43.1626 105.125 40.7989 102.292 40.7989C99.5059 40.7989 97.6334 43.2206 97.6334 46.7697C97.6334 50.3591 99.5059 52.7632 102.292 52.7632C105.125 52.7632 106.984 50.41 106.984 46.7697Z" fill="white"/>
<path d="M130.271 46.7644C130.271 52.3014 127.317 55.8592 122.86 55.8592C121.731 55.9183 120.609 55.6573 119.621 55.106C118.633 54.5548 117.82 53.7356 117.274 52.7421H117.19V61.5665H113.545V37.8592H117.073V40.8235H117.139C117.71 39.8346 118.537 39.0194 119.533 38.4646C120.529 37.9099 121.655 37.6363 122.794 37.6731C127.3 37.6731 130.271 41.2485 130.271 46.7697M126.525 46.7697C126.525 43.1626 124.666 40.7989 121.833 40.7989C119.047 40.7989 117.174 43.2206 117.174 46.7697C117.174 50.3591 119.047 52.7632 121.833 52.7632C124.666 52.7579 126.525 50.4048 126.525 46.7644V46.7697Z" fill="white"/>
<path d="M143.19 48.8629C143.46 51.2863 145.806 52.8774 149.012 52.8774C152.084 52.8774 154.294 51.2863 154.294 49.1018C154.294 47.2034 152.962 46.069 149.805 45.2893L146.655 44.5271C142.182 43.4436 140.107 41.3451 140.107 37.9382C140.107 33.7236 143.768 30.826 148.969 30.826C154.114 30.826 157.642 33.7219 157.761 37.9382H154.086C153.865 35.5008 151.856 34.0274 148.92 34.0274C145.983 34.0274 143.974 35.5166 143.974 37.6854C143.974 39.4134 145.257 40.4301 148.396 41.2081L151.079 41.8684C156.077 43.0555 158.153 45.0698 158.153 48.6434C158.153 53.2093 154.523 56.0787 148.752 56.0787C143.349 56.0787 139.704 53.283 139.477 48.8629H143.19Z" fill="white"/>
<path d="M166.008 33.6376V37.8522H169.383V40.7498H166.008V50.5734C166.008 52.0994 166.683 52.8106 168.167 52.8106C168.569 52.8037 168.969 52.7755 169.368 52.7264V55.6046C168.7 55.7315 168.022 55.7903 167.343 55.7802C163.748 55.7802 162.347 54.4263 162.347 50.9703V40.7498H159.764V37.854H162.347V33.6393L166.008 33.6376Z" fill="white"/>
<path d="M171.34 46.7644C171.34 41.1589 174.63 37.6327 179.761 37.6327C184.892 37.6327 188.184 41.1554 188.184 46.7644C188.184 52.3734 184.925 55.8961 179.761 55.8961C174.597 55.8961 171.34 52.3839 171.34 46.7644ZM184.465 46.7644C184.465 42.9185 182.715 40.6497 179.756 40.6497C176.796 40.6497 175.048 42.9326 175.048 46.7644C175.048 50.6278 176.798 52.8774 179.756 52.8774C182.713 52.8774 184.47 50.6261 184.47 46.7644H184.465Z" fill="white"/>
<path d="M191.188 37.854H194.663V40.8903H194.749C194.984 39.9431 195.536 39.1061 196.314 38.5198C197.092 37.9336 198.047 37.634 199.019 37.6713C199.439 37.6695 199.858 37.7155 200.268 37.8083V41.2292C199.738 41.0655 199.185 40.9907 198.63 41.0079C197.657 40.9689 196.708 41.3191 195.992 41.9816C195.276 42.6441 194.852 43.5647 194.812 44.5412C194.803 44.7299 194.81 44.9191 194.833 45.1066V55.6748H191.188V37.854Z" fill="white"/>
<path d="M217.073 50.4381C216.583 53.6728 213.443 55.8925 209.427 55.8925C204.263 55.8925 201.057 52.4207 201.057 46.8486C201.057 41.2765 204.28 37.6344 209.282 37.6344C214.194 37.6344 217.283 41.0219 217.283 46.4149V47.6687H204.742V47.8883C204.689 48.4955 204.755 49.1073 204.937 49.6889C205.119 50.2705 205.413 50.8104 205.803 51.2778C206.193 51.7451 206.671 52.1308 207.21 52.4128C207.748 52.6948 208.337 52.8676 208.942 52.9212C209.135 52.9382 209.328 52.9429 209.521 52.9353C210.382 53.0149 211.246 52.8142 211.985 52.3629C212.723 51.9116 213.297 51.2336 213.622 50.4293L217.073 50.4381ZM204.753 45.1206H213.63C213.693 43.9862 213.304 42.8733 212.549 42.0264C211.795 41.1795 210.736 40.6679 209.605 40.604C209.495 40.604 209.387 40.604 209.276 40.604C208.084 40.597 206.938 41.0653 206.09 41.9061C205.242 42.7468 204.762 43.8911 204.754 45.0873V45.1259" fill="white"/>
<path d="M72.0312 18.7124C72.0312 14.9034 74.049 12.552 77.3005 12.552C78.4725 12.4937 79.6235 12.8798 80.5251 13.6335C81.4266 14.3873 82.0128 15.4536 82.1672 16.6209H80.3647C80.213 15.9292 79.8239 15.313 79.2654 14.88C78.7069 14.447 78.0145 14.2247 77.3092 14.2519C75.2092 14.2519 73.8932 15.9694 73.8932 18.7124C73.8932 21.4554 75.2075 23.1641 77.3162 23.1641C77.996 23.2152 78.6722 23.027 79.2286 22.6318C79.785 22.2366 80.1868 21.6592 80.3647 20.9989H82.176C81.9988 22.1382 81.4001 23.1687 80.4994 23.8847C79.5987 24.6008 78.462 24.9498 77.3162 24.8623C74.0647 24.8623 72.04 22.5108 72.04 18.7159" fill="white"/>
<path d="M84.1549 20.1454C84.0493 19.0372 84.3868 17.9322 85.093 17.0737C85.7993 16.2151 86.8165 15.6732 87.9209 15.5673C89.0253 15.4613 90.1264 15.8 90.982 16.5087C91.8376 17.2174 92.3776 18.2382 92.4831 19.3464C92.5094 19.6121 92.5094 19.8797 92.4831 20.1454C92.5404 20.7287 92.4753 21.3175 92.292 21.874C92.1088 22.4305 91.8115 22.9424 91.4193 23.3766C91.027 23.8109 90.5485 24.1579 90.0146 24.3954C89.4807 24.6329 88.9031 24.7556 88.319 24.7556C87.735 24.7556 87.1574 24.6329 86.6234 24.3954C86.0895 24.1579 85.611 23.8109 85.2188 23.3766C84.8266 22.9424 84.5292 22.4305 84.346 21.874C84.1628 21.3175 84.0977 20.7287 84.1549 20.1454ZM90.6911 20.1454C90.6911 18.2243 89.8319 17.1004 88.3216 17.1004C86.8114 17.1004 85.9557 18.2243 85.9557 20.1454C85.9557 22.0666 86.8079 23.1958 88.3216 23.1958C89.8354 23.1958 90.6911 22.0736 90.6911 20.1454Z" fill="white"/>
<path d="M94.8246 15.7184H96.5028V17.1233H96.6323C96.8526 16.617 97.2251 16.1926 97.6976 15.9092C98.1702 15.6258 98.7192 15.4977 99.2678 15.5428C99.6439 15.5143 100.022 15.5604 100.38 15.6785C100.739 15.7966 101.07 15.9843 101.356 16.2311C101.642 16.4778 101.877 16.7786 102.047 17.1164C102.217 17.4542 102.319 17.8223 102.348 18.1998C102.363 18.4124 102.355 18.6262 102.325 18.8372V24.5744H100.575V19.2903C100.575 17.8661 99.9573 17.1566 98.6693 17.1566C98.3776 17.1434 98.0866 17.1935 97.816 17.3035C97.5454 17.4136 97.3017 17.5809 97.1014 17.7942C96.9012 18.0074 96.7493 18.2615 96.6559 18.5391C96.5626 18.8167 96.53 19.1113 96.5605 19.4027V24.5867H94.8105L94.8246 15.7184Z" fill="white"/>
<path d="M108.249 15.548C110.235 15.548 111.534 16.4752 111.703 18.0381H110.032C109.871 17.3866 109.238 16.9722 108.249 16.9722C107.26 16.9722 106.537 17.4358 106.537 18.1277C106.537 18.6545 106.984 18.9899 107.937 19.2094L109.404 19.5519C111.084 19.9417 111.871 20.667 111.871 21.9683C111.871 23.6366 110.321 24.7517 108.212 24.7517C106.103 24.7517 104.742 23.7999 104.588 22.2299H106.338C106.488 22.6044 106.76 22.9172 107.109 23.1179C107.458 23.3186 107.865 23.3955 108.263 23.3363C109.35 23.3363 110.121 22.8481 110.121 22.1386C110.121 21.6118 109.708 21.2606 108.823 21.0569L107.283 20.7056C105.603 20.307 104.833 19.5501 104.833 18.2313C104.833 16.6613 106.268 15.555 108.263 15.555" fill="white"/>
<path d="M114.074 14.2361L116.109 11.4369H118.153L115.878 14.2361H114.074ZM114.249 15.7183H115.985V24.5795H114.249V15.7183Z" fill="white"/>
<path d="M118.702 25.4664H120.485C120.632 26.1091 121.36 26.5201 122.545 26.5201C123.997 26.5201 124.856 25.8281 124.856 24.6568V22.9604H124.727C124.453 23.4362 124.054 23.827 123.573 24.0897C123.093 24.3524 122.549 24.477 122.002 24.4496C119.748 24.4496 118.354 22.6935 118.354 20.0471C118.354 17.3444 119.754 15.5708 122.018 15.5708C122.579 15.5508 123.134 15.686 123.623 15.9617C124.113 16.2374 124.517 16.6429 124.792 17.1337H124.93V15.7183H126.599V24.6533C126.599 26.6799 125.025 27.9653 122.52 27.9653C120.314 27.9653 118.887 26.9731 118.702 25.4664ZM124.89 20.0383C124.89 18.2734 123.98 17.1425 122.496 17.1425C121.012 17.1425 120.154 18.2734 120.154 20.0383C120.154 21.8032 120.996 22.9359 122.496 22.9359C123.995 22.9359 124.89 21.8137 124.89 20.0383Z" fill="white"/>
<path d="M136.824 24.5796H135.14V23.1747H135.002C134.78 23.6863 134.402 24.1144 133.923 24.3982C133.445 24.682 132.889 24.8069 132.335 24.7552C131.959 24.7822 131.582 24.7348 131.225 24.6155C130.868 24.4962 130.537 24.3075 130.253 24.0602C129.968 23.8128 129.735 23.5116 129.567 23.1737C129.398 22.8359 129.298 22.4681 129.271 22.0912C129.257 21.8867 129.264 21.6814 129.292 21.4783V15.7201H131.042V21.0165C131.042 22.4495 131.616 23.1238 132.897 23.1238C133.159 23.149 133.423 23.1221 133.675 23.0446C133.927 22.9671 134.161 22.8406 134.364 22.6723C134.567 22.504 134.735 22.2972 134.858 22.0637C134.981 21.8302 135.058 21.5746 135.082 21.3115C135.097 21.1726 135.097 21.0325 135.082 20.8936V15.7201H136.832L136.824 24.5796Z" fill="white"/>
<path d="M147.066 22.1878C146.83 22.9977 146.317 23.6982 145.618 24.167C144.918 24.6357 144.077 24.8427 143.241 24.7517C142.714 24.766 142.19 24.6759 141.698 24.4867C141.206 24.2975 140.756 24.0128 140.374 23.6489C139.991 23.285 139.684 22.8491 139.47 22.3661C139.256 21.8831 139.139 21.3624 139.125 20.8339C139.118 20.6149 139.13 20.3957 139.162 20.1788C139.09 19.6465 139.124 19.1053 139.262 18.5861C139.399 18.067 139.637 17.5801 139.962 17.1534C140.287 16.7267 140.693 16.3685 141.156 16.0993C141.62 15.8302 142.131 15.6554 142.662 15.5849C142.853 15.5586 143.045 15.5462 143.237 15.548C145.687 15.548 147.177 17.2321 147.177 20.0155V20.6267H140.941V20.7232C140.916 21.0298 140.95 21.3384 141.043 21.6315C141.136 21.9246 141.286 22.1964 141.484 22.4315C141.681 22.6665 141.924 22.8601 142.196 23.0012C142.468 23.1423 142.766 23.2281 143.071 23.2538C143.145 23.2538 143.22 23.2626 143.293 23.2626C143.71 23.3129 144.133 23.2376 144.507 23.0462C144.881 22.8548 145.189 22.556 145.393 22.1878H147.066ZM140.941 19.3324H145.402C145.442 18.7681 145.258 18.2109 144.889 17.783C144.52 17.3551 143.997 17.0913 143.435 17.0495C143.366 17.046 143.298 17.046 143.229 17.0495C142.932 17.0455 142.638 17.1003 142.362 17.2106C142.087 17.3209 141.835 17.4847 141.623 17.6924C141.411 17.9002 141.241 18.148 141.124 18.4215C141.007 18.6951 140.945 18.9891 140.941 19.2867V19.3447" fill="white"/>
<path d="M151.335 12.2571H149.592V24.5779H151.335V12.2571Z" fill="white"/>
<path d="M153.76 20.1454C153.708 19.5967 153.764 19.043 153.925 18.5159C154.086 17.9889 154.349 17.4988 154.698 17.0737C155.048 16.6485 155.478 16.2967 155.963 16.0382C156.448 15.7798 156.979 15.6197 157.526 15.5673C158.073 15.5148 158.625 15.5709 159.15 15.7325C159.675 15.894 160.164 16.1577 160.587 16.5087C161.011 16.8596 161.362 17.2908 161.619 17.7777C161.877 18.2646 162.036 18.7976 162.089 19.3464C162.115 19.6121 162.115 19.8797 162.089 20.1454C162.146 20.7287 162.081 21.3175 161.897 21.874C161.714 22.4305 161.417 22.9423 161.025 23.3766C160.632 23.8108 160.154 24.1579 159.62 24.3954C159.086 24.6329 158.509 24.7556 157.924 24.7556C157.34 24.7556 156.763 24.6329 156.229 24.3954C155.695 24.1579 155.216 23.8108 154.824 23.3766C154.432 22.9423 154.135 22.4305 153.951 21.874C153.768 21.3175 153.703 20.7287 153.76 20.1454ZM160.297 20.1454C160.297 18.2242 159.437 17.1003 157.927 17.1003C156.417 17.1003 155.561 18.2242 155.561 20.1454C155.561 22.0666 156.413 23.1958 157.927 23.1958C159.441 23.1958 160.297 22.0736 160.297 20.1454Z" fill="white"/>
<path d="M176.686 22.1877C176.449 22.9975 175.936 23.6981 175.237 24.1668C174.538 24.6355 173.696 24.8425 172.86 24.7516C172.333 24.7659 171.809 24.6758 171.317 24.4866C170.825 24.2973 170.375 24.0126 169.993 23.6488C169.611 23.2849 169.304 22.849 169.089 22.366C168.875 21.883 168.758 21.3623 168.744 20.8338C168.737 20.6147 168.749 20.3955 168.781 20.1787C168.71 19.6464 168.743 19.1051 168.881 18.586C169.018 18.0668 169.256 17.58 169.581 17.1533C169.906 16.7265 170.312 16.3684 170.775 16.0992C171.239 15.8301 171.75 15.6553 172.281 15.5848C172.472 15.5585 172.664 15.5461 172.857 15.5479C175.307 15.5479 176.796 17.232 176.796 20.0154V20.6265H170.561V20.7231C170.535 21.0296 170.569 21.3383 170.662 21.6314C170.755 21.9245 170.905 22.1963 171.103 22.4313C171.301 22.6664 171.543 22.8599 171.815 23.001C172.087 23.1421 172.385 23.228 172.69 23.2537C172.764 23.2537 172.839 23.2624 172.913 23.2624C173.329 23.3123 173.752 23.2368 174.125 23.0454C174.499 22.8541 174.808 22.5555 175.013 22.1877H176.686ZM170.561 19.3323H175.021C175.061 18.768 174.877 18.2108 174.508 17.7829C174.139 17.3549 173.617 17.0912 173.054 17.0494C172.986 17.0459 172.917 17.0459 172.848 17.0494C172.551 17.0454 172.257 17.1002 171.981 17.2105C171.706 17.3208 171.455 17.4845 171.242 17.6923C171.03 17.9001 170.86 18.1478 170.743 18.4214C170.626 18.695 170.564 18.989 170.561 19.2866V19.3323Z" fill="white"/>
<path d="M179.132 15.7183H180.81V17.1231H180.94C181.16 16.6169 181.533 16.1924 182.005 15.9091C182.478 15.6257 183.027 15.4976 183.575 15.5427C183.952 15.5141 184.33 15.5602 184.688 15.6783C185.046 15.7964 185.378 15.9842 185.664 16.2309C185.95 16.4777 186.185 16.7785 186.355 17.1163C186.525 17.4541 186.627 17.8222 186.655 18.1996C186.671 18.4123 186.663 18.626 186.633 18.8371V24.5743H184.883V19.2902C184.883 17.866 184.265 17.1565 182.977 17.1565C182.686 17.1446 182.396 17.1956 182.126 17.3063C181.857 17.4169 181.614 17.5844 181.415 17.7975C181.216 18.0106 181.065 18.2643 180.972 18.5412C180.879 18.8182 180.847 19.1119 180.877 19.4026V24.5866H179.127L179.132 15.7183Z" fill="white"/>
<path d="M201.586 22.1878C201.349 22.9977 200.837 23.6982 200.137 24.1669C199.438 24.6357 198.597 24.8427 197.76 24.7517C197.234 24.766 196.709 24.6759 196.217 24.4867C195.726 24.2974 195.276 24.0128 194.893 23.6489C194.511 23.285 194.204 22.8491 193.99 22.3661C193.775 21.8831 193.658 21.3624 193.645 20.8339C193.637 20.6149 193.65 20.3957 193.681 20.1788C193.609 19.6464 193.643 19.105 193.78 18.5857C193.917 18.0664 194.155 17.5793 194.481 17.1525C194.806 16.7257 195.212 16.3675 195.675 16.0985C196.139 15.8295 196.65 15.6549 197.181 15.5849C197.372 15.5586 197.564 15.5463 197.757 15.548C200.207 15.548 201.698 17.2321 201.698 20.0155V20.6266H195.463V20.7232C195.437 21.0297 195.471 21.3382 195.564 21.6313C195.657 21.9244 195.806 22.1963 196.004 22.4313C196.201 22.6664 196.443 22.86 196.716 23.0011C196.988 23.1423 197.285 23.2281 197.591 23.2538C197.664 23.2538 197.74 23.2625 197.815 23.2625C198.232 23.3129 198.654 23.2376 199.028 23.0462C199.402 22.8548 199.711 22.556 199.915 22.1878H201.586ZM195.461 19.3324H199.92C199.96 18.7683 199.776 18.2111 199.408 17.7831C199.039 17.3551 198.517 17.0913 197.955 17.0495C197.883 17.0495 197.815 17.0495 197.747 17.0495C197.45 17.0455 197.156 17.1003 196.88 17.2106C196.605 17.321 196.354 17.4847 196.141 17.6925C195.929 17.9003 195.76 18.1481 195.643 18.4217C195.526 18.6952 195.464 18.9892 195.461 19.2867V19.3324Z" fill="white"/>
<path d="M205.854 12.2571H204.111V24.5779H205.854V12.2571Z" fill="white"/>
</svg>
