<svg id="Capa_1" data-name="Capa 1" xmlns="http://www.w3.org/2000/svg" viewBox="0 0 129 41"><defs><style>.cls-1{fill:#f6163c;}.cls-2{fill:#fff;}</style></defs><title>Mesa de trabajo 1</title><path d="M111.39,22.87a9,9,0,0,1-1.28,4.8,8.37,8.37,0,0,1-3.64,3.2A12.5,12.5,0,0,1,101,32H99.91a12.5,12.5,0,0,1-5.44-1.12,8.37,8.37,0,0,1-3.6-3.2,9,9,0,0,1-1.28-4.8V4.15h6.16v18.6a4.11,4.11,0,0,0,1.32,3.12,4.9,4.9,0,0,0,3.44,1.24,4.77,4.77,0,0,0,3.4-1.2,4.15,4.15,0,0,0,1.32-3.16V4.15h6.16Z"/><path class="cls-1" d="M111.38,31.59h-6.16V4.15h13.24a8.1,8.1,0,0,1,4.12,1.08,7.76,7.76,0,0,1,3,2.92,8,8,0,0,1,1.12,4.2v.24a8.38,8.38,0,0,1-1.12,4.24,8,8,0,0,1-3,3A7.94,7.94,0,0,1,118.46,21h-7.08Zm0-15.44H117a3.38,3.38,0,0,0,2.52-1,3.34,3.34,0,0,0,1-2.4v-.24A3.48,3.48,0,0,0,117,9.07h-5.64Z"/><ellipse class="cls-1" cx="95.76" cy="13.42" rx="1.65" ry="1.6" transform="translate(0.77 31.52) rotate(-18.77)"/><ellipse cx="105.58" cy="13.4" rx="1.65" ry="1.6" transform="translate(1.3 34.68) rotate(-18.77)"/><path class="cls-1" d="M110.74,31.71h-6.16V4.27h13.24a8.15,8.15,0,0,1,4.12,1.08,7.83,7.83,0,0,1,3,2.92,8.1,8.1,0,0,1,1.12,4.2v.24A8.48,8.48,0,0,1,125,17a8.2,8.2,0,0,1-7.16,4.16h-7.08Zm0-15.44h5.64a3.41,3.41,0,0,0,2.52-1,3.38,3.38,0,0,0,1-2.4v-.24a3.31,3.31,0,0,0-1-2.4,3.28,3.28,0,0,0-2.52-1h-5.64Z"/><ellipse cx="104.41" cy="13.6" rx="1.65" ry="1.6" transform="translate(1.17 34.31) rotate(-18.77)"/><path class="cls-2" d="M114.59,5.89a6.91,6.91,0,0,0-7,6.87,6.75,6.75,0,0,0,1,3.54,3.56,3.56,0,0,1-2,2.75,9.39,9.39,0,0,0,4.17-.51,7,7,0,0,0,10.71-5.78A6.91,6.91,0,0,0,114.59,5.89Z"/><path d="M17.11,11.44a2.7,2.7,0,0,0-1.2-2.35,5.5,5.5,0,0,0-3.32-.89,6.77,6.77,0,0,0-3.44.73A2,2,0,0,0,8,10.77a2.14,2.14,0,0,0,.76,1.67,5.85,5.85,0,0,0,1.92,1c.8.27,1.88.57,3.24.88a38.32,38.32,0,0,1,4.92,1.49,8.14,8.14,0,0,1,3.32,2.35,6.31,6.31,0,0,1,1.4,4.29c0,3.11-1,5.41-3,6.87s-4.76,2.16-8.28,2.16a14.17,14.17,0,0,1-8-2.08,7.2,7.2,0,0,1-3.12-6.39l0-.88H7l0,.64A3.36,3.36,0,0,0,8.27,25.6a6,6,0,0,0,3.72,1,7,7,0,0,0,4-.87,2.65,2.65,0,0,0,1.24-2.24,2.06,2.06,0,0,0-.76-1.68,4.69,4.69,0,0,0-1.88-1,30.92,30.92,0,0,0-3.16-.87,40.23,40.23,0,0,1-5-1.53,8.11,8.11,0,0,1-3.32-2.43,6.87,6.87,0,0,1-1.4-4.53A7,7,0,0,1,3.19,6.93,8.45,8.45,0,0,1,7,4.2a15.41,15.41,0,0,1,5.44-.91,12.84,12.84,0,0,1,7.52,2,6.8,6.8,0,0,1,2.92,6v.49h-5.8ZM38.82,30.76a9.22,9.22,0,0,1-2.12.52,12.46,12.46,0,0,1-2.28.24,7,7,0,0,1-4.64-1.32c-1-.87-1.56-2.34-1.56-4.39V14.69H26v-4h2.44l2-6.53h3.6v6.53h4.76v4H34.06V24.81a3,3,0,0,0,.6,2.16,2.48,2.48,0,0,0,1.68.55A8.25,8.25,0,0,0,38.82,27ZM55.11,17.33a2.92,2.92,0,0,0-.88-2.2,3.75,3.75,0,0,0-2.76-.85,4.19,4.19,0,0,0-1.92.41,3.16,3.16,0,0,0-1.24.91,1.85,1.85,0,0,0-.4,1V17H42.27a4.05,4.05,0,0,1-.08-.72,4.72,4.72,0,0,1,1.12-3.09,7.54,7.54,0,0,1,3.2-2.11,13.27,13.27,0,0,1,4.68-.77H52c2.88,0,5.06.58,6.56,1.73a5.48,5.48,0,0,1,2.24,4.64v9.43a1.58,1.58,0,0,0,.32,1.09,1.14,1.14,0,0,0,.84.35,2.74,2.74,0,0,0,.88-.16,6.07,6.07,0,0,0,.76-.28v3.6a6.92,6.92,0,0,1-3.52.84,5.52,5.52,0,0,1-3.36-.87,3.67,3.67,0,0,1-1.36-2.57,8.54,8.54,0,0,1-6.88,3.44,9.15,9.15,0,0,1-5-1.24q-2-1.23-2-4.71a5.56,5.56,0,0,1,1.6-4.32,8.75,8.75,0,0,1,4.52-2.05,44,44,0,0,1,7.44-.52Zm0,4.64a15.91,15.91,0,0,0-5.68.76,2.47,2.47,0,0,0-1.84,2.4A2.23,2.23,0,0,0,48.31,27a4,4,0,0,0,2.28.52A4.41,4.41,0,0,0,52.67,27a4.81,4.81,0,0,0,1.72-1.61,4,4,0,0,0,.72-2.31Zm22.66,8a18.25,18.25,0,0,1-3.64,6.28,6.84,6.84,0,0,1-5.2,2.32A8.58,8.58,0,0,1,65.49,38V33.88a6,6,0,0,0,1.24.36,5.42,5.42,0,0,0,1.44.2c1.71,0,2.92-1.23,3.64-3.71l-7.72-20h6.2l4.52,12.83h.24l4.24-12.83h5.76Z"/></svg>