<svg width="22" height="32" viewBox="0 0 22 32" fill="none" xmlns="http://www.w3.org/2000/svg">
<g clip-path="url(#clip0_221_4639)">
<path d="M19.25 13.12C19.25 7.312 15.6062 3.2 11 3.2C6.39375 3.2 2.75 7.312 2.75 13.12C2.75 16.864 5.43125 21.824 11 27.744C16.5688 21.824 19.25 16.864 19.25 13.12ZM11 0C16.775 0 22 5.152 22 13.12C22 18.432 18.3288 24.72 11 32C3.67125 24.72 0 18.432 0 13.12C0 5.152 5.225 0 11 0Z" fill="black"/>
<path d="M9.08594 7.83181C9.08594 6.82013 9.90607 6 10.9177 6C11.9294 6 12.7496 6.82013 12.7496 7.83181C12.7496 8.84349 11.9294 9.66362 10.9177 9.66362C9.90607 9.66362 9.08594 8.84349 9.08594 7.83181ZM10.9177 6.91682C10.4124 6.91682 10.0028 7.32647 10.0028 7.83181C10.0028 8.33715 10.4124 8.7468 10.9177 8.7468C11.4231 8.7468 11.8327 8.33715 11.8327 7.83181C11.8327 7.32647 11.4231 6.91682 10.9177 6.91682Z" fill="black"/>
<path d="M13.668 8.29027C13.668 7.53075 14.2837 6.91504 15.0432 6.91504C15.8027 6.91504 16.4184 7.53075 16.4184 8.29027C16.4184 9.04979 15.8027 9.6655 15.0432 9.6655C14.2837 9.6655 13.668 9.04979 13.668 8.29027ZM15.0432 7.83186C14.7901 7.83186 14.5848 8.0371 14.5848 8.29027C14.5848 8.54344 14.7901 8.74868 15.0432 8.74868C15.2963 8.74868 15.5016 8.54344 15.5016 8.29027C15.5016 8.0371 15.2963 7.83186 15.0432 7.83186Z" fill="black"/>
<path d="M6.7932 6.91504C6.03368 6.91504 5.41797 7.53075 5.41797 8.29027C5.41797 9.04979 6.03368 9.6655 6.7932 9.6655C7.55272 9.6655 8.16843 9.04979 8.16843 8.29027C8.16843 7.53075 7.55272 6.91504 6.7932 6.91504ZM6.33479 8.29027C6.33479 8.0371 6.54003 7.83186 6.7932 7.83186C7.04637 7.83186 7.25161 8.0371 7.25161 8.29027C7.25161 8.54344 7.04637 8.74868 6.7932 8.74868C6.54003 8.74868 6.33479 8.54344 6.33479 8.29027Z" fill="black"/>
<path d="M7.49576 10.582C7.33975 10.8517 7.25046 11.1649 7.25046 11.4989H5.41682V13.7912C5.41682 14.5508 6.03253 15.1664 6.79205 15.1664C6.98636 15.1664 7.17125 15.1262 7.33883 15.0535C7.40677 15.3573 7.51241 15.6468 7.65058 15.917C7.38542 16.0242 7.09563 16.0832 6.79205 16.0832C5.52619 16.0832 4.5 15.057 4.5 13.7912V11.4989C4.5 10.9925 4.91048 10.582 5.41682 10.582H7.49576Z" fill="black"/>
<path d="M14.1836 15.917C14.4487 16.0242 14.7385 16.0832 15.0421 16.0832C16.308 16.0832 17.3342 15.057 17.3342 13.7912V11.4989C17.3342 10.9925 16.9237 10.582 16.4173 10.582H14.3384C14.4944 10.8517 14.5837 11.1649 14.5837 11.4989L16.4173 11.4989V13.7912C16.4173 14.5508 15.8016 15.1664 15.0421 15.1664C14.8478 15.1664 14.6629 15.1262 14.4953 15.0535C14.4274 15.3573 14.3218 15.6468 14.1836 15.917Z" fill="black"/>
<path d="M9.08479 10.582C8.57845 10.582 8.16797 10.9925 8.16797 11.4989V14.2496C8.16797 15.7687 9.39939 17 10.9184 17C12.4375 17 13.6689 15.7687 13.6689 14.2496V11.4989C13.6689 10.9925 13.2584 10.582 12.7521 10.582H9.08479ZM9.08479 11.4989H12.7521V14.2496C12.7521 15.2623 11.9311 16.0832 10.9184 16.0832C9.90574 16.0832 9.08479 15.2623 9.08479 14.2496V11.4989Z" fill="black"/>
</g>
<defs>
<clipPath id="clip0_221_4639">
<rect width="22" height="32" fill="white"/>
</clipPath>
</defs>
</svg>
