<svg width="22" height="32" viewBox="0 0 22 32" fill="none" xmlns="http://www.w3.org/2000/svg">
<g clip-path="url(#clip0_221_4748)">
<path d="M19.25 13.12C19.25 7.312 15.6062 3.2 11 3.2C6.39375 3.2 2.75 7.312 2.75 13.12C2.75 16.864 5.43125 21.824 11 27.744C16.5688 21.824 19.25 16.864 19.25 13.12ZM11 0C16.775 0 22 5.152 22 13.12C22 18.432 18.3288 24.72 11 32C3.67125 24.72 0 18.432 0 13.12C0 5.152 5.225 0 11 0Z" fill="black"/>
<ellipse cx="11" cy="14.5" rx="9" ry="13.5" fill="black"/>
<path d="M10.9203 6C9.90831 6 9.08789 6.82042 9.08789 7.83245C9.08789 8.84448 9.90831 9.6649 10.9203 9.6649C11.9324 9.6649 12.7528 8.84448 12.7528 7.83245C12.7528 6.82042 11.9324 6 10.9203 6Z" fill="black"/>
<path d="M15.0476 6.91504C14.2878 6.91504 13.6719 7.53096 13.6719 8.29075C13.6719 9.05053 14.2878 9.66646 15.0476 9.66646C15.8073 9.66646 16.4233 9.05053 16.4233 8.29075C16.4233 7.53096 15.8073 6.91504 15.0476 6.91504Z" fill="black"/>
<path d="M6.79368 6.91504C6.03389 6.91504 5.41797 7.53096 5.41797 8.29075C5.41797 9.05053 6.03389 9.66646 6.79368 9.66646C7.55346 9.66646 8.16939 9.05053 8.16939 8.29075C8.16939 7.53096 7.55346 6.91504 6.79368 6.91504Z" fill="black"/>
<path d="M8.16799 11.4947C8.17118 10.9909 8.58056 10.5835 9.08511 10.5835H12.7537C13.2602 10.5835 13.6708 10.9941 13.6708 11.5006V14.2523C13.6708 14.3473 13.666 14.4412 13.6566 14.5336C13.6367 14.73 13.5961 14.9202 13.5371 15.1022C13.179 16.2058 12.1424 17.0038 10.9194 17.0038C9.68473 17.0038 8.64002 16.1905 8.29166 15.0705C8.21128 14.8121 8.16797 14.5373 8.16797 14.2523V11.5006C8.16797 11.4987 8.16798 11.4967 8.16799 11.4947Z" fill="black"/>
<path d="M7.25142 11.5006C7.25142 11.1665 7.34074 10.8533 7.49681 10.5835H5.41714C4.91062 10.5835 4.5 10.9941 4.5 11.5006V13.7938C4.5 15.0601 5.52654 16.0866 6.79285 16.0866C7.09653 16.0866 7.38643 16.0276 7.65168 15.9203C7.39577 15.4199 7.25142 14.853 7.25142 14.2523V11.5006Z" fill="black"/>
<path d="M14.5877 11.5006V14.2523C14.5877 14.853 14.4434 15.4199 14.1875 15.9203C14.4527 16.0276 14.7426 16.0866 15.0463 16.0866C16.3126 16.0866 17.3392 15.0601 17.3392 13.7938V11.5006C17.3392 10.9941 16.9286 10.5835 16.422 10.5835H14.3423C14.4984 10.8533 14.5877 11.1665 14.5877 11.5006Z" fill="black"/>
</g>
<defs>
<clipPath id="clip0_221_4748">
<rect width="22" height="32" fill="white"/>
</clipPath>
</defs>
</svg>
