<svg width="322" height="32" viewBox="0 0 322 32" fill="none" xmlns="http://www.w3.org/2000/svg">
<path d="M16.1691 5.6077C17.7176 5.6077 18.9729 4.35237 18.9729 2.80385C18.9729 1.25533 17.7176 0 16.1691 0C14.6206 0 13.3652 1.25533 13.3652 2.80385C13.3652 4.35237 14.6206 5.6077 16.1691 5.6077Z" fill="black"/>
<path d="M12.6137 27.234C12.6325 27.143 12.642 27.0487 12.642 26.953V22.4412H9.83816V26.953C9.83816 27.0989 9.86693 27.2376 9.90823 27.3704C9.26585 27.8292 8.84375 28.5768 8.84375 29.4263C8.84375 30.823 9.97629 31.956 11.3735 31.956C12.7707 31.956 13.9027 30.823 13.9027 29.4263C13.9027 28.482 13.3796 27.6686 12.6137 27.234Z" fill="black"/>
<path d="M17.0625 30.5978C17.0625 31.3715 17.6902 31.9997 18.4644 31.9997C19.2386 31.9997 19.8663 31.372 19.8663 30.5978V22.4409H17.0625V30.5978Z" fill="black"/>
<path d="M12.7421 10.8753L10.6957 9.93945L10.3594 10.5447L12.4058 11.48L12.7421 10.8753Z" fill="black"/>
<path d="M22.5776 10.9783L22.2653 10.3359L20.2246 11.2686L20.5369 11.911L22.5776 10.9783Z" fill="black"/>
<path d="M22.0408 20.6428C22.6607 20.6428 23.1629 20.1411 23.1629 19.5207V12.441C23.1629 12.2715 23.1242 12.1041 23.0499 11.9509L22.8004 11.4377L20.7598 12.3704L20.9193 12.6989V19.5208C20.9187 20.1412 21.4215 20.6428 22.0408 20.6428Z" fill="black"/>
<path d="M18.4354 18.782L18.0781 19.312V19.3182H18.6049V18.7915C18.6049 18.6806 18.6112 18.5707 18.617 18.4546H18.6049C18.5457 18.577 18.495 18.6753 18.4354 18.782Z" fill="black"/>
<path d="M19.868 16.7055H12.8276L11.853 17.8693V12.4762L12.1574 11.929L10.111 10.9927L9.75111 11.6392C9.65801 11.8061 9.60938 11.9939 9.60938 12.1848V18.1676C9.60938 18.766 10.0791 19.2494 10.6692 19.2828L10.166 19.8834C9.95467 20.1361 9.83902 20.4551 9.83902 20.7848V21.4224H12.6429V21.2943L14.7285 18.8038H17.0636V21.4224H19.8675V16.7056H19.868V16.7055ZM19.2032 19.5956H18.9525V20.0864H18.6073V19.5956H17.729V19.3572L18.521 18.1508H18.9525V19.3179H19.2032V19.5956Z" fill="black"/>
<path d="M19.8645 10.5331L19.999 10.8098L22.0396 9.87657L20.6984 7.11402C20.532 6.77135 20.214 6.55374 19.8645 6.49728V6.46484H13.275V6.48787C12.8816 6.48891 12.4998 6.69137 12.2947 7.05909L10.9414 9.4926L12.9878 10.4279L13.275 9.91163V15.6857H19.8646V10.5331H19.8645ZM16.933 10.0774H15.7785C14.9338 10.0774 14.249 9.8776 14.249 9.63122C14.249 9.38428 14.9338 9.18445 15.7785 9.18445H16.933C17.7778 9.18445 18.4626 9.38428 18.4626 9.63122C18.4626 9.8776 17.7779 10.0774 16.933 10.0774Z" fill="black"/>
<g clip-path="url(#clip0_1117_29828)">
<path d="M50.5379 1.33154C50.1488 1.33154 49.834 1.68788 49.834 2.12778C49.834 3.45909 49.834 6.12637 49.834 7.45707C49.834 7.89697 50.1488 8.25331 50.5379 8.25331C50.9258 8.25331 51.2412 7.89697 51.2412 7.45707C51.2412 6.93543 51.2412 6.20639 51.2412 5.4341C51.2949 5.4341 51.7792 5.4341 52.5754 5.4341C52.635 5.67357 52.7571 5.90028 52.9487 6.08367L61.0447 13.8502V18.4902H56.591C55.6306 18.4902 54.8508 19.2694 54.8508 20.2298V28.9263C54.8508 29.8872 55.63 30.6665 56.591 30.6665C57.5514 30.6665 58.3295 29.8872 58.3295 28.9263V21.9701H64.2593L72.1538 30.1361C72.495 30.4889 72.9489 30.6671 73.4045 30.6671C73.8403 30.6671 74.2755 30.5047 74.6131 30.1775C75.3042 29.5098 75.3223 28.4093 74.6547 27.7182L66.7362 19.5271V14.2708C66.8524 14.21 66.9646 14.1365 67.0627 14.0389L75.5664 5.58371C75.6131 5.53698 75.6505 5.4856 75.6891 5.43417C76.6787 5.43417 77.3242 5.43417 77.4796 5.43417C77.4796 6.20645 77.4796 6.93488 77.4796 7.45774C77.4796 7.89703 77.7945 8.25337 78.1829 8.25337C78.5714 8.25337 78.8869 7.89703 78.8869 7.45713C78.8869 6.12582 78.8869 3.45854 78.8869 2.12784C78.8869 1.68794 78.5714 1.3316 78.1829 1.3316C77.7945 1.3316 77.4796 1.68794 77.4796 2.12784C77.4796 2.65009 77.4796 3.37852 77.4796 4.15081C77.3341 4.15081 76.7593 4.15081 75.8766 4.15081C75.8113 3.97615 75.7113 3.81139 75.5711 3.67065C75.0442 3.14082 74.1873 3.13905 73.6585 3.66539L73.1702 4.15081C68.0447 4.15081 59.6211 4.15081 54.8414 4.15081L54.8209 4.13156C54.29 3.62214 53.4516 3.63442 52.9329 4.15081C51.9235 4.15081 51.3019 4.15081 51.2406 4.15081C51.2406 3.37852 51.2406 2.65009 51.2406 2.12723C51.2412 1.68733 50.9257 1.33154 50.5379 1.33154ZM61.7363 5.43417C61.3098 5.97041 61.0447 6.63988 61.0447 7.37827C61.0447 9.11387 62.4507 10.5187 64.1845 10.5187C65.9201 10.5187 67.3255 9.11381 67.3255 7.37827C67.3255 6.63988 67.0604 5.96986 66.6339 5.43417C68.4974 5.43417 70.2972 5.43417 71.8797 5.43417L65.8424 11.437H62.4367L56.1797 5.43417C57.816 5.43417 59.7326 5.43417 61.7363 5.43417Z" fill="black"/>
<path d="M79.8396 7.19052C80.1329 7.19052 80.3701 6.95337 80.3701 6.66008C80.3701 5.73769 80.3701 3.8479 80.3695 2.92552C80.3695 2.63168 80.1323 2.39453 79.839 2.39453C79.8169 2.39453 79.7941 2.39453 79.7707 2.39453C79.478 2.39453 79.2402 2.63113 79.2402 2.92497C79.2402 3.84735 79.2402 5.73769 79.2402 6.66014C79.2402 6.95398 79.478 7.19113 79.7707 7.19113C79.7941 7.19052 79.8169 7.19052 79.8396 7.19052Z" fill="black"/>
<path d="M48.9685 7.19076C49.2617 7.19076 49.4989 6.95361 49.4989 6.66032C49.4989 5.73794 49.4989 3.84815 49.4989 2.92576C49.4989 2.63192 49.2618 2.39478 48.9685 2.39478C48.9457 2.39478 48.9229 2.39478 48.899 2.39478C48.6069 2.39478 48.3691 2.63137 48.3691 2.92521C48.3691 3.8476 48.3691 5.73794 48.3691 6.66038C48.3691 6.95422 48.6069 7.19137 48.8996 7.19137C48.9229 7.19076 48.9457 7.19076 48.9685 7.19076Z" fill="black"/>
</g>
<path d="M99.674 28.5295C98.9772 29.1181 98.889 30.164 99.4776 30.8623C100.045 31.532 101.139 31.6258 101.809 31.0587L105.94 27.5702C106.212 27.3407 106.405 27.024 106.485 26.6781L107.097 24.0248L109.735 25.4552V30.3449C109.735 31.2572 110.477 31.9998 111.39 31.9998C112.302 31.9998 113.044 31.2573 113.044 30.3449V24.4701C113.044 23.8627 112.713 23.3055 112.178 23.0154L109.79 21.7202L108.361 13.3851L110.568 10.5078C110.734 10.2921 110.825 10.0241 110.825 9.75207V6.72808C110.825 6.04351 110.268 5.48689 109.584 5.48689C108.899 5.48689 108.342 6.04345 108.342 6.72808V9.33119L107.065 10.9965L102.874 11.7153L101.622 10.2552L101.979 5.86306C102.034 5.18126 101.524 4.58109 100.841 4.52537C100.158 4.47904 99.5593 4.99205 99.5047 5.66283L99.107 10.5701C99.08 10.9022 99.1848 11.2249 99.4015 11.4781L102.507 15.1012L103.975 22.8367L103.384 25.3969L99.674 28.5295Z" fill="black"/>
<path d="M105.967 10.1808C107.374 9.67938 108.096 8.13205 107.599 6.73972C107.093 5.33748 105.553 4.60272 104.148 5.11077C102.742 5.60503 102.023 7.15784 102.517 8.56176C103.02 9.95299 104.566 10.6866 105.967 10.1808Z" fill="black"/>
<path d="M110.236 4.50014C111.479 4.50014 112.486 3.49275 112.486 2.25007C112.486 1.00739 111.479 0 110.236 0C108.994 0 107.986 1.00739 107.986 2.25007C107.986 3.49275 108.994 4.50014 110.236 4.50014Z" fill="black"/>
<path d="M117.372 12.027H117.934C118.361 12.9251 118.952 14.6841 118.548 17.0137C118.523 17.1638 118.623 17.3066 118.773 17.3325C118.789 17.3353 118.805 17.3364 118.82 17.3364C118.952 17.3364 119.069 17.242 119.092 17.108C119.161 16.7069 119.199 16.3252 119.219 15.9573H121.198V17.2443C121.198 17.3965 121.322 17.5201 121.474 17.5201C121.627 17.5201 121.75 17.3965 121.75 17.2443V15.9573H123.593C123.613 16.3252 123.65 16.7064 123.72 17.108C123.743 17.242 123.859 17.3364 123.991 17.3364C124.007 17.3364 124.023 17.3352 124.039 17.3325C124.189 17.3066 124.289 17.1637 124.263 17.0137C123.862 14.6908 124.453 12.9272 124.879 12.027H125.576C126.033 12.027 126.404 11.6568 126.404 11.1995C126.404 10.7422 126.033 10.3721 125.576 10.3721H117.372C116.915 10.3721 116.545 10.7422 116.545 11.1995C116.545 11.6568 116.915 12.027 117.372 12.027ZM121.751 12.027H124.268C124.11 12.391 123.946 12.8533 123.817 13.3961H121.751V12.027H121.751ZM121.751 13.9478H123.705C123.63 14.3902 123.584 14.8773 123.581 15.4058H121.751V13.9478H121.751ZM121.2 15.4058H119.232C119.23 14.8773 119.184 14.3902 119.108 13.9478H121.2V15.4058ZM121.2 12.027V13.3961H118.996C118.867 12.8533 118.704 12.391 118.546 12.027H121.2Z" fill="black"/>
<g clip-path="url(#clip1_1117_29828)">
<path d="M167.305 28.6857C166.984 28.4812 166.558 28.5759 166.353 28.8969C165.912 29.5903 164.431 29.212 163.484 28.9527C163.464 28.9471 149.7 25.1109 149.7 25.1109C149.334 25.0088 148.954 25.2232 148.852 25.5898C148.75 25.9565 148.964 26.3363 149.331 26.4386L151.782 27.1213C151.656 27.2692 151.559 27.445 151.503 27.6447C151.299 28.3778 151.728 29.1378 152.461 29.3418C153.194 29.5461 153.954 29.1171 154.158 28.3842C154.213 28.1846 154.221 27.9834 154.189 27.7916L161.141 29.7278C161.015 29.8757 160.917 30.0515 160.862 30.2511C160.658 30.9843 161.087 31.7443 161.82 31.9483C162.553 32.1526 163.313 31.7237 163.517 30.9906C163.57 30.7992 163.579 30.6064 163.552 30.4217C163.557 30.4229 163.56 30.424 163.565 30.4254C164.581 30.7083 166.614 31.0528 167.516 29.637C167.72 29.3162 167.626 28.8902 167.305 28.6857Z" fill="black"/>
<path d="M159.917 6.1457C160.288 6.39561 160.709 6.56871 161.148 6.6545L161.152 6.65542C162.24 6.86654 163.385 6.51629 164.169 5.73366C164.965 4.93937 165.314 3.76504 165.082 2.66469C164.857 1.59299 164.099 0.675426 163.087 0.254547C162.052 -0.176159 160.845 -0.0566921 159.915 0.569978C158.985 1.19665 158.421 2.27056 158.432 3.39201C158.442 4.48763 159.008 5.53427 159.917 6.1457Z" fill="black"/>
<path d="M174.706 5.69684C174.636 4.94545 173.971 4.39276 173.219 4.46248L167.139 5.0256C166.795 5.06583 165.768 5.46347 164.873 5.77121C164.744 5.96283 164.597 6.14294 164.432 6.30774C163.583 7.15453 162.345 7.53358 161.168 7.30508L161.163 7.30417C160.688 7.21129 160.233 7.02401 159.831 6.75369C159.622 6.61243 159.43 6.44877 159.256 6.26889C157.242 6.09189 154.914 5.90538 153.377 6.15749L148.274 7.88748C147.754 8.0631 147.437 8.60414 147.554 9.15393C147.68 9.74601 148.262 10.1238 148.854 9.99782L153.806 8.94341L157.615 9.45382C157.615 9.45382 156.121 15.0445 156.121 15.0451C155.473 17.6805 157.753 19.6006 157.753 19.6006L154.93 24.0719C154.552 24.6732 154.696 25.4772 155.278 25.9037C155.886 26.35 156.741 26.2182 157.187 25.6096L161.001 20.4069C161.213 20.117 161.312 19.7607 161.288 19.4067L163.232 19.7691L159.812 25.1082C159.424 25.7163 159.574 26.532 160.168 26.9566C160.781 27.3955 161.634 27.2538 162.074 26.6402L167.159 19.5307C167.272 19.3705 167.362 19.18 167.41 18.977C167.605 18.1371 167.084 17.2974 166.244 17.1012L166.169 17.0839L162.911 16.3236L164.448 10.5727C164.52 10.302 164.557 10.0304 164.564 9.76216C164.601 9.74517 164.637 9.72734 164.673 9.70753L167.797 7.99232L173.538 7.17525C174.253 7.07217 174.773 6.42454 174.706 5.69684Z" fill="black"/>
</g>
<g clip-path="url(#clip2_1117_29828)">
<path d="M205.977 14.1514C207.064 14.1514 207.946 13.2699 207.946 12.1825C207.946 11.0951 207.064 10.2136 205.977 10.2136C204.889 10.2136 204.008 11.0951 204.008 12.1825C204.008 13.2699 204.889 14.1514 205.977 14.1514Z" fill="black"/>
<path d="M212.133 13.2671C211.864 12.7918 211.257 12.6423 210.8 12.9299L207.327 15.1158L204.715 14.6977L203.232 12.8542C202.786 12.2992 201.986 12.1987 201.416 12.6128L202.58 13.2009L199.088 12.3751C198.575 12.2538 198.036 12.4 197.654 12.7637L195.003 15.2901C194.637 15.6404 194.612 16.2167 194.945 16.5981C194.95 16.6042 194.956 16.6103 194.961 16.6165C195.32 17.0284 195.953 17.0512 196.341 16.6667L198.778 14.3058H198.778L202.304 15.0952L199.158 15.2051L197.036 17.2377C196.688 17.5715 196.23 17.7552 195.748 17.7552C195.575 17.7552 195.403 17.7301 195.239 17.6831L195.099 17.7979C195.382 17.8717 195.641 18.0192 195.853 18.2312C195.986 18.3643 196.164 18.4375 196.353 18.4375C196.543 18.4375 196.72 18.3643 196.853 18.2312C197.615 17.4696 198.629 17.0502 199.708 17.0502C200.764 17.0502 201.757 17.4528 202.513 18.1839L204.498 16.5872L207.38 17.0485C207.43 17.0565 207.481 17.0605 207.53 17.0605C207.709 17.0605 207.884 17.0103 208.037 16.9144L211.789 14.5521C212.222 14.2796 212.385 13.7123 212.133 13.2671Z" fill="black"/>
<path d="M212.291 17.9939C211.771 18.1338 211.28 18.4063 210.871 18.8118C210.676 19.0057 210.439 19.1547 210.171 19.2212C209.618 19.359 209.069 19.2027 208.686 18.8195C208.081 18.2142 207.276 17.8809 206.42 17.8809C205.569 17.8809 204.769 18.2103 204.164 18.809C203.878 19.0932 203.492 19.2645 203.088 19.2703C202.668 19.2764 202.273 19.1157 201.977 18.8195C200.727 17.5699 198.694 17.5701 197.444 18.8195C197.153 19.1104 196.767 19.2705 196.356 19.2705C195.952 19.2705 195.573 19.1165 195.284 18.8363C194.963 18.5247 194.451 18.4902 194.12 18.7909C193.765 19.113 193.755 19.662 194.09 19.9969C195.339 21.2464 197.372 21.2464 198.622 19.9969C198.918 19.7005 199.314 19.5398 199.734 19.546C200.137 19.552 200.523 19.7232 200.809 20.0071C201.414 20.606 202.214 20.9355 203.065 20.9355C203.916 20.9355 204.717 20.606 205.321 20.0071C205.607 19.7231 205.993 19.552 206.397 19.546C206.817 19.5398 207.212 19.7005 207.509 19.9968C208.114 20.6021 208.919 20.9355 209.775 20.9355C210.631 20.9355 211.436 20.6022 212.041 19.9969C212.238 19.7996 212.476 19.6677 212.728 19.6006C213.087 19.5048 213.328 19.1674 213.328 18.7959C213.328 18.2535 212.814 17.8529 212.291 17.9939Z" fill="black"/>
<path d="M212.291 21.546C211.771 21.6859 211.28 21.9584 210.871 22.364C210.676 22.5579 210.439 22.7069 210.172 22.7735C209.618 22.9113 209.069 22.7549 208.686 22.3717C208.081 21.7664 207.276 21.4331 206.42 21.4331C205.569 21.4331 204.769 21.7626 204.164 22.3613C203.878 22.6454 203.492 22.8167 203.088 22.8226C202.668 22.8286 202.273 22.668 201.977 22.3717C200.727 21.1222 198.694 21.1223 197.444 22.3717C197.154 22.6626 196.767 22.8228 196.356 22.8228C195.952 22.8228 195.573 22.6687 195.284 22.3885C194.963 22.0769 194.451 22.0425 194.12 22.3432C193.765 22.6653 193.755 23.2142 194.09 23.5491C195.339 24.7987 197.372 24.7986 198.622 23.5491C198.918 23.2527 199.314 23.092 199.734 23.0983C200.137 23.1043 200.523 23.2755 200.81 23.5594C201.414 24.1582 202.214 24.4878 203.065 24.4878C203.916 24.4878 204.717 24.1582 205.321 23.5593C205.607 23.2754 205.993 23.1043 206.397 23.0983C206.817 23.0921 207.212 23.2527 207.509 23.5491C208.114 24.1544 208.919 24.4878 209.775 24.4878C210.631 24.4878 211.436 24.1544 212.041 23.5491C212.238 23.3519 212.476 23.2199 212.728 23.1528C213.087 23.057 213.328 22.7195 213.328 22.348C213.328 21.8057 212.814 21.4051 212.291 21.546Z" fill="black"/>
<path d="M218.924 6.28871C220.323 6.28871 221.457 5.15458 221.457 3.75556C221.457 2.35654 220.323 1.22241 218.924 1.22241C217.525 1.22241 216.391 2.35654 216.391 3.75556C216.391 5.15458 217.525 6.28871 218.924 6.28871Z" fill="black"/>
<path d="M225.086 9.97406C225.078 8.38713 223.781 7.09603 222.194 7.09603H218.908C218.907 7.09603 218.907 7.0961 218.906 7.0961C218.906 7.0961 218.906 7.09603 218.905 7.09603H216.798L212.412 4.58851L210.441 0.672852C210.138 0.0699067 209.403 -0.172971 208.8 0.130452C208.197 0.433945 207.954 1.16864 208.258 1.77173L210.394 6.01638C210.502 6.2309 210.67 6.40892 210.879 6.52812L215.656 9.25901V14.6405H222.13V9.54062H222.194C222.439 9.54062 222.64 9.74058 222.642 9.98632L222.687 18.9658C222.69 19.6388 223.237 20.182 223.909 20.182C223.911 20.182 223.913 20.182 223.915 20.182C224.59 20.1786 225.135 19.6286 225.131 18.9536L225.086 9.97406Z" fill="black"/>
<path d="M215.658 30.5333C215.658 31.3433 216.315 32 217.125 32C217.935 32 218.592 31.3433 218.592 30.5333V22.5771H215.658V30.5333Z" fill="black"/>
<path d="M219.227 30.533C219.227 30.8463 219.326 31.1361 219.493 31.3744C219.758 31.7521 220.197 31.9998 220.693 31.9998C221.503 31.9998 222.16 31.3431 222.16 30.533V22.5769H219.227V30.533Z" fill="black"/>
<path d="M215.746 17.5085L215.536 20.9804C215.525 21.1534 215.621 21.3214 215.79 21.3977C215.847 21.4232 215.909 21.4334 215.971 21.4334H218.261C218.461 21.4334 218.635 21.2943 218.678 21.0988L218.924 19.9936L219.093 21.0725C219.126 21.2803 219.305 21.4334 219.515 21.4334H221.876C221.938 21.4334 222 21.4232 222.057 21.3977C222.227 21.3214 222.322 21.1534 222.311 20.9804L222.101 17.5085H215.746Z" fill="black"/>
<path d="M222.13 15.6858H215.648L215.588 16.6728H222.12L222.13 15.6858Z" fill="black"/>
</g>
<path d="M252.747 17.8128V22.0542C252.747 22.3956 253.024 22.6724 253.366 22.6724C253.708 22.6724 253.984 22.3956 253.984 22.0542V18.2004L252.025 16.1328C251.598 15.6811 251.429 15.0502 251.574 14.4451L252.045 12.4808H251.494L251.908 11.8539C251.995 11.8938 252.087 11.9252 252.183 11.9447C252.282 11.6512 252.451 11.395 252.668 11.1926C252.952 10.9277 253.319 10.7567 253.722 10.7143C253.782 10.708 253.843 10.7039 253.904 10.7036V8.68007C253.904 8.33861 253.628 8.06183 253.286 8.06183C252.945 8.06183 252.668 8.33884 252.668 8.68007V9.4262C252.594 9.41288 252.518 9.40473 252.44 9.40473C252.362 9.40473 252.286 9.41282 252.211 9.42631V7.66573C252.211 7.32426 251.935 7.04749 251.593 7.04749C251.251 7.04749 250.975 7.32426 250.975 7.66573V11.0229L250.675 11.4773L250.376 11.0229V7.66573C250.376 7.32426 250.099 7.04749 249.758 7.04749C249.416 7.04749 249.139 7.32426 249.139 7.66573V9.42631C249.065 9.413 248.989 9.40473 248.91 9.40473C248.752 9.40473 248.602 9.43463 248.462 9.48692V6.61189C248.462 6.27043 248.185 5.99365 247.843 5.99365C247.502 5.99365 247.225 6.27049 247.225 6.61189V9.96907L246.846 10.545V7.66573C246.846 7.32426 246.569 7.04749 246.227 7.04749C245.886 7.04749 245.609 7.32426 245.609 7.66573V8.43309C245.469 8.38091 245.319 8.35089 245.161 8.35089C244.452 8.35089 243.878 8.92522 243.878 9.63375C243.878 10.3423 244.452 10.9167 245.161 10.9167C245.319 10.9167 245.469 10.8868 245.609 10.8345V11.2082C245.609 11.2834 245.624 11.3572 245.651 11.4268H245.161H244.057L243.096 9.96896V6.61201C243.096 6.27054 242.819 5.99377 242.478 5.99377C242.136 5.99377 241.859 6.27049 241.859 6.61189V10.1545C241.859 10.2755 241.895 10.3937 241.961 10.4947L243.629 13.0246V15.7275C243.621 15.7672 243.617 15.8081 243.617 15.8501V21.0004C243.617 21.3418 243.893 21.6186 244.235 21.6186C244.576 21.6186 244.853 21.3418 244.853 21.0004V16.7589H245.161H245.468V21.0003C245.468 21.3417 245.745 21.6185 246.086 21.6185C246.428 21.6185 246.705 21.3417 246.705 21.0003V15.85C246.705 15.808 246.7 15.7671 246.693 15.7274V13.0373L247.379 14.0783V16.7812C247.371 16.8209 247.366 16.8618 247.366 16.9038V22.0542C247.366 22.3956 247.643 22.6724 247.985 22.6724C248.326 22.6724 248.603 22.3956 248.603 22.0542V17.8128H248.91H249.218V22.0542C249.218 22.3956 249.495 22.6724 249.836 22.6724C250.178 22.6724 250.454 22.3956 250.454 22.0542V16.9038C250.454 16.8619 250.45 16.821 250.442 16.7812V14.0783L250.675 13.7241L250.909 14.0783V16.7812C250.901 16.8209 250.897 16.8618 250.897 16.9038V22.0542C250.897 22.3956 251.173 22.6724 251.515 22.6724C251.856 22.6724 252.133 22.3956 252.133 22.0542V17.8128H252.441H252.747ZM248.91 12.4807H247.806L247.428 11.9074L247.804 11.3366C248.027 11.7154 248.438 11.9704 248.91 11.9704C249.1 11.9704 249.28 11.9279 249.442 11.8538L249.855 12.4807H248.91V12.4807Z" fill="black"/>
<path d="M255.315 11.356C255.379 11.2543 255.447 11.1559 255.522 11.0628C255.591 10.976 255.664 10.8923 255.742 10.8136C255.88 10.6754 256.031 10.5505 256.192 10.4402C256.368 10.3198 256.558 10.2179 256.758 10.1357V9.14417C256.758 8.80277 256.482 8.52593 256.14 8.52593C255.988 8.52593 255.85 8.58322 255.743 8.67431V7.66633C255.743 7.32487 255.466 7.0481 255.124 7.0481C254.783 7.0481 254.506 7.32487 254.506 7.66633V10.8022C254.648 10.8501 254.78 10.9151 254.902 10.9931C255.059 11.0933 255.197 11.216 255.315 11.356Z" fill="black"/>
<path d="M254.909 19.1758L254.426 18.6658V22.358L254.909 21.7675V19.1758Z" fill="black"/>
<path d="M272.313 6.45733C271.972 6.45733 271.695 6.73417 271.695 7.07557V10.4328L270.734 11.8906H269.63H269.14C269.167 11.8208 269.182 11.7472 269.182 11.672V11.2983C269.322 11.3504 269.472 11.3805 269.63 11.3805C270.339 11.3805 270.913 10.8061 270.913 10.0976C270.913 9.38908 270.339 8.81469 269.63 8.81469C269.472 8.81469 269.322 8.84459 269.182 8.89688V8.12952C269.182 7.78806 268.905 7.51128 268.563 7.51128C268.222 7.51128 267.945 7.78806 267.945 8.12952V11.009L267.565 10.433V7.07551C267.565 6.73405 267.289 6.45728 266.947 6.45728C266.606 6.45728 266.329 6.73411 266.329 7.07551V9.95055C266.189 9.89837 266.038 9.86835 265.88 9.86835C265.802 9.86835 265.726 9.87645 265.651 9.88994V8.12941C265.651 7.78794 265.375 7.51117 265.033 7.51117C264.692 7.51117 264.415 7.78794 264.415 8.12941V11.4866L264.115 11.941L264.068 11.8697V12.0123V14.1166V14.2593L264.115 14.188L264.349 14.5423V17.2452C264.341 17.2848 264.337 17.3257 264.337 17.3678V22.5181C264.337 22.8595 264.613 23.1363 264.955 23.1363C265.296 23.1363 265.573 22.8595 265.573 22.5181V18.2767H265.881H266.188V22.5181C266.188 22.8595 266.465 23.1363 266.806 23.1363C267.148 23.1363 267.425 22.8595 267.425 22.5181V17.3677C267.425 17.3257 267.42 17.2848 267.412 17.2451V14.5422L268.098 13.5012V16.1913C268.091 16.231 268.086 16.2719 268.086 16.3139V21.4642C268.086 21.8056 268.363 22.0824 268.705 22.0824C269.046 22.0824 269.323 21.8056 269.323 21.4642V17.2228H269.63H269.937V21.4642C269.937 21.8056 270.214 22.0824 270.556 22.0824C270.898 22.0824 271.174 21.8056 271.174 21.4642V16.3139C271.174 16.272 271.17 16.231 271.162 16.1913V13.4884L272.829 10.9585C272.896 10.8574 272.931 10.7393 272.931 10.6183V7.07563C272.932 6.73434 272.655 6.45733 272.313 6.45733ZM266.985 12.9446H265.881H264.935L265.349 12.3177C265.511 12.392 265.691 12.4344 265.881 12.4344C266.353 12.4344 266.764 12.1793 266.986 11.8005L267.363 12.3713L266.985 12.9446Z" fill="black"/>
<path d="M263.884 15.1133C263.849 15.1842 263.812 15.2538 263.768 15.3204L261.34 19.004V22.8366C261.353 22.9241 261.359 23.0123 261.359 23.0996V23.1293C261.381 23.1317 261.403 23.1362 261.426 23.1362C261.768 23.1362 262.045 22.8593 262.045 22.5179V18.2766H262.352H262.659V22.5179C262.659 22.8593 262.936 23.1362 263.278 23.1362C263.619 23.1362 263.896 22.8593 263.896 22.5179V17.3676C263.896 17.3256 263.891 17.2847 263.884 17.245V15.1133H263.884Z" fill="black"/>
<path d="M260.288 8.12923C260.288 7.78776 260.011 7.51099 259.669 7.51099C259.328 7.51099 259.051 7.78776 259.051 8.12923V8.21022C258.943 8.11889 258.806 8.06178 258.653 8.06178C258.312 8.06178 258.035 8.33879 258.035 8.68002V9.91019C258.393 9.92299 258.735 9.99611 259.051 10.1213C259.126 10.151 259.199 10.1844 259.272 10.2196C259.664 10.4118 260.011 10.6821 260.288 11.0142V8.12923H260.288Z" fill="black"/>
<path d="M246.946 5.41678C247.314 4.93274 247.331 4.25194 247.026 3.7194C246.696 3.14346 245.255 2.04646 246.051 1.4083C246.493 1.05404 245.867 0.436834 245.43 0.787251C244.911 1.20282 244.862 1.84074 245.042 2.44492C245.283 3.24988 246.862 4.08749 246.187 4.97344C245.844 5.42413 246.607 5.86076 246.946 5.41678Z" fill="black"/>
<path d="M269.84 1.66376C270.404 1.6067 270.214 0.748539 269.657 0.804904C268.995 0.871831 268.607 1.38027 268.43 1.98553C268.194 2.79187 269.065 4.35368 268.017 4.73021C267.484 4.92181 267.887 5.70323 268.412 5.51445C268.985 5.30862 269.369 4.74617 269.403 4.13356C269.439 3.47095 268.825 1.76656 269.84 1.66376Z" fill="black"/>
<path d="M252.638 5.32006C252.732 5.92636 253.171 6.44799 253.761 6.59574C254.303 6.73131 254.626 5.91373 254.076 5.77603C252.996 5.5054 253.707 3.86489 253.392 3.08593C253.156 2.50122 252.719 2.03382 252.055 2.03296C251.494 2.03227 251.391 2.90501 251.957 2.9057C252.977 2.90731 252.536 4.66445 252.638 5.32006Z" fill="black"/>
<path d="M263.371 2.17235C263.629 1.59693 263.664 0.958143 263.204 0.478119C262.817 0.0732877 262.115 0.603191 262.507 1.01227C263.213 1.74927 261.64 2.64784 261.237 3.17545C260.865 3.66333 260.792 4.34046 261.094 4.86876C261.371 5.35332 262.185 5.02069 261.904 4.52873C261.351 3.56214 263.027 2.93902 263.371 2.17235Z" fill="black"/>
<path d="M255.443 3.0929C255.678 3.65971 256.227 4.06264 256.836 4.06626C257.394 4.06976 257.515 3.1988 256.948 3.19512C255.834 3.18806 256.136 1.42587 255.646 0.743747C255.278 0.231581 254.743 -0.119009 254.097 0.0376885C253.552 0.169762 253.659 1.04216 254.209 0.908653C255.201 0.668383 255.188 2.47994 255.443 3.0929Z" fill="black"/>
<path d="M249.237 5.49461C250.03 5.49461 250.03 4.26514 249.237 4.26514C248.444 4.26514 248.444 5.49461 249.237 5.49461Z" fill="black"/>
<path d="M243.354 3.73826C244.147 3.73826 244.147 2.50879 243.354 2.50879C242.562 2.50879 242.562 3.73826 243.354 3.73826Z" fill="black"/>
<path d="M259.862 0.927979C259.069 0.927979 259.069 2.15745 259.862 2.15745C260.655 2.15745 260.655 0.927979 259.862 0.927979Z" fill="black"/>
<path d="M258.722 5.31932C259.514 5.31932 259.514 4.08984 258.722 4.08984C257.929 4.08984 257.929 5.31932 258.722 5.31932Z" fill="black"/>
<path d="M265.487 3.47484C266.28 3.47484 266.28 2.24536 265.487 2.24536C264.694 2.24536 264.694 3.47484 265.487 3.47484Z" fill="black"/>
<path d="M272.511 3.56299C271.718 3.56299 271.718 4.79246 272.511 4.79246C273.303 4.79246 273.303 3.56299 272.511 3.56299Z" fill="black"/>
<path d="M260.807 18.2155L263.034 14.8374C263.136 14.6816 263.191 14.4991 263.191 14.3126V12.9449V12.7847V12.1201V10.1835V7.58178C263.191 7.55842 263.189 7.5354 263.187 7.51244C263.152 7.01818 262.74 6.62793 262.237 6.62793C261.71 6.62793 261.283 7.05509 261.283 7.58183V8.56857V10.4414V11.862V12.9448V14.0264L260.819 14.7298L259.801 16.2756H257.501H257.291H255.999L254.405 14.5927L254.721 13.2755L254.845 12.7589C254.845 12.7572 254.845 12.7553 254.846 12.7535C254.852 12.7284 254.856 12.7033 254.86 12.6783C254.861 12.6658 254.863 12.6537 254.865 12.6412C254.877 12.5318 254.87 12.4238 254.846 12.3207C254.823 12.2228 254.785 12.1295 254.734 12.0443C254.607 11.833 254.398 11.6707 254.14 11.6085C254.134 11.6071 254.128 11.6066 254.122 11.6052C254.052 11.5899 253.984 11.5816 253.916 11.5816C253.912 11.5816 253.909 11.5826 253.905 11.5826C253.479 11.5874 253.094 11.8799 252.99 12.3132L252.949 12.4809L252.887 12.7401L252.429 14.6502C252.353 14.9641 252.442 15.2948 252.664 15.5291L253.985 16.9237L254.438 17.4021L255.787 18.8263V18.8275V22.0813L255.662 22.2336L254.615 23.513L252.618 25.9545C252.298 26.3453 252.338 26.9171 252.709 27.2598L255.14 29.5035C255.323 29.6728 255.555 29.7564 255.786 29.7564C256.043 29.7564 256.3 29.6531 256.488 29.4495C256.845 29.0622 256.821 28.4589 256.434 28.1013L254.664 26.4673L256.272 24.5023H258.572V31.0463C258.572 31.573 258.999 32.0002 259.526 32.0002C260.053 32.0002 260.48 31.573 260.48 31.0463V23.1C260.48 23.0352 260.473 22.9719 260.461 22.9107V18.7412L260.807 18.2155Z" fill="black"/>
<path d="M255.783 13.4954C255.929 14.1063 256.328 14.6186 256.865 14.9132C257.06 15.0203 257.274 15.0981 257.499 15.1419C257.636 15.1684 257.777 15.1833 257.921 15.1833C258.785 15.1833 259.531 14.6838 259.89 13.9589C259.974 13.7898 260.039 13.6094 260.077 13.419C260.106 13.2781 260.121 13.1323 260.121 12.983C260.121 12.8111 260.099 12.6446 260.062 12.4841C259.946 11.9847 259.661 11.5514 259.269 11.2469C259.198 11.1922 259.125 11.1422 259.048 11.0963C258.915 11.0166 258.773 10.95 258.623 10.8996C258.436 10.8365 258.238 10.799 258.032 10.7886C257.995 10.7866 257.959 10.783 257.921 10.783C257.601 10.783 257.298 10.8527 257.024 10.9753C256.931 11.0169 256.842 11.0654 256.756 11.1191C256.199 11.4681 255.809 12.0579 255.734 12.744C255.733 12.7564 255.733 12.7689 255.731 12.7813C255.725 12.8405 255.722 12.9004 255.722 12.9608C255.722 12.9682 255.721 12.9754 255.721 12.983C255.721 13.0541 255.725 13.1242 255.731 13.1936C255.741 13.2967 255.76 13.3971 255.783 13.4954Z" fill="black"/>
<g clip-path="url(#clip3_1117_29828)">
<path d="M293.628 12.5306C295.753 12.5306 297.476 10.8076 297.476 8.68206C297.476 6.55656 295.753 4.8335 293.628 4.8335C291.502 4.8335 289.779 6.55656 289.779 8.68206C289.779 10.8076 291.502 12.5306 293.628 12.5306Z" fill="black"/>
<path d="M320.695 0.515913C319.688 -0.479473 318.063 0.0981098 317.067 1.1049L307.865 10.496L304.542 10.8984C304.203 11.0028 303.693 10.9235 303.401 10.7215L302.942 10.4035L309.457 5.32727C310.435 4.56592 310.611 3.15499 309.848 2.1768C309.088 1.19908 307.677 1.02444 306.698 1.7852L299.804 7.15659C299.379 7.48821 299.115 7.94421 299.004 8.43161C299.002 8.43614 298.998 8.43901 298.996 8.4436C298.996 8.4436 296.45 12.5501 296.451 12.6705C295.939 13.3497 295.831 14.2886 296.261 15.086L300.002 22.0343C300.408 22.7871 301.182 23.2151 301.981 23.2151C302.34 23.2151 302.705 23.129 303.043 22.9463C304.135 22.3584 304.543 20.9972 303.955 19.9054L302.305 16.841L306.144 17.0636V29.434C306.144 30.85 306.722 31.999 308.138 31.999C309.555 31.999 310.133 30.85 310.133 29.434V14.3634C310.133 14.328 310.124 14.2949 310.123 14.2595L319.947 4.00319C320.942 2.99641 321.702 1.51297 320.695 0.515913Z" fill="black"/>
</g>
<defs>
<clipPath id="clip0_1117_29828">
<rect width="32" height="32" fill="white" transform="translate(48.3711)"/>
</clipPath>
<clipPath id="clip1_1117_29828">
<rect width="32" height="32" fill="white" transform="translate(145.115)"/>
</clipPath>
<clipPath id="clip2_1117_29828">
<rect width="32" height="32" fill="white" transform="translate(193.486)"/>
</clipPath>
<clipPath id="clip3_1117_29828">
<rect width="32" height="32" fill="white" transform="translate(289.477)"/>
</clipPath>
</defs>
</svg>
