<svg width="260" height="205" viewBox="0 0 260 205" fill="none" xmlns="http://www.w3.org/2000/svg">
<path d="M130.254 82.4869L124.398 82.6545L133.396 76.2061L130.254 82.4869Z" fill="black"/>
<path d="M124.399 82.6546L120.072 83.2511V79.5161L124.399 82.6546Z" fill="black"/>
<path d="M124.399 82.6545L133.397 76.2061L120.072 79.5161L124.399 82.6545Z" fill="black"/>
<path d="M130.254 82.4868L124.398 82.6545L129.661 88.5103L130.254 82.4868Z" fill="black"/>
<path d="M130.254 82.4869L133.397 76.2061L129.662 88.5104L130.254 82.4869Z" fill="black"/>
<path d="M114.134 83.0055L120.071 83.2511V79.5161L114.134 83.0055Z" fill="black"/>
<path d="M114.133 83.0054L120.071 83.251L113.97 85.3134L114.133 83.0054Z" fill="black"/>
<path d="M125.861 75.1104L133.397 76.2059L120.072 79.5159L125.861 75.1104Z" fill="black"/>
<path d="M125.861 75.1104L120.859 75.3404L120.072 79.5159L125.861 75.1104Z" fill="black"/>
<path d="M125.86 75.1106L127.291 72.4478L120.858 75.3406L125.86 75.1106Z" fill="#232323"/>
<path d="M115.911 79.8048L120.858 75.3408L120.071 79.5163L115.911 79.8048Z" fill="black"/>
<path d="M115.911 79.8046L114.134 83.0055L120.071 79.5161L115.911 79.8046Z" fill="black"/>
<path d="M115.91 79.8048L113.692 78.6118L120.857 75.3408L115.91 79.8048Z" fill="#232323"/>
<path d="M115.911 79.8046L114.133 83.0054L111.307 79.7578L115.911 79.8046Z" fill="black"/>
<path d="M125.861 75.1106L133.397 76.2061L127.291 72.4478L125.861 75.1106Z" fill="black"/>
<path d="M132.391 73.4887L133.397 76.2061L127.291 72.4478L132.391 73.4887Z" fill="black"/>
<path d="M132.391 73.4884L132.617 71.7964L127.291 72.4475L132.391 73.4884Z" fill="#232323"/>
<path d="M132.391 73.4884L133.397 76.2058L132.617 71.7964L132.391 73.4884Z" fill="black"/>
<path d="M133.822 82.3387L133.397 76.2061L129.662 88.5104L133.822 82.3387Z" fill="black"/>
<path d="M133.822 82.3389L137.182 87.6528L129.662 88.5105L133.822 82.3389Z" fill="black"/>
<path d="M126.901 93.5985L124.398 82.6548L129.661 88.5106L126.901 93.5985Z" fill="black"/>
<path d="M114.133 83.0059L111.307 82L113.97 85.3139L114.133 83.0059Z" fill="black"/>
<path d="M114.133 83.0054L111.307 81.9996V79.7578L114.133 83.0054Z" fill="black"/>
<path d="M107.552 82.7291L111.306 82L107.992 88.7721L107.552 82.7291Z" fill="#232323"/>
<path d="M112.328 93.0606L111.307 82L110.363 87.7818L112.328 93.0606Z" fill="black"/>
<path d="M112.328 93.0601L110.963 97.1537L107.993 88.7715L112.328 93.0601Z" fill="black"/>
<path d="M114.083 89.9923L111.307 82L113.97 85.3139L114.083 89.9923Z" fill="black"/>
<path d="M114.083 89.9924L111.307 82L112.328 93.0606L114.083 89.9924Z" fill="black"/>
<path d="M114.082 89.9922L114.854 98.0157L112.328 93.0605L114.082 89.9922Z" fill="black"/>
<path d="M110.964 97.1537L114.855 98.0153L112.328 93.0601L110.964 97.1537Z" fill="black"/>
<path d="M110.964 97.1538L112.313 101.493L113.354 99.2201L110.964 97.1538Z" fill="black"/>
<path d="M114.854 98.0156L112.312 101.493L113.353 99.2203L114.854 98.0156Z" fill="black"/>
<path d="M114.854 98.0156L112.312 101.493L118.484 101.883L114.854 98.0156Z" fill="#232323"/>
<path d="M112.379 106.172L112.312 101.493L116.145 106.043L112.379 106.172Z" fill="black"/>
<path d="M118.484 101.883L112.312 101.493L116.145 106.043L118.484 101.883Z" fill="black"/>
<path d="M118.484 101.883L119.719 107.86L116.144 106.043L118.484 101.883Z" fill="#232323"/>
<path d="M114.39 108.901L119.72 107.86L116.145 106.043L114.39 108.901Z" fill="black"/>
<path d="M118.484 101.883L119.72 107.86L120.11 105.131L118.484 101.883Z" fill="black"/>
<path d="M142.107 92.5262L137.182 87.6528L129.662 88.5106L142.107 92.5262Z" fill="black"/>
<path d="M142.106 92.5262L137.182 87.6528L146.243 90.2806L142.106 92.5262Z" fill="black"/>
<path d="M146.243 86.2646L137.182 87.6526L146.243 90.2803V86.2646Z" fill="black"/>
<path d="M146.243 86.2644L137.182 87.6524L140.742 79.0752L146.243 86.2644Z" fill="black"/>
<path d="M133.822 82.3387L137.182 87.6527L133.397 76.2061L133.822 82.3387Z" fill="black"/>
<path d="M130.624 102.019L126.901 93.5981L129.661 88.5103L130.624 102.019Z" fill="black"/>
<path d="M130.624 102.019L126.901 93.5981L127.79 99.2006L130.624 102.019Z" fill="black"/>
<path d="M133.397 76.2061L137.182 87.6527L140.742 79.0755L133.397 76.2061Z" fill="black"/>
<path d="M133.396 76.2058L132.616 71.7964L140.741 79.0753L133.396 76.2058Z" fill="#232323"/>
<path d="M139.821 72.5254L132.616 71.7964L140.741 79.0753L139.821 72.5254Z" fill="black"/>
<path d="M139.822 72.5256L132.617 71.7966L131.935 66.8491L139.822 72.5256Z" fill="black"/>
<path d="M139.822 72.5256L140.555 70.9467L131.935 66.8491L139.822 72.5256Z" fill="black"/>
<path d="M144.711 71.1809L140.554 70.947L137.927 67.7812L144.711 71.1809Z" fill="black"/>
<path d="M144.71 71.1806L137.443 64.3423L137.927 67.7809L144.71 71.1806Z" fill="black"/>
<path d="M131.935 66.8491L140.555 70.9467L137.927 67.7809L131.935 66.8491Z" fill="black"/>
<path d="M131.935 66.8492L137.443 64.3423L137.927 67.7809L131.935 66.8492Z" fill="black"/>
<path d="M131.935 66.849L137.443 64.3421L129.771 60.1978L131.935 66.849Z" fill="black"/>
<path d="M138.484 60.6502L137.443 64.3423L136.55 59.5312L138.484 60.6502Z" fill="#232323"/>
<path d="M134.87 60.8724L137.443 64.3423L136.55 59.5312L134.87 60.8724Z" fill="black"/>
<path d="M134.87 60.8722L137.443 64.3421L129.771 60.1978L134.87 60.8722Z" fill="black"/>
<path d="M144.71 71.1806L137.443 64.3423L145.833 67.9447L144.71 71.1806Z" fill="black"/>
<path d="M138.484 60.6504L137.443 64.3425L145.833 67.9449L138.484 60.6504Z" fill="black"/>
<path d="M138.484 60.6504L146.414 65.6056L145.833 67.9449L138.484 60.6504Z" fill="black"/>
<path d="M146.146 61.6992L146.415 65.6057L147.19 65.5862L146.146 61.6992Z" fill="#232323"/>
<path d="M146.145 61.6992L146.414 65.6057L143.611 61.6992H146.145Z" fill="black"/>
<path d="M138.484 60.6504L146.414 65.6056L143.61 61.6991L138.484 60.6504Z" fill="#232323"/>
<path d="M138.484 60.6502L140.85 58.2681L143.61 61.6989L138.484 60.6502Z" fill="black"/>
<path d="M143.822 59.5429L140.851 58.2681L143.611 61.6989L143.822 59.5429Z" fill="black"/>
<path d="M143.821 59.543L146.145 61.699H143.611L143.821 59.543Z" fill="black"/>
<path d="M143.822 59.543L146.146 61.699L146.072 59.6989L143.822 59.543Z" fill="black"/>
<path d="M143.822 59.5429L140.851 58.2681L146.071 59.6989L143.822 59.5429Z" fill="black"/>
<path d="M144.18 57.231L140.851 58.268L146.071 59.6988L144.18 57.231Z" fill="black"/>
<path d="M144.18 57.2312L145.459 55.6016L146.071 59.6991L144.18 57.2312Z" fill="black"/>
<path d="M144.181 57.2309L145.46 55.6013L141.792 53.188L144.181 57.2309Z" fill="black"/>
<path d="M144.18 57.2309L140.851 58.268L141.79 53.188L144.18 57.2309Z" fill="black"/>
<path d="M138.484 60.6502L140.851 58.2681L136.55 59.5312L138.484 60.6502Z" fill="black"/>
<path d="M134.87 60.8724L129.771 60.1979L136.551 59.5312L134.87 60.8724Z" fill="black"/>
<path d="M131.354 55.7651L129.771 60.198L136.551 59.5313L131.354 55.7651Z" fill="black"/>
<path d="M136.55 59.5312L135.984 52.958L134.733 55.4493L136.55 59.5312Z" fill="black"/>
<path d="M140.851 58.268L135.986 52.958L136.551 59.5312L140.851 58.268Z" fill="black"/>
<path d="M140.851 58.268L135.986 52.958L139.947 55.1257L140.851 58.268Z" fill="black"/>
<path d="M140.851 58.268L141.791 53.188L139.947 55.1256L140.851 58.268Z" fill="black"/>
<path d="M135.986 52.958L141.791 53.188L139.947 55.1257L135.986 52.958Z" fill="#232323"/>
<path d="M131.023 102.536L128.423 99.0898L127.709 103.25L131.023 102.536Z" fill="black"/>
<path d="M135.277 52.3184L134.798 54.3028L131.363 55.2853L135.277 52.3184Z" fill="black"/>
<path d="M146.242 86.2649L139.821 72.5259L140.741 79.0757L146.242 86.2649Z" fill="#232323"/>
<path d="M142.106 92.5259L142.691 96.1322L146.242 90.2803L142.106 92.5259Z" fill="black"/>
<path d="M142.107 92.5259L142.691 96.1322L129.662 88.5103L142.107 92.5259Z" fill="black"/>
<path d="M130.625 102.019L135.186 96.0348L129.662 88.5103L130.625 102.019Z" fill="black"/>
<path d="M142.691 96.1322L135.186 96.0348L129.662 88.5103L142.691 96.1322Z" fill="black"/>
<path d="M142.692 96.1326L135.186 96.0352L130.625 102.02L142.692 96.1326Z" fill="black"/>
<path d="M130.624 102.02L123.684 111.727L127.52 103.727L130.624 102.02Z" fill="black"/>
<path d="M130.624 102.02L123.684 111.727L130.312 112.215L130.624 102.02Z" fill="black"/>
<path d="M121.345 114.262L123.685 111.728L130.312 112.215L121.345 114.262Z" fill="#232323"/>
<path d="M121.345 114.262L120.176 118.355L130.312 112.215L121.345 114.262Z" fill="black"/>
<path d="M121.54 122.838L120.176 118.355L125.147 123.521L121.54 122.838Z" fill="black"/>
<path d="M138.472 126.948L120.176 118.355L125.147 123.521L138.472 126.948Z" fill="black"/>
<path d="M133.431 121.767L120.176 118.355L130.312 112.215L133.431 121.767Z" fill="black"/>
<path d="M133.431 121.766L120.176 118.355L138.472 126.948L133.431 121.766Z" fill="black"/>
<path d="M121.54 122.838L134.218 127.26L125.146 123.521L121.54 122.838Z" fill="black"/>
<path d="M121.54 122.838L125.095 126.78L134.218 127.26L121.54 122.838Z" fill="black"/>
<path d="M124.581 139.646L125.096 126.78L134.219 127.26L124.581 139.646Z" fill="black"/>
<path d="M117.155 130.831L125.096 126.78L120.734 125.938L117.155 130.831Z" fill="black"/>
<path d="M117.155 130.831L125.096 126.78L124.582 139.646L117.155 130.831Z" fill="black"/>
<path d="M117.154 130.831L113.49 139.833L118.031 136.484L117.154 130.831Z" fill="black"/>
<path d="M117.155 130.831L124.582 139.646L118.032 136.484L117.155 130.831Z" fill="black"/>
<path d="M119.848 146.199L124.581 139.646L118.031 136.484L119.848 146.199Z" fill="black"/>
<path d="M119.849 146.199L112.117 143.209L118.032 136.484L119.849 146.199Z" fill="black"/>
<path d="M119.848 146.199L113.158 150.422L118.484 148.211L119.848 146.199Z" fill="black"/>
<path d="M119.849 146.2L113.158 150.422L112.117 143.209L119.849 146.2Z" fill="black"/>
<path d="M106.464 145.482L105.555 151.202L112.117 143.209L106.464 145.482Z" fill="black"/>
<path d="M106.465 145.482L105.556 151.202L99.7705 154.126L106.465 145.482Z" fill="#232323"/>
<path d="M113.158 150.422L105.555 151.202L112.117 143.209L113.158 150.422Z" fill="black"/>
<path d="M113.158 150.422L105.555 151.202L108.023 155.685L113.158 150.422Z" fill="black"/>
<path d="M98.4058 159.713L105.556 151.202L108.024 155.685L98.4058 159.713Z" fill="black"/>
<path d="M98.4058 159.713L105.556 151.202L99.7703 154.126L98.4058 159.713Z" fill="black"/>
<path d="M98.4063 159.713L92.6245 165.888L96.1684 160.06L98.4063 159.713Z" fill="black"/>
<path d="M98.4064 159.712L98.2114 164.457L108.024 155.685L98.4064 159.712Z" fill="black"/>
<path d="M98.4063 159.713L98.2114 164.457L92.6245 165.888L98.4063 159.713Z" fill="black"/>
<path d="M96.9521 168.808L98.2114 164.458L92.6245 165.888L96.9521 168.808Z" fill="black"/>
<path d="M92.7532 162.637L96.1684 160.06L92.6245 165.888L92.7532 162.637Z" fill="#232323"/>
<path d="M92.7528 162.637L88.0276 163.912L92.6242 165.888L92.7528 162.637Z" fill="black"/>
<path d="M89.6339 169.994L88.0276 163.912L92.6242 165.888L89.6339 169.994Z" fill="black"/>
<path d="M89.6331 169.994L96.9509 168.808L92.6234 165.888L89.6331 169.994Z" fill="black"/>
<path d="M92.3618 175.027L96.1709 168.808L93.9252 179.132L92.3618 175.027Z" fill="black"/>
<path d="M92.3622 175.027L96.9509 168.808L89.6331 169.994L92.3622 175.027Z" fill="black"/>
<path d="M92.3622 175.026L92.0308 179.409L89.6331 169.993L92.3622 175.026Z" fill="black"/>
<path d="M92.3626 175.027L92.0312 179.409L94.7058 179.132L92.3626 175.027Z" fill="black"/>
<path d="M95.6921 182.711L92.0312 179.409L94.7058 179.132L95.6921 182.711Z" fill="black"/>
<path d="M95.6921 182.711L92.0312 179.409L94.6785 183.53L95.6921 182.711Z" fill="black"/>
<path d="M91.9644 181.896L92.0306 179.409L94.6779 183.53L91.9644 181.896Z" fill="black"/>
<path d="M91.9651 181.896L92.0314 179.409L88.8267 176.009L91.9651 181.896Z" fill="black"/>
<path d="M89.6337 169.993L92.0314 179.409L88.8267 176.009L89.6337 169.993Z" fill="black"/>
<path d="M142.692 96.1323L140.38 105.672L130.625 102.019L142.692 96.1323Z" fill="black"/>
<path d="M130.312 112.215L135.747 108.682L130.624 102.02L130.312 112.215Z" fill="black"/>
<path d="M140.38 105.673L135.748 108.682L130.625 102.02L140.38 105.673Z" fill="black"/>
<path d="M140.379 105.672L135.748 108.682L138.999 112.269L140.379 105.672Z" fill="black"/>
<path d="M130.312 112.215L135.747 108.683L138.999 112.269L130.312 112.215Z" fill="black"/>
<path d="M133.431 121.767L138.999 112.269L130.312 112.215L133.431 121.767Z" fill="black"/>
<path d="M133.431 121.766L138.999 112.269L142.515 113.606L133.431 121.766Z" fill="#232323"/>
<path d="M133.431 121.766L150.94 122.679L142.515 113.606L133.431 121.766Z" fill="black"/>
<path d="M133.431 121.767L150.94 122.679L138.472 126.948L133.431 121.767Z" fill="black"/>
<path d="M154.016 119.673L150.94 122.679L142.515 113.606L154.016 119.673Z" fill="#232323"/>
<path d="M150.114 128.203L150.941 122.679L138.473 126.948L150.114 128.203Z" fill="black"/>
<path d="M150.114 128.203L154.157 131.322L138.473 126.948L150.114 128.203Z" fill="black"/>
<path d="M150.114 128.203L150.941 122.679L160.231 132.706L150.114 128.203Z" fill="black"/>
<path d="M150.114 128.203L154.157 131.322L160.231 132.706L150.114 128.203Z" fill="black"/>
<path d="M161.568 127.412L150.94 122.679L160.231 132.706L161.568 127.412Z" fill="black"/>
<path d="M161.568 127.412L150.94 122.679L157.412 121.774L161.568 127.412Z" fill="#232323"/>
<path d="M154.016 119.673L150.94 122.679L157.412 121.774L154.016 119.673Z" fill="black"/>
<path d="M161.569 127.412L164.906 128.917L160.231 132.706L161.569 127.412Z" fill="black"/>
<path d="M161.569 127.412L164.906 128.917L157.413 121.774L161.569 127.412Z" fill="black"/>
<path d="M164.185 132.137L164.906 128.917L160.231 132.706L164.185 132.137Z" fill="black"/>
<path d="M164.184 132.137L156.629 140.09L160.231 132.706L164.184 132.137Z" fill="black"/>
<path d="M154.157 131.322L156.629 140.09L160.231 132.706L154.157 131.322Z" fill="black"/>
<path d="M154.157 131.322L145.67 137.517L153.736 133.712L154.157 131.322Z" fill="black"/>
<path d="M156.629 140.09L145.67 137.517L153.736 133.712L156.629 140.09Z" fill="black"/>
<path d="M156.629 140.09L145.67 137.517L149.498 143.93L156.629 140.09Z" fill="black"/>
<path d="M142.278 145.533L145.67 137.517L145.916 142.663L142.278 145.533Z" fill="black"/>
<path d="M149.498 143.93L145.67 137.517L145.915 142.663L149.498 143.93Z" fill="black"/>
<path d="M156.629 140.09L151.595 145.17L149.498 143.931L156.629 140.09Z" fill="black"/>
<path d="M142.278 145.533L151.596 145.17L149.498 143.931L142.278 145.533Z" fill="black"/>
<path d="M142.278 145.533L145.089 148.048L138.012 151.358L142.278 145.533Z" fill="black"/>
<path d="M142.278 145.533L145.089 148.048L151.596 145.17L142.278 145.533Z" fill="black"/>
<path d="M134.566 158.566L145.089 148.047L138.013 151.357L134.566 158.566Z" fill="black"/>
<path d="M134.566 158.566L133.981 155.108L138.012 151.358L134.566 158.566Z" fill="black"/>
<path d="M134.566 158.566L145.089 148.048L151.596 145.17L134.566 158.566Z" fill="black"/>
<path d="M134.566 158.566L142.648 154.442L151.596 145.17L134.566 158.566Z" fill="black"/>
<path d="M134.566 158.566L142.648 154.441L140.317 158.457L134.566 158.566Z" fill="black"/>
<path d="M134.566 158.566L135.346 164.917L140.317 158.457L134.566 158.566Z" fill="black"/>
<path d="M134.189 155.361L132.727 156.851L135.415 164.327L134.189 155.361Z" fill="black"/>
<path d="M142.296 167.003L135.345 164.917L140.316 158.457L142.296 167.003Z" fill="black"/>
<path d="M142.296 167.003L135.345 164.917L145.583 171.186L142.296 167.003Z" fill="black"/>
<path d="M145.93 173.081L135.345 164.917L145.583 171.186L145.93 173.081Z" fill="black"/>
<path d="M145.93 173.081L135.345 164.917L141.478 172.387L145.93 173.081Z" fill="black"/>
<path d="M137.345 169.775L135.345 164.917L141.478 172.387L137.345 169.775Z" fill="black"/>
<path d="M144.836 97.7892L142.691 96.1322L146.243 90.2803L144.836 97.7892Z" fill="black"/>
<path d="M144.836 97.7893L148.391 96.3896L149.947 102.214L144.836 97.7893Z" fill="black"/>
<path d="M144.836 97.7892L148.391 96.3895L146.243 90.2803L144.836 97.7892Z" fill="black"/>
<path d="M151.096 95.1692L148.391 96.3895L146.242 90.2803L151.096 95.1692Z" fill="black"/>
<path d="M153.183 102.078L148.391 96.3896L149.947 102.214L153.183 102.078Z" fill="black"/>
<path d="M153.183 102.078L148.391 96.3897L151.097 95.1694L153.183 102.078Z" fill="black"/>
<path d="M153.183 102.078L157.397 96.1205L155.027 94.561L153.183 102.078Z" fill="black"/>
<path d="M153.182 102.078L151.096 95.1692L155.026 94.561L153.182 102.078Z" fill="black"/>
<path d="M157.463 87.5161L151.096 95.1693L155.026 94.5611L157.463 87.5161Z" fill="#232323"/>
<path d="M157.463 87.5161L160.714 88.6L155.026 94.5611L157.463 87.5161Z" fill="black"/>
<path d="M157.396 96.1207L160.714 88.6001L155.026 94.5612L157.396 96.1207Z" fill="black"/>
<path d="M157.463 87.5162L160.715 88.6001L162.543 85.5552L157.463 87.5162Z" fill="black"/>
<path d="M157.463 87.5163L159.701 80.5415L162.543 85.5552L157.463 87.5163Z" fill="black"/>
<path d="M164.442 83.1146L159.701 80.5415L162.544 85.5552L164.442 83.1146Z" fill="black"/>
<path d="M164.442 83.1148L159.701 80.5417L164.711 80.1362L164.442 83.1148Z" fill="black"/>
<path d="M160.988 76.479L159.701 80.5415L164.711 80.136L160.988 76.479Z" fill="black"/>
<path d="M160.987 76.479L159.701 80.5415L158.547 78.4401L160.987 76.479Z" fill="#232323"/>
<path d="M157.194 81.3524L159.701 80.5415L157.463 87.5163L157.194 81.3524Z" fill="black"/>
<path d="M112.328 93.0601L107.993 88.7715L110.363 87.7812L112.328 93.0601Z" fill="black"/>
<path d="M136.551 59.5317L131.354 55.7655L134.734 55.4497L136.551 59.5317Z" fill="black"/>
<g clip-path="url(#clip0_776_24600)">
<path d="M37.3771 143.345C40.957 143.345 43.8591 140.443 43.8591 136.863C43.8591 133.283 40.957 130.381 37.3771 130.381C33.7971 130.381 30.895 133.283 30.895 136.863C30.895 140.443 33.7971 143.345 37.3771 143.345Z" fill="black"/>
<path d="M29.1577 193.341C29.2012 193.131 29.223 192.913 29.223 192.691V182.261H22.741V192.691C22.741 193.029 22.8076 193.349 22.9031 193.656C21.418 194.717 20.4421 196.445 20.4421 198.409C20.4421 201.638 23.0604 204.258 26.2905 204.258C29.5205 204.258 32.1376 201.638 32.1376 198.409C32.1375 196.226 30.9282 194.346 29.1577 193.341Z" fill="black"/>
<path d="M39.4407 201.118C39.4407 202.907 40.8919 204.359 42.6816 204.359C44.4714 204.359 45.9226 202.908 45.9226 201.118V182.261H39.4407V201.118Z" fill="black"/>
<path d="M29.4536 155.523L24.7227 153.36L23.9451 154.759L28.6761 156.921L29.4536 155.523Z" fill="black"/>
<path d="M52.1919 155.761L51.4699 154.276L46.7522 156.432L47.4742 157.917L52.1919 155.761Z" fill="black"/>
<path d="M50.9512 178.103C52.3843 178.103 53.5453 176.943 53.5453 175.509V159.142C53.5453 158.75 53.4559 158.363 53.2843 158.009L52.7073 156.823L47.9897 158.979L48.3585 159.738V175.509C48.3571 176.943 49.5195 178.103 50.9512 178.103Z" fill="black"/>
<path d="M42.6184 173.802L41.7925 175.027V175.041H43.0102V173.823C43.0102 173.567 43.0248 173.313 43.0382 173.045H43.0102C42.8735 173.328 42.7563 173.555 42.6184 173.802Z" fill="black"/>
<path d="M45.9259 169H29.6496L27.3966 171.691V159.223L28.1004 157.958L23.3694 155.793L22.5374 157.288C22.3221 157.674 22.2097 158.108 22.2097 158.549V172.38C22.2097 173.764 23.2957 174.881 24.6599 174.959L23.4965 176.347C23.008 176.931 22.7406 177.669 22.7406 178.431V179.905H29.2227V179.609L34.0442 173.851H39.4427V179.905H45.9249V169.001H45.9259V169ZM44.3891 175.682H43.8096V176.816H43.0115V175.682H40.981V175.131L42.8119 172.342H43.8096V175.04H44.3891V175.682Z" fill="black"/>
<path d="M45.9227 154.732L46.2337 155.372L50.9512 153.214L47.8505 146.827C47.466 146.035 46.7307 145.532 45.9227 145.402V145.327H30.6888V145.38C29.7793 145.382 28.8966 145.85 28.4225 146.7L25.2939 152.326L30.0249 154.489L30.6889 153.295V166.644H45.9228V154.732H45.9227ZM39.1456 153.678H36.4766C34.5236 153.678 32.9405 153.216 32.9405 152.647C32.9405 152.076 34.5236 151.614 36.4766 151.614H39.1456C41.0986 151.614 42.6817 152.076 42.6817 152.647C42.6817 153.216 41.0987 153.678 39.1456 153.678Z" fill="black"/>
</g>
<g clip-path="url(#clip1_776_24600)">
<path d="M240.363 198.296C239.734 197.895 238.897 198.08 238.497 198.71C237.63 200.071 234.725 199.329 232.867 198.82C232.827 198.809 205.819 191.281 205.819 191.281C205.1 191.081 204.355 191.502 204.154 192.221C203.954 192.941 204.375 193.686 205.094 193.887L209.905 195.226C209.658 195.516 209.466 195.862 209.357 196.253C208.956 197.692 209.798 199.183 211.236 199.583C212.675 199.984 214.166 199.143 214.566 197.704C214.675 197.313 214.69 196.918 214.627 196.541L228.269 200.341C228.022 200.631 227.83 200.976 227.721 201.368C227.32 202.806 228.162 204.298 229.6 204.698C231.039 205.099 232.53 204.257 232.931 202.819C233.035 202.443 233.053 202.065 233.001 201.702C233.009 201.705 233.016 201.707 233.025 201.71C235.02 202.265 239.008 202.941 240.777 200.163C241.178 199.533 240.993 198.697 240.363 198.296Z" fill="black"/>
<path d="M225.862 154.067C226.591 154.557 227.417 154.897 228.278 155.065L228.287 155.067C230.422 155.482 232.667 154.794 234.207 153.259C235.768 151.7 236.453 149.396 235.998 147.237C235.556 145.134 234.069 143.333 232.083 142.507C230.052 141.662 227.683 141.897 225.859 143.126C224.034 144.356 222.928 146.463 222.949 148.664C222.97 150.814 224.08 152.867 225.862 154.067Z" fill="black"/>
<path d="M254.885 153.186C254.749 151.712 253.443 150.628 251.968 150.764L240.037 151.869C239.363 151.948 237.347 152.729 235.591 153.332C235.339 153.708 235.05 154.062 234.727 154.385C233.061 156.047 230.631 156.791 228.321 156.342L228.312 156.34C227.38 156.158 226.487 155.791 225.698 155.26C225.287 154.983 224.91 154.662 224.57 154.309C220.617 153.962 216.049 153.596 213.033 154.09L203.02 157.485C202 157.83 201.377 158.891 201.606 159.97C201.854 161.132 202.996 161.873 204.158 161.626L213.876 159.557L221.35 160.558C221.35 160.558 218.418 171.529 218.418 171.53C217.146 176.701 221.62 180.469 221.62 180.469L216.08 189.242C215.339 190.422 215.621 192 216.763 192.837C217.957 193.713 219.635 193.454 220.51 192.26L227.994 182.051C228.409 181.482 228.605 180.783 228.556 180.088L232.372 180.8L225.66 191.276C224.898 192.469 225.193 194.07 226.358 194.903C227.562 195.764 229.236 195.486 230.098 194.282L240.077 180.332C240.299 180.017 240.476 179.643 240.568 179.245C240.953 177.597 239.929 175.949 238.28 175.564L238.134 175.531L231.742 174.039L234.757 162.754C234.899 162.223 234.972 161.69 234.984 161.164C235.057 161.13 235.128 161.095 235.199 161.056L241.329 157.691L252.594 156.087C253.997 155.885 255.017 154.614 254.885 153.186Z" fill="black"/>
</g>
<g clip-path="url(#clip2_776_24600)">
<path d="M191.032 3.07861C190.133 3.07861 189.405 3.9024 189.405 4.91938C189.405 7.99716 189.405 14.1635 189.405 17.2398C189.405 18.2568 190.133 19.0806 191.032 19.0806C191.929 19.0806 192.658 18.2568 192.658 17.2398C192.658 16.0339 192.658 14.3485 192.658 12.5631C192.783 12.5631 193.902 12.5631 195.743 12.5631C195.881 13.1167 196.163 13.6408 196.606 14.0647L215.322 32.0196V42.7466H205.026C202.806 42.7466 201.003 44.5481 201.003 46.7684V66.8732C201.003 69.0947 202.804 70.8962 205.026 70.8962C207.246 70.8962 209.045 69.0947 209.045 66.8732V50.7915H222.754L241.005 69.6701C241.794 70.4856 242.843 70.8976 243.896 70.8976C244.904 70.8976 245.91 70.5222 246.69 69.7658C248.288 68.2222 248.33 65.678 246.786 64.0802L228.48 45.1438V32.9921C228.749 32.8516 229.008 32.6816 229.235 32.456L248.894 12.9089C249.002 12.8009 249.089 12.6821 249.178 12.5632C251.466 12.5632 252.958 12.5632 253.317 12.5632C253.317 14.3486 253.317 16.0326 253.317 17.2414C253.317 18.257 254.045 19.0807 254.943 19.0807C255.841 19.0807 256.571 18.257 256.571 17.24C256.571 14.1622 256.571 7.99589 256.571 4.91952C256.571 3.90254 255.841 3.07875 254.943 3.07875C254.045 3.07875 253.317 3.90254 253.317 4.91952C253.317 6.12688 253.317 7.81088 253.317 9.59629C252.981 9.59629 251.652 9.59629 249.611 9.59629C249.46 9.19252 249.229 8.81163 248.905 8.48624C247.687 7.26137 245.706 7.25727 244.484 8.47409L243.355 9.59629C231.505 9.59629 212.031 9.59629 200.981 9.59629L200.934 9.5518C199.707 8.3741 197.768 8.40249 196.569 9.59629C194.236 9.59629 192.799 9.59629 192.657 9.59629C192.657 7.81088 192.657 6.12688 192.657 4.91811C192.658 3.90113 191.929 3.07861 191.032 3.07861ZM216.921 12.5632C215.935 13.8029 215.322 15.3506 215.322 17.0577C215.322 21.0701 218.573 24.3179 222.581 24.3179C226.594 24.3179 229.843 21.0699 229.843 17.0577C229.843 15.3506 229.23 13.8016 228.244 12.5632C232.552 12.5632 236.713 12.5632 240.371 12.5632L226.414 26.4408H218.54L204.075 12.5632C207.858 12.5632 212.289 12.5632 216.921 12.5632Z" fill="black"/>
<path d="M258.773 16.6242C259.451 16.6242 259.999 16.0759 259.999 15.3979C259.999 13.2655 259.999 8.89658 259.998 6.76418C259.998 6.08487 259.449 5.53662 258.771 5.53662C258.72 5.53662 258.667 5.53662 258.613 5.53662C257.937 5.53662 257.387 6.0836 257.387 6.7629C257.387 8.89531 257.387 13.2655 257.387 15.398C257.387 16.0773 257.937 16.6256 258.613 16.6256C258.667 16.6242 258.72 16.6242 258.773 16.6242Z" fill="black"/>
<path d="M187.404 16.6242C188.082 16.6242 188.631 16.0759 188.631 15.3979C188.631 13.2655 188.631 8.89658 188.631 6.76418C188.631 6.08487 188.082 5.53662 187.404 5.53662C187.352 5.53662 187.299 5.53662 187.244 5.53662C186.568 5.53662 186.019 6.0836 186.019 6.7629C186.019 8.89531 186.019 13.2655 186.019 15.398C186.019 16.0773 186.568 16.6256 187.245 16.6256C187.299 16.6242 187.352 16.6242 187.404 16.6242Z" fill="black"/>
</g>
<g clip-path="url(#clip3_776_24600)">
<path d="M19.0336 55.9808C17.6664 57.1358 17.4933 59.1881 18.6482 60.5584C19.7621 61.8723 21.9073 62.0564 23.2236 60.9437L31.3299 54.0984C31.8625 53.6481 32.2413 53.0268 32.3982 52.3481L33.5987 47.1417L38.7748 49.9484V59.543C38.7748 61.3333 40.2317 62.7903 42.0221 62.7903C43.8125 62.7903 45.2694 61.3334 45.2694 59.543V48.0153C45.2694 46.8236 44.6188 45.7303 43.5701 45.161L38.8843 42.6194L36.0786 26.2641L40.4105 20.6182C40.7352 20.1949 40.9139 19.6689 40.9139 19.1352V13.2015C40.9139 11.8582 39.8216 10.766 38.4784 10.766C37.1351 10.766 36.0429 11.8581 36.0429 13.2015V18.3094L33.5359 21.5772L25.3128 22.9876L22.8568 20.1224L23.5561 11.5041C23.6643 10.1663 22.6631 8.98858 21.3242 8.87924C19.9842 8.78834 18.8086 9.79498 18.7014 11.1112L17.921 20.7404C17.868 21.392 18.0737 22.0253 18.4989 22.5221L24.592 29.6315L27.4723 44.8103L26.313 49.8339L19.0336 55.9808Z" fill="black"/>
<path d="M31.3824 19.976C34.1436 18.9921 35.5605 15.9559 34.5863 13.2239C33.5916 10.4723 30.5705 9.03056 27.8136 10.0275C25.0556 10.9973 23.643 14.0443 24.6139 16.7991C25.6 19.529 28.633 20.9686 31.3824 19.976Z" fill="black"/>
<path d="M39.7604 8.82932C42.1988 8.82932 44.1755 6.85259 44.1755 4.41417C44.1755 1.97575 42.1988 -0.000976562 39.7604 -0.000976562C37.3219 -0.000976562 35.3452 1.97575 35.3452 4.41417C35.3452 6.85259 37.3219 8.82932 39.7604 8.82932Z" fill="black"/>
<path d="M53.7606 23.5984H54.8636C55.7003 25.3606 56.8597 28.8124 56.0684 33.3835C56.0175 33.6779 56.2145 33.9582 56.509 34.009C56.5403 34.0144 56.5718 34.0166 56.602 34.0166C56.8607 34.0166 57.0891 33.8315 57.1346 33.5685C57.2709 32.7815 57.3445 32.0325 57.3835 31.3106H61.2683V33.8359C61.2683 34.1347 61.5108 34.3771 61.8094 34.3771C62.1083 34.3771 62.3506 34.1345 62.3506 33.8359V31.3106H65.967C66.006 32.0325 66.0796 32.7805 66.216 33.5685C66.2614 33.8315 66.4898 34.0166 66.7485 34.0166C66.7788 34.0166 66.8102 34.0143 66.8415 34.009C67.136 33.9582 67.333 33.6778 67.2822 33.3835C66.4941 28.8254 67.6545 25.3649 68.4902 23.5984H69.8584C70.7557 23.5984 71.482 22.872 71.482 21.9747C71.482 21.0774 70.7557 20.3511 69.8584 20.3511H53.7606C52.8632 20.3511 52.137 21.0774 52.137 21.9747C52.137 22.872 52.8633 23.5984 53.7606 23.5984ZM62.353 23.5984H67.291C66.9804 24.3128 66.6599 25.2199 66.4067 26.285H62.352V23.5984H62.353ZM62.353 27.3674H66.1869C66.0386 28.2355 65.9487 29.1913 65.9434 30.2283H62.3519V27.3674H62.353ZM61.2705 30.2283H57.4106C57.4052 29.1913 57.3153 28.2356 57.167 27.3674H61.2705V30.2283ZM61.2705 23.5984V26.285H56.9474C56.6941 25.2199 56.3737 24.3128 56.0631 23.5984H61.2705Z" fill="black"/>
</g>
<defs>
<clipPath id="clip0_776_24600">
<rect width="73.9788" height="73.9788" fill="white" transform="translate(0 130.381)"/>
</clipPath>
<clipPath id="clip1_776_24600">
<rect width="62.7913" height="62.7913" fill="white" transform="translate(196.817 142.007)"/>
</clipPath>
<clipPath id="clip2_776_24600">
<rect width="73.9788" height="73.9788" fill="white" transform="translate(186.021)"/>
</clipPath>
<clipPath id="clip3_776_24600">
<rect width="62.7913" height="62.7913" fill="white" transform="translate(13.2869)"/>
</clipPath>
</defs>
</svg>
