<svg width="187" height="253" viewBox="0 0 187 253" fill="none" xmlns="http://www.w3.org/2000/svg">
<g filter="url(#filter0_f_776_24552)">
<ellipse cx="93.5093" cy="170.673" rx="30.4385" ry="18.4805" fill="black"/>
</g>
<path d="M141.798 20.3295C128.619 7.23821 110.916 -0.0620872 92.5001 0.000397835C74.0846 -0.0620872 56.3814 7.23821 43.2019 20.3295C36.7431 26.6995 31.6067 34.3245 28.0973 42.7526C24.5878 51.1807 22.7767 60.2401 22.7714 69.3939C22.7068 88.7587 30.0316 107.393 43.2019 121.368L92.5001 173.484L141.798 121.368C154.969 107.393 162.293 88.7587 162.229 69.3939C162.223 60.2401 160.412 51.1807 156.903 42.7526C153.393 34.3245 148.257 26.6995 141.798 20.3295V20.3295ZM92.5001 94.6279C79.6313 94.6279 69.2572 84.0612 69.2572 70.9631C69.2531 67.8557 69.8516 64.7779 71.0183 61.9063C72.185 59.0347 73.897 56.4257 76.0562 54.2287C78.2154 52.0318 80.7794 50.2901 83.6012 49.1036C86.4229 47.9171 89.447 47.309 92.5001 47.3142C105.369 47.3142 115.743 57.8809 115.743 70.9631C115.748 74.0716 115.15 77.1506 113.984 80.0236C112.818 82.8965 111.106 85.507 108.947 87.7054C106.788 89.9038 104.224 91.6469 101.401 92.8348C98.579 94.0227 95.5542 94.6321 92.5001 94.6279V94.6279Z" fill="#F73354"/>
<defs>
<filter id="filter0_f_776_24552" x="0.0708008" y="89.1924" width="186.877" height="162.961" filterUnits="userSpaceOnUse" color-interpolation-filters="sRGB">
<feFlood flood-opacity="0" result="BackgroundImageFix"/>
<feBlend mode="normal" in="SourceGraphic" in2="BackgroundImageFix" result="shape"/>
<feGaussianBlur stdDeviation="31.5" result="effect1_foregroundBlur_776_24552"/>
</filter>
</defs>
</svg>
