<svg xmlns="http://www.w3.org/2000/svg" viewBox="0 0 216.39 180.99"><defs><style>.cls-1{fill:#f6163c;}</style></defs><title>Recurso 1</title><g id="Capa_2" data-name="Capa 2"><g id="Capa_1-2" data-name="Capa 1"><path d="M128.44,122.75a46.64,46.64,0,0,1-2.21,25.72,43.45,43.45,0,0,1-15.74,19.66Q99.44,176,83.68,178.77l-5.73,1Q62.18,182.57,49.1,179a43.68,43.68,0,0,1-21.31-13.11,46.65,46.65,0,0,1-10.88-23.41L0,46.67,31.52,41.1l16.8,95.16A21.3,21.3,0,0,0,57.89,151q8.07,5.11,18.72,3.23,10.85-1.91,16.31-9.21a21.58,21.58,0,0,0,3.9-17.36L80,32.54,111.53,27Z"/><ellipse class="cls-1" cx="40.29" cy="90.49" rx="8.6" ry="8.33" transform="translate(-38.59 30.57) rotate(-28.78)"/><ellipse class="cls-1" cx="90.53" cy="81.54" rx="8.6" ry="8.33" transform="translate(-28.07 53.66) rotate(-28.78)"/><path d="M180,0c-20.11,0-36.4,15.12-36.4,33.77a31.78,31.78,0,0,0,5.2,17.39c-.87,4.26-3.32,10.83-10.32,13.52,0,0,13.24,1.33,21.85-2.51A38.2,38.2,0,0,0,180,67.54c20.1,0,36.4-15.12,36.4-33.77S200.09,0,180,0Z"/></g></g></svg>