<svg width="229" height="167" viewBox="0 0 229 167" fill="none" xmlns="http://www.w3.org/2000/svg">
<path d="M179.829 0C153.099 0 131.436 20.0979 131.436 44.8977C131.436 53.3595 133.96 61.2633 138.348 68.0144C137.194 73.6769 133.931 82.4131 124.623 85.9991C124.623 85.9991 142.233 87.7555 153.68 82.6601C161.223 87.17 170.196 89.7955 179.839 89.7955C206.57 89.7955 228.233 69.6976 228.233 44.8977C228.223 20.0979 206.56 0 179.829 0Z" fill="#08D140"/>
<circle cx="181.004" cy="44.4347" r="29.6231" fill="white"/>
<path d="M216.014 43.7618C216.014 64.2124 199.435 80.7907 178.985 80.7907C158.534 80.7907 141.956 64.2124 141.956 43.7618C141.956 23.3113 158.534 6.73291 178.985 6.73291C199.435 6.73291 216.014 23.3113 216.014 43.7618ZM174.702 63.3683L202.175 35.8953C203.108 34.9624 203.108 33.4497 202.175 32.5168L198.796 29.1384C197.863 28.2053 196.351 28.2053 195.418 29.1384L173.012 51.5436L162.552 41.083C161.619 40.1502 160.106 40.1502 159.173 41.083L155.795 44.4615C154.862 45.3944 154.862 46.907 155.795 47.8399L171.323 63.3682C172.256 64.3012 173.769 64.3012 174.702 63.3683Z" fill="#08D140"/>
<g clip-path="url(#clip0_776_24580)">
<path d="M98.7049 70.2493C98.7049 40.7757 80.1667 19.9088 56.7316 19.9088C33.2964 19.9088 14.7582 40.7757 14.7582 70.2493C14.7582 89.2488 28.3995 114.419 56.7316 144.461C85.0636 114.419 98.7049 89.2488 98.7049 70.2493ZM56.7316 3.66992C86.1129 3.66992 112.696 29.8145 112.696 70.2493C112.696 97.2058 94.0179 129.115 56.7316 166.059C19.4452 129.115 0.76709 97.2058 0.76709 70.2493C0.76709 29.8145 27.3502 3.66992 56.7316 3.66992Z" fill="black"/>
<path d="M46.9922 43.4135C46.9922 38.2796 51.1648 34.1177 56.3118 34.1177C61.4589 34.1177 65.6315 38.2796 65.6315 43.4135C65.6315 48.5474 61.4589 52.7092 56.3118 52.7092C51.1648 52.7092 46.9922 48.5474 46.9922 43.4135ZM56.3118 38.7702C53.7409 38.7702 51.6567 40.8491 51.6567 43.4135C51.6567 45.9779 53.7409 48.0567 56.3118 48.0567C58.8828 48.0567 60.967 45.9779 60.967 43.4135C60.967 40.8491 58.8828 38.7702 56.3118 38.7702Z" fill="black"/>
<path d="M70.3093 45.7391C70.3093 41.8848 73.442 38.7603 77.306 38.7603C81.1701 38.7603 84.3028 41.8848 84.3028 45.7391C84.3028 49.5934 81.1701 52.7179 77.306 52.7179C73.442 52.7179 70.3093 49.5934 70.3093 45.7391ZM77.306 43.4128C76.0182 43.4128 74.9738 44.4543 74.9738 45.7391C74.9738 47.0238 76.0182 48.0653 77.306 48.0653C78.5939 48.0653 79.6383 47.0238 79.6383 45.7391C79.6383 44.4543 78.5939 43.4128 77.306 43.4128Z" fill="black"/>
<path d="M35.3229 38.7603C31.4587 38.7603 28.3262 41.8848 28.3262 45.7391C28.3262 49.5934 31.4587 52.7179 35.3229 52.7179C39.1871 52.7179 42.3196 49.5934 42.3196 45.7391C42.3196 41.8848 39.1871 38.7603 35.3229 38.7603ZM32.9907 45.7391C32.9907 44.4543 34.0348 43.4128 35.3229 43.4128C36.6109 43.4128 37.6551 44.4543 37.6551 45.7391C37.6551 47.0238 36.6109 48.0653 35.3229 48.0653C34.0348 48.0653 32.9907 47.0238 32.9907 45.7391Z" fill="black"/>
<path d="M38.9024 57.3696C38.1086 58.7383 37.6543 60.3273 37.6543 62.0222H28.3254V73.6549C28.3254 77.5096 31.4579 80.6337 35.3221 80.6337C36.3107 80.6337 37.2514 80.4295 38.1039 80.0605C38.4496 81.6024 38.9871 83.0717 39.6901 84.4428C38.341 84.9866 36.8666 85.2863 35.3221 85.2863C28.8818 85.2863 23.6609 80.0787 23.6609 73.6549V62.0222C23.6609 59.4527 25.7493 57.3696 28.3254 57.3696H38.9024Z" fill="black"/>
<path d="M72.9326 84.4428C74.2816 84.9866 75.756 85.2863 77.3004 85.2863C83.7407 85.2863 88.9616 80.0787 88.9616 73.6549V62.0222C88.9616 59.4527 86.8734 57.3696 84.2972 57.3696H73.72C74.5139 58.7383 74.9682 60.3273 74.9682 62.0222L84.2972 62.0222V73.6549C84.2972 77.5096 81.1645 80.6337 77.3004 80.6337C76.312 80.6337 75.3712 80.4295 74.5185 80.0605C74.1729 81.6024 73.6356 83.0717 72.9326 84.4428Z" fill="black"/>
<path d="M46.987 57.3696C44.4109 57.3696 42.3225 59.4527 42.3225 62.0222V75.9812C42.3225 83.69 48.5876 89.9388 56.316 89.9388C64.0443 89.9388 70.3094 83.69 70.3094 75.9812V62.0222C70.3094 59.4527 68.2211 57.3696 65.6449 57.3696H46.987ZM46.987 62.0222H65.6449V75.9812C65.6449 81.1204 61.4682 85.2863 56.316 85.2863C51.1637 85.2863 46.987 81.1204 46.987 75.9812V62.0222Z" fill="black"/>
</g>
<defs>
<clipPath id="clip0_776_24580">
<rect width="111.929" height="162.389" fill="white" transform="translate(0.76709 3.66992)"/>
</clipPath>
</defs>
</svg>
