<svg width="49" height="48" viewBox="0 0 49 48" fill="none" xmlns="http://www.w3.org/2000/svg">
<path d="M30.1306 36.0193C29.0073 37.2872 27.0809 38.0981 24.3491 38.0981C21.6378 38.0981 19.7094 37.2964 18.5742 36.0437" stroke="white" stroke-width="2" stroke-miterlimit="10" stroke-linecap="round" stroke-linejoin="round"/>
<path d="M9.6084 15.2016C10.3291 13.8159 11.5362 12.7475 12.9991 12.2016C14.4043 11.5014 16.0196 11.353 17.5293 11.7807" stroke="white" stroke-width="2" stroke-miterlimit="10" stroke-linecap="round" stroke-linejoin="round"/>
<path d="M39.2188 15.2018C37.6368 12.4294 34.4151 11.0319 31.3096 11.7712" stroke="white" stroke-width="2" stroke-miterlimit="10" stroke-linecap="round" stroke-linejoin="round"/>
<path d="M11.9844 22.2452C11.9844 22.2452 15.9166 20.0757 19.9844 22.2452" stroke="white" stroke-width="2" stroke-miterlimit="10" stroke-linecap="round" stroke-linejoin="round"/>
<path d="M29.2344 22.2452C29.2344 22.2452 33.1666 20.0757 37.2344 22.2452" stroke="white" stroke-width="2" stroke-miterlimit="10" stroke-linecap="round" stroke-linejoin="round"/>
<path d="M24.5001 47.0002C37.2027 47.0002 47.5002 36.7027 47.5002 24.0001C47.5002 11.2975 37.2027 1 24.5001 1C11.7975 1 1.5 11.2975 1.5 24.0001C1.5 36.7027 11.7975 47.0002 24.5001 47.0002Z" stroke="white" stroke-width="2" stroke-miterlimit="10" stroke-linecap="round" stroke-linejoin="round"/>
</svg>
