<svg width="33" height="46" viewBox="0 0 33 46" fill="none" xmlns="http://www.w3.org/2000/svg">
<g clip-path="url(#clip0_866_17113)">
<path d="M28.3594 18.86C28.3594 10.511 23.1215 4.6 16.5 4.6C9.87852 4.6 4.64062 10.511 4.64062 18.86C4.64062 24.242 8.49492 31.372 16.5 39.882C24.5051 31.372 28.3594 24.242 28.3594 18.86ZM16.5 0C24.8016 0 32.3125 7.406 32.3125 18.86C32.3125 26.496 27.0351 35.535 16.5 46C5.96492 35.535 0.6875 26.496 0.6875 18.86C0.6875 7.406 8.19844 0 16.5 0Z" fill="white"/>
<ellipse cx="16.5" cy="20.8438" rx="12.9375" ry="19.4062" fill="white"/>
<path d="M16.3841 8.625C14.9294 8.625 13.75 9.80435 13.75 11.2592C13.75 12.7139 14.9294 13.8933 16.3841 13.8933C17.8389 13.8933 19.0183 12.7139 19.0183 11.2592C19.0183 9.80435 17.8389 8.625 16.3841 8.625V8.625Z" fill="black"/>
<path d="M22.3182 9.94067C21.226 9.94067 20.3406 10.8261 20.3406 11.9183C20.3406 13.0104 21.226 13.8958 22.3182 13.8958C23.4103 13.8958 24.2957 13.0104 24.2957 11.9183C24.2957 10.8261 23.4103 9.94067 22.3182 9.94067Z" fill="black"/>
<path d="M10.4534 9.94067C9.36122 9.94067 8.47583 10.8261 8.47583 11.9183C8.47583 13.0104 9.36122 13.8958 10.4534 13.8958C11.5456 13.8958 12.431 13.0104 12.431 11.9183C12.431 10.8261 11.5456 9.94067 10.4534 9.94067Z" fill="black"/>
<path d="M12.429 16.5237C12.4336 15.7995 13.0221 15.2139 13.7473 15.2139H19.0209C19.749 15.2139 20.3393 15.8041 20.3393 16.5323V20.4878C20.3393 20.6243 20.3324 20.7593 20.3188 20.8922C20.2902 21.1744 20.2318 21.4479 20.1471 21.7094C19.6324 23.296 18.1422 24.443 16.3841 24.443C14.6093 24.443 13.1075 23.274 12.6068 21.664C12.4912 21.2924 12.429 20.8974 12.429 20.4878V16.5323C12.429 16.5294 12.429 16.5266 12.429 16.5237V16.5237Z" fill="black"/>
<path d="M11.1114 16.5323C11.1114 16.052 11.2398 15.6017 11.4642 15.2139H8.47464C7.74652 15.2139 7.15625 15.8041 7.15625 16.5323V19.8286C7.15625 21.6489 8.63191 23.1246 10.4522 23.1246C10.8888 23.1246 11.3055 23.0397 11.6868 22.8856C11.3189 22.1663 11.1114 21.3512 11.1114 20.4878V16.5323Z" fill="black"/>
<path d="M21.6588 16.5323V20.4878C21.6588 21.3512 21.4513 22.1663 21.0835 22.8856C21.4648 23.0397 21.8815 23.1246 22.318 23.1246C24.1383 23.1246 25.614 21.6489 25.614 19.8286V16.5323C25.614 15.8041 25.0238 15.2139 24.2956 15.2139H21.306C21.5304 15.6017 21.6588 16.052 21.6588 16.5323V16.5323Z" fill="black"/>
</g>
<defs>
<clipPath id="clip0_866_17113">
<rect width="31.625" height="46" fill="white" transform="translate(0.6875)"/>
</clipPath>
</defs>
</svg>
