<svg width="40" height="46" viewBox="0 0 40 46" fill="none" xmlns="http://www.w3.org/2000/svg">
<path d="M12.3319 0C8.10128 0 4.67163 3.42965 4.67163 7.66034C4.67163 11.891 8.10128 15.3206 12.3319 15.3206C16.5626 15.3206 19.9923 11.891 19.9923 7.66034C19.9923 3.42965 16.5626 0 12.3319 0V0Z" fill="white"/>
<path d="M29.5847 3.82617C26.4086 3.82617 23.8337 6.40096 23.8337 9.57715C23.8337 12.7533 26.4086 15.3281 29.5847 15.3281C32.7608 15.3281 35.3357 12.7533 35.3357 9.57715C35.3357 6.40096 32.7608 3.82617 29.5847 3.82617Z" fill="white"/>
<path d="M0.830887 22.9701C0.84423 20.8641 2.5556 19.1609 4.66479 19.1609H20.0007C22.1182 19.1609 23.8347 20.8774 23.8347 22.9949V34.498C23.8347 34.8948 23.8148 35.2874 23.7753 35.6739C23.6921 36.4947 23.5222 37.2899 23.2757 38.0506C21.7789 42.6644 17.4453 46 12.3328 46C7.17145 46 2.80416 42.6004 1.3479 37.9183C1.01185 36.8379 0.830811 35.6892 0.830811 34.498V22.9949C0.830811 22.9866 0.830849 22.9783 0.830887 22.9701V22.9701Z" fill="white"/>
<path d="M27.6673 22.9949V34.498C27.6673 37.0089 27.0638 39.3791 25.9941 41.4709C27.1029 41.9191 28.3149 42.166 29.5843 42.166C34.8779 42.166 39.1692 37.8746 39.1692 32.581V22.9949C39.1692 20.8774 37.4528 19.1609 35.3353 19.1609H26.6413C27.2939 20.2888 27.6673 21.5982 27.6673 22.9949V22.9949Z" fill="white"/>
</svg>
