<svg width="512" height="52" viewBox="0 0 512 52" fill="none" xmlns="http://www.w3.org/2000/svg">
<g clip-path="url(#clip0_847_20379)">
<path d="M26.1754 9.40532C28.6346 9.40532 30.6282 7.41174 30.6282 4.95254C30.6282 2.49333 28.6346 0.499756 26.1754 0.499756C23.7162 0.499756 21.7227 2.49333 21.7227 4.95254C21.7227 7.41174 23.7162 9.40532 26.1754 9.40532Z" fill="black"/>
<path d="M20.5291 43.7497C20.559 43.6051 20.5739 43.4554 20.5739 43.3034V36.1382H16.1212V43.3034C16.1212 43.5352 16.1669 43.7554 16.2325 43.9663C15.2123 44.6949 14.542 45.8822 14.542 47.2313C14.542 49.4493 16.3406 51.2487 18.5594 51.2487C20.7783 51.2487 22.5761 49.4493 22.5761 47.2313C22.576 45.7316 21.7453 44.4399 20.5291 43.7497Z" fill="black"/>
<path d="M27.5928 49.0921C27.5928 50.3208 28.5897 51.3185 29.8191 51.3185C31.0486 51.3185 32.0455 50.3216 32.0455 49.0921V36.1382H27.5928V49.0921Z" fill="black"/>
<path d="M20.7323 17.7709L17.4824 16.2847L16.9482 17.2459L20.1982 18.7312L20.7323 17.7709Z" fill="black"/>
<path d="M36.352 17.9344L35.856 16.9143L32.6152 18.3955L33.1112 19.4156L36.352 17.9344Z" fill="black"/>
<path d="M35.5002 33.2823C36.4846 33.2823 37.2822 32.4856 37.2822 31.5003V20.2571C37.2822 19.9879 37.2207 19.7221 37.1028 19.4787L36.7065 18.6638L33.4658 20.145L33.7191 20.6667V31.5005C33.7182 32.4857 34.5167 33.2823 35.5002 33.2823Z" fill="black"/>
<path d="M29.7754 30.3277L29.208 31.1693V31.1791H30.0445V30.3426C30.0445 30.1665 30.0545 29.9921 30.0637 29.8076H30.0445C29.9506 30.002 29.8701 30.1582 29.7754 30.3277Z" fill="black"/>
<path d="M32.0475 27.0293H20.8666L19.319 28.8776V20.3128L19.8024 19.4438L16.5525 17.9568L15.981 18.9836C15.8331 19.2486 15.7559 19.5468 15.7559 19.8501V29.3512C15.7559 30.3016 16.5019 31.0692 17.439 31.1224L16.6398 32.0762C16.3042 32.4774 16.1206 32.9841 16.1206 33.5076V34.5202H20.5733V34.3168L23.8855 30.3616H27.5939V34.5202H32.0468V27.0294H32.0475V27.0293ZM30.9918 31.6191H30.5937V32.3985H30.0454V31.6191H28.6506V31.2404L29.9083 29.3246H30.5937V31.178H30.9918V31.6191Z" fill="black"/>
<path d="M32.0457 17.2273L32.2593 17.6668L35.5 16.1847L33.37 11.7975C33.1059 11.2534 32.6008 10.9078 32.0457 10.8181V10.7666H21.5809V10.8032C20.9562 10.8048 20.3498 11.1264 20.0241 11.7103L17.875 15.575L21.1249 17.0604L21.581 16.2404V25.4102H32.0458V17.2273H32.0457ZM27.3903 16.5037H25.5568C24.2152 16.5037 23.1277 16.1864 23.1277 15.7951C23.1277 15.403 24.2152 15.0856 25.5568 15.0856H27.3903C28.7319 15.0856 29.8194 15.403 29.8194 15.7951C29.8194 16.1864 28.732 16.5037 27.3903 16.5037Z" fill="black"/>
</g>
<g clip-path="url(#clip1_847_20379)">
<path d="M80.7609 2.61523C80.143 2.61523 79.6431 3.18112 79.6431 3.87973C79.6431 5.99399 79.6431 10.2299 79.6431 12.3432C79.6431 13.0418 80.1431 13.6077 80.7609 13.6077C81.3769 13.6077 81.8779 13.0418 81.8779 12.3432C81.8779 11.5147 81.8779 10.357 81.8779 9.13049C81.9632 9.13049 82.7323 9.13049 83.9967 9.13049C84.0914 9.51079 84.2853 9.87082 84.5896 10.1621L97.4467 22.496V29.8648H90.3739C88.8487 29.8648 87.6102 31.1023 87.6102 32.6275V46.4383C87.6102 47.9644 88.8477 49.2019 90.3739 49.2019C91.899 49.2019 93.1347 47.9644 93.1347 46.4383V35.3912H102.552L115.089 48.3596C115.631 48.9199 116.352 49.2029 117.075 49.2029C117.767 49.2029 118.459 48.945 118.995 48.4254C120.092 47.365 120.121 45.6173 119.061 44.5197L106.485 31.5115V23.164C106.67 23.0675 106.848 22.9507 107.004 22.7958L120.509 9.36808C120.583 9.29387 120.642 9.21228 120.703 9.13059C122.275 9.13059 123.3 9.13059 123.547 9.13059C123.547 10.3571 123.547 11.5139 123.547 12.3442C123.547 13.0419 124.047 13.6077 124.664 13.6077C125.281 13.6077 125.782 13.0419 125.782 12.3433C125.782 10.229 125.782 5.99311 125.782 3.87983C125.782 3.18122 125.281 2.61533 124.664 2.61533C124.047 2.61533 123.547 3.18122 123.547 3.87983C123.547 4.70921 123.547 5.86602 123.547 7.09249C123.316 7.09249 122.403 7.09249 121.001 7.09249C120.897 6.81512 120.739 6.55347 120.516 6.32995C119.679 5.48854 118.318 5.48572 117.479 6.32161L116.703 7.09249C108.563 7.09249 95.1859 7.09249 87.5953 7.09249L87.5628 7.06193C86.7196 6.25292 85.3882 6.27242 84.5645 7.09249C82.9614 7.09249 81.9743 7.09249 81.8768 7.09249C81.8768 5.86602 81.8768 4.70921 81.8768 3.87886C81.8778 3.18025 81.3768 2.61523 80.7609 2.61523ZM98.5451 9.13059C97.8678 9.98219 97.4467 11.0454 97.4467 12.218C97.4467 14.9743 99.6797 17.2054 102.433 17.2054C105.189 17.2054 107.421 14.9742 107.421 12.218C107.421 11.0454 107 9.98132 106.323 9.13059C109.282 9.13059 112.141 9.13059 114.654 9.13059L105.066 18.6637H99.6574L89.7207 9.13059C92.3192 9.13059 95.3631 9.13059 98.5451 9.13059Z" fill="black"/>
<path d="M127.294 11.9202C127.76 11.9202 128.137 11.5436 128.137 11.0778C128.137 9.61297 128.137 6.6118 128.136 5.14697C128.136 4.68032 127.759 4.30371 127.293 4.30371C127.258 4.30371 127.222 4.30371 127.185 4.30371C126.72 4.30371 126.342 4.67945 126.342 5.1461C126.342 6.61093 126.342 9.61297 126.342 11.0779C126.342 11.5445 126.72 11.9212 127.185 11.9212C127.222 11.9202 127.258 11.9202 127.294 11.9202Z" fill="black"/>
<path d="M78.2687 11.9202C78.7344 11.9202 79.1111 11.5436 79.1111 11.0778C79.1111 9.61297 79.1111 6.6118 79.1111 5.14697C79.1111 4.68032 78.7345 4.30371 78.2687 4.30371C78.2325 4.30371 78.1963 4.30371 78.1583 4.30371C77.6945 4.30371 77.3169 4.67945 77.3169 5.1461C77.3169 6.61093 77.3169 9.61297 77.3169 11.0779C77.3169 11.5445 77.6945 11.9212 78.1593 11.9212C78.1963 11.9202 78.2325 11.9202 78.2687 11.9202Z" fill="black"/>
</g>
<g clip-path="url(#clip2_847_20379)">
<path d="M158.79 45.8073C157.683 46.7421 157.543 48.403 158.478 49.5121C159.379 50.5755 161.115 50.7245 162.181 49.8239L168.741 44.2838C169.172 43.9194 169.479 43.4165 169.606 42.8672L170.578 38.6535L174.767 40.9251V48.6903C174.767 50.1393 175.946 51.3185 177.395 51.3185C178.844 51.3185 180.023 50.1394 180.023 48.6903V39.3606C180.023 38.3961 179.497 37.5112 178.648 37.0505L174.855 34.9935L172.585 21.7566L176.091 17.1872C176.353 16.8447 176.498 16.4189 176.498 15.987V11.1846C176.498 10.0975 175.614 9.21349 174.527 9.21349C173.44 9.21349 172.556 10.0974 172.556 11.1846V15.3186L170.527 17.9633L163.872 19.1048L161.884 16.7859L162.45 9.81089C162.537 8.72813 161.727 7.775 160.643 7.6865C159.559 7.61294 158.608 8.42764 158.521 9.4929L157.889 17.2861C157.846 17.8135 158.013 18.326 158.357 18.7281L163.288 24.482L165.619 36.7667L164.681 40.8324L158.79 45.8073Z" fill="black"/>
<path d="M168.784 16.6676C171.019 15.8713 172.165 13.414 171.377 11.2028C170.572 8.97592 168.127 7.80906 165.895 8.61589C163.663 9.40082 162.52 11.8668 163.306 14.0964C164.104 16.3058 166.559 17.4709 168.784 16.6676Z" fill="black"/>
<path d="M175.564 7.6464C177.538 7.6464 179.137 6.04657 179.137 4.07308C179.137 2.09959 177.538 0.499756 175.564 0.499756C173.591 0.499756 171.991 2.09959 171.991 4.07308C171.991 6.04657 173.591 7.6464 175.564 7.6464Z" fill="black"/>
<path d="M186.895 19.5998H187.787C188.465 21.0261 189.403 23.8197 188.762 27.5192C188.721 27.7575 188.881 27.9843 189.119 28.0255C189.144 28.0299 189.17 28.0316 189.194 28.0316C189.404 28.0316 189.589 27.8818 189.625 27.6689C189.736 27.032 189.795 26.4258 189.827 25.8415H192.971V27.8854C192.971 28.1272 193.167 28.3234 193.409 28.3234C193.651 28.3234 193.847 28.1271 193.847 27.8854V25.8415H196.774C196.805 26.4258 196.865 27.0312 196.975 27.6689C197.012 27.8818 197.197 28.0316 197.406 28.0316C197.431 28.0316 197.456 28.0298 197.481 28.0255C197.72 27.9843 197.879 27.7574 197.838 27.5192C197.2 23.8302 198.139 21.0295 198.816 19.5998H199.923C200.649 19.5998 201.237 19.012 201.237 18.2858C201.237 17.5596 200.649 16.9717 199.923 16.9717H186.895C186.168 16.9717 185.581 17.5596 185.581 18.2858C185.581 19.012 186.168 19.5998 186.895 19.5998ZM193.849 19.5998H197.845C197.594 20.178 197.334 20.9122 197.13 21.7742H193.848V19.5998H193.849ZM193.849 22.6502H196.952C196.832 23.3528 196.759 24.1264 196.755 24.9656H193.848V22.6502H193.849ZM192.973 24.9656H189.849C189.844 24.1264 189.772 23.3529 189.652 22.6502H192.973V24.9656ZM192.973 19.5998V21.7742H189.474C189.269 20.9122 189.01 20.178 188.758 19.5998H192.973Z" fill="black"/>
</g>
<g clip-path="url(#clip3_847_20379)">
<path d="M266.199 46.056C265.69 45.7312 265.013 45.8815 264.688 46.3914C263.987 47.4925 261.636 46.8917 260.132 46.48C260.099 46.4711 238.242 40.3787 238.242 40.3787C237.659 40.2167 237.056 40.5571 236.894 41.1393C236.732 41.7217 237.072 42.3249 237.655 42.4873L241.548 43.5715C241.348 43.8064 241.193 44.0856 241.105 44.4027C240.78 45.567 241.461 46.7739 242.625 47.0979C243.79 47.4223 244.996 46.7411 245.321 45.5771C245.409 45.2602 245.421 44.9406 245.37 44.6359L256.411 47.7109C256.211 47.9457 256.056 48.225 255.968 48.5419C255.643 49.7063 256.324 50.9132 257.488 51.2372C258.653 51.5618 259.86 50.8805 260.184 49.7163C260.268 49.4123 260.283 49.1061 260.24 48.8129C260.247 48.8147 260.253 48.8166 260.26 48.8187C261.874 49.268 265.102 49.8151 266.534 47.5666C266.859 47.0572 266.709 46.3807 266.199 46.056Z" fill="black"/>
<path d="M254.464 10.2603C255.054 10.6572 255.722 10.9321 256.419 11.0683L256.426 11.0698C258.154 11.405 259.971 10.8488 261.217 9.60593C262.481 8.34452 263.035 6.47957 262.667 4.73211C262.309 3.03015 261.105 1.57297 259.499 0.904576C257.854 0.220572 255.937 0.410298 254.461 1.40551C252.984 2.40072 252.089 4.10619 252.106 5.88716C252.123 7.62712 253.021 9.28927 254.464 10.2603Z" fill="black"/>
<path d="M277.953 9.5476C277.842 8.35431 276.785 7.47659 275.592 7.5873L265.936 8.4816C265.39 8.54549 263.758 9.17698 262.337 9.66569C262.133 9.97 261.9 10.256 261.638 10.5178C260.289 11.8625 258.323 12.4645 256.454 12.1016L256.446 12.1002C255.692 11.9527 254.969 11.6553 254.331 11.226C253.998 11.0016 253.693 10.7417 253.417 10.4561C250.218 10.175 246.522 9.87877 244.08 10.2792L235.976 13.0265C235.151 13.3054 234.647 14.1647 234.832 15.0378C235.033 15.9781 235.957 16.5781 236.898 16.378L244.762 14.7035L250.811 15.514C250.811 15.514 248.439 24.3925 248.439 24.3935C247.409 28.5788 251.03 31.6281 251.03 31.6281L246.547 38.7289C245.947 39.6838 246.175 40.9607 247.099 41.6381C248.065 42.3467 249.423 42.1375 250.132 41.1709L256.188 32.9086C256.524 32.4481 256.683 31.8823 256.644 31.3202L259.732 31.8957L254.3 40.3747C253.683 41.3404 253.922 42.6358 254.865 43.3101C255.839 44.0071 257.194 43.7821 257.892 42.8076L265.968 31.5171C266.148 31.2627 266.291 30.9601 266.366 30.6377C266.677 29.304 265.848 27.9703 264.514 27.6587L264.396 27.6314L259.222 26.424L261.662 17.2909C261.777 16.861 261.836 16.4296 261.846 16.0037C261.905 15.9767 261.963 15.9484 262.02 15.9169L266.981 13.193L276.098 11.8954C277.234 11.7317 278.059 10.7033 277.953 9.5476Z" fill="black"/>
</g>
<g clip-path="url(#clip4_847_20379)">
<path d="M327.609 22.974C329.336 22.974 330.736 21.5741 330.736 19.8472C330.736 18.1204 329.336 16.7205 327.609 16.7205C325.882 16.7205 324.482 18.1204 324.482 19.8472C324.482 21.5741 325.882 22.974 327.609 22.974Z" fill="black"/>
<path d="M337.388 21.5694C336.961 20.8146 335.996 20.5773 335.27 21.0339L329.755 24.5053L325.607 23.8415L323.252 20.9138C322.543 20.0323 321.273 19.8727 320.367 20.5304L322.216 21.4643L316.672 20.1529C315.857 19.9602 315 20.1924 314.394 20.77L310.184 24.7822C309.603 25.3385 309.562 26.2537 310.091 26.8595C310.1 26.8691 310.108 26.8788 310.117 26.8886C310.687 27.5427 311.692 27.579 312.309 26.9683L316.178 23.219H316.178L321.778 24.4727L316.781 24.6472L313.412 27.8752C312.859 28.4052 312.132 28.6971 311.367 28.6971C311.092 28.6971 310.819 28.6571 310.558 28.5824L310.336 28.7648C310.785 28.882 311.197 29.1162 311.534 29.453C311.745 29.6642 312.027 29.7805 312.328 29.7805C312.629 29.7805 312.911 29.6642 313.122 29.4529C314.331 28.2434 315.942 27.5773 317.656 27.5773C319.333 27.5773 320.91 28.2168 322.11 29.3779L325.262 26.8421L329.84 27.5747C329.919 27.5874 329.999 27.5937 330.078 27.5937C330.361 27.5937 330.64 27.514 330.882 27.3617L336.842 23.6102C337.529 23.1774 337.788 22.2765 337.388 21.5694Z" fill="black"/>
<path d="M337.636 29.076C336.81 29.2981 336.03 29.7309 335.382 30.3749C335.072 30.6829 334.695 30.9194 334.271 31.0251C333.392 31.244 332.52 30.9957 331.912 30.3871C330.95 29.4258 329.672 28.8965 328.313 28.8965C326.961 28.8965 325.69 29.4197 324.731 30.3705C324.276 30.8217 323.662 31.0938 323.022 31.1031C322.355 31.1127 321.727 30.8576 321.256 30.3871C319.272 28.4027 316.043 28.4029 314.059 30.3871C313.597 30.8491 312.983 31.1034 312.33 31.1034C311.689 31.1034 311.086 30.8588 310.628 30.4138C310.118 29.919 309.305 29.8642 308.779 30.3418C308.215 30.8533 308.199 31.7251 308.731 32.2569C310.716 34.2413 313.944 34.2413 315.928 32.2569C316.399 31.7862 317.028 31.531 317.695 31.5409C318.335 31.5505 318.948 31.8223 319.403 32.2732C320.362 33.2242 321.634 33.7476 322.985 33.7476C324.337 33.7476 325.608 33.2242 326.568 32.2731C327.022 31.8222 327.635 31.5505 328.276 31.5409C328.943 31.5311 329.571 31.7862 330.042 32.2568C331.003 33.2181 332.281 33.7476 333.641 33.7476C335 33.7476 336.278 33.2182 337.239 32.2569C337.553 31.9437 337.93 31.7342 338.33 31.6276C338.9 31.4754 339.283 30.9396 339.283 30.3496C339.283 29.4883 338.468 28.8521 337.636 29.076Z" fill="black"/>
<path d="M337.636 34.717C336.81 34.9391 336.03 35.3719 335.382 36.0159C335.072 36.3239 334.695 36.5605 334.271 36.6662C333.392 36.8851 332.52 36.6368 331.912 36.0282C330.95 35.0669 329.672 34.5376 328.313 34.5376C326.961 34.5376 325.69 35.0608 324.731 36.0116C324.276 36.4628 323.663 36.7349 323.022 36.7442C322.355 36.7538 321.727 36.4987 321.256 36.0282C319.272 34.0438 316.043 34.044 314.059 36.0282C313.597 36.4902 312.983 36.7446 312.33 36.7446C311.689 36.7446 311.086 36.4999 310.628 36.0549C310.118 35.5601 309.305 35.5053 308.779 35.9829C308.215 36.4944 308.199 37.3662 308.731 37.898C310.716 39.8825 313.944 39.8823 315.929 37.898C316.399 37.4274 317.028 37.1721 317.695 37.182C318.335 37.1916 318.948 37.4634 319.403 37.9143C320.362 38.8653 321.634 39.3887 322.985 39.3887C324.337 39.3887 325.608 38.8653 326.568 37.9142C327.023 37.4633 327.635 37.1916 328.276 37.182C328.943 37.1722 329.571 37.4274 330.042 37.8979C331.003 38.8593 332.281 39.3887 333.641 39.3887C335 39.3887 336.278 38.8593 337.239 37.898C337.553 37.5848 337.93 37.3752 338.33 37.2686C338.9 37.1164 339.283 36.5806 339.283 35.9906C339.283 35.1293 338.468 34.4931 337.636 34.717Z" fill="black"/>
<path d="M348.171 10.4867C350.393 10.4867 352.194 8.68558 352.194 6.4638C352.194 4.24202 350.393 2.44092 348.171 2.44092C345.95 2.44092 344.148 4.24202 344.148 6.4638C344.148 8.68558 345.95 10.4867 348.171 10.4867Z" fill="black"/>
<path d="M357.957 16.3396C357.945 13.8195 355.884 11.7691 353.364 11.7691H348.145C348.144 11.7691 348.144 11.7692 348.143 11.7692C348.142 11.7692 348.142 11.7691 348.141 11.7691H344.795L337.829 7.7869L334.7 1.56845C334.218 0.610918 333.051 0.225204 332.093 0.70707C331.136 1.18905 330.75 2.35581 331.232 3.31357L334.624 10.0545C334.796 10.3952 335.063 10.6779 335.395 10.8672L342.981 15.2041V23.7504H353.263V15.6513H353.364C353.754 15.6513 354.073 15.9689 354.075 16.3591L354.147 30.6195C354.152 31.6882 355.02 32.5508 356.088 32.5508C356.091 32.5508 356.094 32.5508 356.098 32.5508C357.17 32.5454 358.034 31.672 358.029 30.6L357.957 16.3396Z" fill="black"/>
<path d="M342.985 48.9893C342.985 50.2758 344.028 51.3186 345.315 51.3186C346.601 51.3186 347.644 50.2758 347.644 48.9893V36.3542H342.985V48.9893Z" fill="black"/>
<path d="M348.651 48.9893C348.651 49.4869 348.809 49.9471 349.074 50.3255C349.496 50.9254 350.192 51.3186 350.981 51.3186C352.267 51.3186 353.31 50.2758 353.31 48.9893V36.3542H348.651V48.9893Z" fill="black"/>
<path d="M343.124 28.3052L342.79 33.8188C342.774 34.0935 342.925 34.3604 343.194 34.4816C343.284 34.5221 343.383 34.5382 343.482 34.5382H347.118C347.436 34.5382 347.712 34.3173 347.781 34.0069L348.17 32.2516L348.439 33.9651C348.491 34.295 348.776 34.5382 349.11 34.5382H352.859C352.957 34.5382 353.057 34.5221 353.146 34.4816C353.416 34.3603 353.567 34.0935 353.55 33.8188L353.216 28.3052H343.124Z" fill="black"/>
<path d="M353.262 25.4102H342.968L342.873 26.9776H353.246L353.262 25.4102Z" fill="black"/>
</g>
<path d="M401.887 28.7887V35.5244C401.887 36.0666 402.326 36.5062 402.869 36.5062C403.411 36.5062 403.851 36.0666 403.851 35.5244V29.4043L400.74 26.1207C400.06 25.4034 399.792 24.4014 400.023 23.4405L400.772 20.321H399.897L400.553 19.3255C400.691 19.3887 400.837 19.4387 400.99 19.4697C401.148 19.0036 401.415 18.5966 401.76 18.2753C402.212 17.8546 402.795 17.583 403.434 17.5157C403.529 17.5057 403.626 17.4992 403.724 17.4986V14.2851C403.724 13.7428 403.284 13.3033 402.742 13.3033C402.2 13.3033 401.76 13.7432 401.76 14.2851V15.47C401.643 15.4489 401.522 15.4359 401.399 15.4359C401.274 15.4359 401.153 15.4488 401.035 15.4702V12.6742C401.035 12.1319 400.596 11.6924 400.053 11.6924C399.511 11.6924 399.071 12.1319 399.071 12.6742V18.0057L398.596 18.7273L398.12 18.0057V12.6742C398.12 12.1319 397.68 11.6924 397.138 11.6924C396.596 11.6924 396.156 12.1319 396.156 12.6742V15.4702C396.038 15.449 395.917 15.4359 395.793 15.4359C395.542 15.4359 395.303 15.4834 395.081 15.5664V11.0006C395.081 10.4583 394.641 10.0188 394.099 10.0188C393.556 10.0188 393.117 10.4584 393.117 11.0006V16.3321L392.514 17.2468V12.6742C392.514 12.1319 392.074 11.6924 391.532 11.6924C390.99 11.6924 390.55 12.1319 390.55 12.6742V13.8929C390.328 13.81 390.089 13.7623 389.838 13.7623C388.713 13.7623 387.801 14.6744 387.801 15.7996C387.801 16.9248 388.713 17.837 389.838 17.837C390.089 17.837 390.328 17.7895 390.55 17.7065V18.3001C390.55 18.4195 390.574 18.5366 390.616 18.6471H389.838H388.085L386.559 16.332V11.0008C386.559 10.4585 386.119 10.019 385.577 10.019C385.035 10.019 384.595 10.4584 384.595 11.0006V16.6267C384.595 16.8188 384.652 17.0065 384.757 17.1669L387.405 21.1846V25.4771C387.393 25.5401 387.386 25.6051 387.386 25.6718V33.8509C387.386 34.3932 387.825 34.8327 388.368 34.8327C388.91 34.8327 389.35 34.3932 389.35 33.8509V27.1151H389.838H390.326V33.8507C390.326 34.393 390.766 34.8325 391.308 34.8325C391.851 34.8325 392.29 34.393 392.29 33.8507V25.6716C392.29 25.605 392.283 25.54 392.271 25.4769V21.2048L393.361 22.8581V27.1505C393.348 27.2135 393.341 27.2785 393.341 27.3452V35.5244C393.341 36.0666 393.781 36.5062 394.323 36.5062C394.865 36.5062 395.305 36.0666 395.305 35.5244V28.7887H395.793H396.281V35.5244C396.281 36.0666 396.721 36.5062 397.263 36.5062C397.805 36.5062 398.245 36.0666 398.245 35.5244V27.3452C398.245 27.2786 398.238 27.2136 398.225 27.1505V22.8581L398.596 22.2955L398.967 22.8581V27.1505C398.954 27.2135 398.947 27.2785 398.947 27.3452V35.5244C398.947 36.0666 399.387 36.5062 399.929 36.5062C400.471 36.5062 400.911 36.0666 400.911 35.5244V28.7887H401.399H401.887ZM395.792 20.3209H394.039L393.439 19.4104L394.037 18.5039C394.391 19.1055 395.043 19.5105 395.792 19.5105C396.094 19.5105 396.379 19.443 396.637 19.3253L397.294 20.3208H395.792V20.3209Z" fill="black"/>
<path d="M405.964 18.5339C406.065 18.3725 406.173 18.2163 406.291 18.0684C406.402 17.9306 406.518 17.7976 406.642 17.6726C406.86 17.4531 407.1 17.2548 407.356 17.0797C407.636 16.8883 407.938 16.7265 408.255 16.596V15.0214C408.255 14.4792 407.816 14.0396 407.274 14.0396C407.032 14.0396 406.813 14.1305 406.642 14.2752V12.6744C406.642 12.1322 406.203 11.6926 405.66 11.6926C405.118 11.6926 404.678 12.1322 404.678 12.6744V17.6545C404.904 17.7306 405.113 17.8338 405.307 17.9577C405.556 18.1167 405.776 18.3116 405.964 18.5339Z" fill="black"/>
<path d="M405.318 30.9531L404.55 30.1431V36.0067L405.318 35.069V30.9531Z" fill="black"/>
<path d="M432.958 10.7547C432.416 10.7547 431.976 11.1944 431.976 11.7366V17.0681L430.45 19.3832H428.698H427.92C427.961 19.2725 427.986 19.1556 427.986 19.0362V18.4426C428.208 18.5254 428.447 18.5731 428.697 18.5731C429.823 18.5731 430.735 17.661 430.735 16.5358C430.735 15.4106 429.823 14.4984 428.697 14.4984C428.447 14.4984 428.207 14.5459 427.986 14.629V13.4103C427.986 12.8681 427.546 12.4285 427.003 12.4285C426.461 12.4285 426.022 12.8681 426.022 13.4103V17.9832L425.419 17.0685V11.7365C425.419 11.1942 424.979 10.7546 424.437 10.7546C423.894 10.7546 423.455 11.1943 423.455 11.7365V16.3023C423.233 16.2194 422.993 16.1718 422.742 16.1718C422.618 16.1718 422.497 16.1846 422.379 16.206V13.4101C422.379 12.8679 421.939 12.4283 421.397 12.4283C420.855 12.4283 420.415 12.8679 420.415 13.4101V18.7417L419.939 19.4632L419.865 19.35V19.5765V22.9184V23.145L419.939 23.0318L420.31 23.5944V27.8868C420.298 27.9498 420.291 28.0148 420.291 28.0815V36.2607C420.291 36.8029 420.73 37.2425 421.273 37.2425C421.815 37.2425 422.255 36.8029 422.255 36.2607V29.525H422.743H423.231V36.2607C423.231 36.8029 423.67 37.2425 424.213 37.2425C424.755 37.2425 425.195 36.8029 425.195 36.2607V28.0814C425.195 28.0148 425.188 27.9498 425.175 27.8867V23.5943L426.265 21.941V26.2132C426.252 26.2762 426.245 26.3412 426.245 26.4079V34.587C426.245 35.1293 426.685 35.5688 427.227 35.5688C427.77 35.5688 428.209 35.1293 428.209 34.587V27.8513H428.697H429.185V34.587C429.185 35.1293 429.625 35.5688 430.168 35.5688C430.71 35.5688 431.149 35.1293 431.149 34.587V26.4079C431.149 26.3413 431.143 26.2763 431.13 26.2132V21.9207L433.778 17.903C433.884 17.7425 433.94 17.5548 433.94 17.3627V11.7366C433.94 11.1946 433.501 10.7547 432.958 10.7547ZM424.496 21.0571H422.743H421.242L421.898 20.0616C422.156 20.1795 422.441 20.2468 422.744 20.2468C423.492 20.2468 424.145 19.8418 424.499 19.2402L425.096 20.1467L424.496 21.0571Z" fill="black"/>
<path d="M419.572 24.5012C419.517 24.6139 419.457 24.7244 419.387 24.8301L415.532 30.6801V36.7667C415.552 36.9056 415.562 37.0457 415.562 37.1842V37.2314C415.598 37.2353 415.632 37.2423 415.669 37.2423C416.211 37.2423 416.651 36.8027 416.651 36.2605V29.5248H417.139H417.627V36.2605C417.627 36.8027 418.067 37.2423 418.609 37.2423C419.152 37.2423 419.591 36.8027 419.591 36.2605V28.0813C419.591 28.0147 419.584 27.9497 419.571 27.8866V24.5012H419.572Z" fill="black"/>
<path d="M413.859 13.41C413.859 12.8678 413.419 12.4282 412.877 12.4282C412.335 12.4282 411.895 12.8678 411.895 13.41V13.5387C411.724 13.3936 411.505 13.3029 411.264 13.3029C410.721 13.3029 410.282 13.7428 410.282 14.2848V16.2384C410.849 16.2587 411.393 16.3748 411.895 16.5736C412.014 16.6208 412.131 16.6738 412.245 16.7298C412.868 17.035 413.419 17.4642 413.859 17.9917V13.41H413.859Z" fill="black"/>
<path d="M392.672 9.10225C393.258 8.33354 393.284 7.25236 392.8 6.40664C392.276 5.49199 389.987 3.74985 391.251 2.7364C391.953 2.1738 390.959 1.19361 390.265 1.75011C389.441 2.41007 389.363 3.42316 389.649 4.38265C390.031 5.66099 392.54 6.99121 391.468 8.39817C390.922 9.11392 392.135 9.80733 392.672 9.10225Z" fill="black"/>
<path d="M429.03 3.14209C429.925 3.05148 429.624 1.68863 428.739 1.77815C427.689 1.88443 427.073 2.69188 426.791 3.6531C426.417 4.93363 427.799 7.41394 426.135 8.01191C425.288 8.31619 425.928 9.55716 426.763 9.25735C427.672 8.93047 428.282 8.03725 428.335 7.06436C428.393 6.01208 427.418 3.30535 429.03 3.14209Z" fill="black"/>
<path d="M401.713 8.94874C401.863 9.9116 402.558 10.74 403.496 10.9746C404.356 11.1899 404.87 9.89155 403.997 9.67287C402.282 9.24308 403.41 6.6378 402.911 5.40074C402.535 4.47215 401.842 3.72988 400.786 3.72852C399.896 3.72742 399.732 5.11342 400.632 5.11452C402.252 5.11707 401.551 7.90758 401.713 8.94874Z" fill="black"/>
<path d="M418.756 3.9502C419.166 3.03638 419.222 2.02193 418.492 1.2596C417.876 0.616693 416.762 1.45823 417.385 2.10789C418.505 3.27831 416.007 4.70533 415.368 5.54322C414.776 6.31803 414.661 7.39337 415.141 8.23236C415.581 9.00188 416.874 8.47364 416.427 7.69236C415.549 6.15732 418.21 5.16775 418.756 3.9502Z" fill="black"/>
<path d="M406.166 5.41181C406.54 6.31196 407.412 6.95186 408.378 6.95761C409.265 6.96317 409.457 5.57999 408.557 5.57416C406.788 5.56295 407.268 2.76442 406.489 1.68114C405.904 0.867772 405.055 0.311002 404.029 0.559853C403.164 0.769599 403.333 2.15505 404.207 1.94303C405.782 1.56146 405.762 4.43838 406.166 5.41181Z" fill="black"/>
<path d="M396.311 9.22621C397.57 9.22621 397.57 7.27368 396.311 7.27368C395.052 7.27368 395.052 9.22621 396.311 9.22621Z" fill="black"/>
<path d="M386.969 6.4369C388.228 6.4369 388.228 4.48438 386.969 4.48438C385.71 4.48438 385.71 6.4369 386.969 6.4369Z" fill="black"/>
<path d="M413.186 1.97363C411.927 1.97363 411.927 3.92616 413.186 3.92616C414.445 3.92616 414.445 1.97363 413.186 1.97363Z" fill="black"/>
<path d="M411.375 8.9474C412.635 8.9474 412.635 6.99487 411.375 6.99487C410.116 6.99487 410.116 8.9474 411.375 8.9474Z" fill="black"/>
<path d="M422.118 6.01844C423.377 6.01844 423.377 4.06592 422.118 4.06592C420.859 4.06592 420.859 6.01844 422.118 6.01844Z" fill="black"/>
<path d="M433.273 6.15796C432.014 6.15796 432.014 8.11048 433.273 8.11048C434.532 8.11048 434.532 6.15796 433.273 6.15796Z" fill="black"/>
<path d="M414.685 29.4278L418.221 24.0631C418.384 23.8157 418.471 23.5258 418.471 23.2296V21.0576V20.8032V19.7477V16.6723V12.5404C418.471 12.5033 418.468 12.4668 418.465 12.4303C418.409 11.6454 417.755 11.0256 416.956 11.0256C416.119 11.0256 415.441 11.704 415.441 12.5405V14.1076V17.0818V19.3378V21.0574V22.7751L414.704 23.8922L413.087 26.3471H409.435H409.101H407.049L404.517 23.6744L405.019 21.5827L405.216 20.7623C405.217 20.7594 405.217 20.7564 405.218 20.7536C405.227 20.7137 405.234 20.6739 405.24 20.6342C405.242 20.6144 405.246 20.5952 405.248 20.5753C405.267 20.4016 405.256 20.23 405.218 20.0663C405.181 19.9109 405.122 19.7626 405.041 19.6273C404.838 19.2918 404.507 19.0341 404.097 18.9353C404.087 18.9331 404.077 18.9322 404.068 18.93C403.958 18.9057 403.849 18.8926 403.741 18.8926C403.735 18.8926 403.729 18.8941 403.724 18.8941C403.047 18.9018 402.435 19.3662 402.27 20.0544L402.206 20.3207L402.107 20.7324L401.379 23.7658C401.26 24.2642 401.4 24.7895 401.753 25.1616L403.85 27.3763L404.57 28.1361L406.712 30.3977V30.3997V35.5671L406.514 35.8089L404.852 37.8407L401.68 41.7181C401.172 42.3388 401.236 43.2468 401.825 43.791L405.685 47.3542C405.976 47.6231 406.344 47.7558 406.712 47.7558C407.12 47.7558 407.527 47.5918 407.825 47.2685C408.393 46.6535 408.354 45.6953 407.74 45.1274L404.928 42.5325L407.482 39.4119H411.135V49.8043C411.135 50.6408 411.814 51.3192 412.65 51.3192C413.487 51.3192 414.165 50.6408 414.165 49.8043V37.1849C414.165 37.082 414.154 36.9814 414.135 36.8842V30.2626L414.685 29.4278Z" fill="black"/>
<path d="M406.708 21.9319C406.94 22.902 407.573 23.7157 408.426 24.1835C408.736 24.3535 409.075 24.4772 409.434 24.5466C409.651 24.5887 409.874 24.6124 410.103 24.6124C411.475 24.6124 412.659 23.8191 413.231 22.668C413.364 22.3994 413.467 22.113 413.528 21.8105C413.573 21.5868 413.597 21.3553 413.597 21.1182C413.597 20.8451 413.562 20.5808 413.503 20.3258C413.319 19.5328 412.866 18.8446 412.244 18.361C412.132 18.2742 412.015 18.1947 411.893 18.1219C411.682 17.9953 411.456 17.8895 411.218 17.8095C410.921 17.7093 410.607 17.6497 410.28 17.6332C410.221 17.6301 410.163 17.6243 410.103 17.6243C409.596 17.6243 409.114 17.735 408.679 17.9297C408.531 17.9958 408.389 18.0728 408.253 18.1582C407.368 18.7124 406.748 19.649 406.63 20.7386C406.628 20.7583 406.628 20.7781 406.625 20.7979C406.616 20.8919 406.612 20.987 406.611 21.0829C406.611 21.0946 406.609 21.1061 406.609 21.1181C406.609 21.2311 406.615 21.3424 406.626 21.4526C406.641 21.6164 406.671 21.7757 406.708 21.9319Z" fill="black"/>
<g clip-path="url(#clip5_847_20379)">
<path d="M466.811 20.4008C470.186 20.4008 472.922 17.6644 472.922 14.2889C472.922 10.9134 470.186 8.177 466.811 8.177C463.435 8.177 460.699 10.9134 460.699 14.2889C460.699 17.6644 463.435 20.4008 466.811 20.4008Z" fill="black"/>
<path d="M509.797 1.32014C508.197 -0.26063 505.618 0.656626 504.035 2.2555L489.421 17.1695L484.145 17.8085C483.607 17.9743 482.796 17.8484 482.333 17.5275L481.603 17.0226L491.951 8.96103C493.504 7.75193 493.783 5.51125 492.572 3.95778C491.363 2.40507 489.123 2.12772 487.569 3.33588L476.62 11.8662C475.945 12.3928 475.526 13.117 475.35 13.891C475.347 13.8982 475.34 13.9028 475.336 13.9101C475.336 13.9101 471.293 20.4316 471.296 20.6228C470.482 21.7015 470.311 23.1925 470.994 24.4587L476.935 35.4933C477.58 36.6889 478.808 37.3687 480.077 37.3687C480.648 37.3687 481.227 37.2318 481.765 36.9418C483.498 36.0081 484.146 33.8464 483.213 32.1124L480.593 27.246L486.689 27.5994V47.2447C486.689 49.4936 487.606 51.3182 489.856 51.3182C492.106 51.3182 493.024 49.4936 493.024 47.2447V23.3113C493.024 23.255 493.01 23.2025 493.008 23.1463L508.609 6.85827C510.19 5.2594 511.396 2.90356 509.797 1.32014Z" fill="black"/>
</g>
<defs>
<clipPath id="clip0_847_20379">
<rect width="50.819" height="50.819" fill="white" transform="translate(0.5 0.5)"/>
</clipPath>
<clipPath id="clip1_847_20379">
<rect width="50.819" height="50.819" fill="white" transform="translate(77.3188 0.5)"/>
</clipPath>
<clipPath id="clip2_847_20379">
<rect width="50.819" height="50.819" fill="white" transform="translate(154.138 0.5)"/>
</clipPath>
<clipPath id="clip3_847_20379">
<rect width="50.819" height="50.819" fill="white" transform="translate(230.957 0.5)"/>
</clipPath>
<clipPath id="clip4_847_20379">
<rect width="50.819" height="50.819" fill="white" transform="translate(307.776 0.5)"/>
</clipPath>
<clipPath id="clip5_847_20379">
<rect width="50.819" height="50.819" fill="white" transform="translate(460.217 0.5)"/>
</clipPath>
</defs>
</svg>
