<svg width="27" height="32" viewBox="0 0 27 32" fill="none" xmlns="http://www.w3.org/2000/svg">
<path d="M2.34982 31.6685L1.59941 31.143C0.77049 30.5626 0.569067 29.4202 1.14944 28.5913L7.25845 19.8668C-1.95453 5.57297 0.224778 1.18078 0.224778 1.18078L1.35036 0.392666L11.1224 14.3484L11.6584 13.583C11.1581 13.2327 10.6578 12.8824 10.5141 11.7566C10.3705 10.6309 10.771 8.86104 11.578 6.9099C13.3484 3.58297 17.8143 0 17.8143 0L13.7605 7.78577L14.1357 8.04853L20.4408 1.83906L16.7621 9.88759L17.1374 10.1503L23.4424 3.94088L19.7639 11.9894L20.139 12.2521L26.0688 5.77995C26.0688 5.77995 24.2294 11.202 21.7086 14.0034C20.1512 15.4291 18.6251 16.4108 17.518 16.6608C16.411 16.9108 15.9107 16.5605 15.4105 16.2102L13.9182 18.3413L20.2665 27.4076C20.8469 28.2365 20.6455 29.3789 19.8165 29.9593L19.0661 30.4848C18.2372 31.0652 17.0948 30.8637 16.5144 30.0348L11.2599 22.5307L10.7203 22.9085L4.90152 31.2185C4.32115 32.0475 3.17874 32.2489 2.34982 31.6685Z" fill="black"/>
</svg>
