<svg width="33" height="32" viewBox="0 0 33 32" fill="none" xmlns="http://www.w3.org/2000/svg">
<path fill-rule="evenodd" clip-rule="evenodd" d="M25.9284 2.6665C28.1375 2.6665 29.9284 4.45736 29.9284 6.6665V25.3332C29.9284 27.5423 28.1375 29.3332 25.9284 29.3332H7.26172C5.05258 29.3332 3.26172 27.5423 3.26172 25.3332V6.6665C3.26172 4.45736 5.05258 2.6665 7.26172 2.6665H25.9284ZM25.9284 5.33317H7.26172C6.52534 5.33317 5.92839 5.93012 5.92839 6.6665V25.3332C5.92839 26.0695 6.52534 26.6665 7.26172 26.6665H25.9284C26.6648 26.6665 27.2617 26.0695 27.2617 25.3332V6.6665C27.2617 5.93012 26.6648 5.33317 25.9284 5.33317ZM12.5951 7.99984H16.5951C19.5406 7.99984 21.9284 10.3877 21.9284 13.3332C21.9284 16.1894 19.6831 18.5213 16.8612 18.66L16.5951 18.6665H13.9284V22.6665C13.9284 23.4029 13.3314 23.9998 12.5951 23.9998C11.8587 23.9998 11.2617 23.4029 11.2617 22.6665V9.33317C11.2617 8.59679 11.8587 7.99984 12.5951 7.99984H16.5951H12.5951ZM16.5951 10.6665H13.9284V15.9998H16.5951L16.7941 15.9925C18.1739 15.8907 19.2617 14.739 19.2617 13.3332C19.2617 11.8604 18.0678 10.6665 16.5951 10.6665Z" fill="white"/>
</svg>
