<svg width="78" height="75" viewBox="0 0 78 75" fill="none" xmlns="http://www.w3.org/2000/svg">
<g filter="url(#filter0_d_499_272)">
<circle cx="39.0338" cy="34.2476" r="34.2476" fill="white"/>
</g>
<g clip-path="url(#clip0_499_272)">
<path d="M39.3004 17.7435C41.7596 17.7435 43.7532 15.7499 43.7532 13.2907C43.7532 10.8315 41.7596 8.83789 39.3004 8.83789C36.8412 8.83789 34.8477 10.8315 34.8477 13.2907C34.8477 15.7499 36.8412 17.7435 39.3004 17.7435Z" fill="black"/>
<path d="M33.6541 52.0878C33.684 51.9432 33.6989 51.7935 33.6989 51.6415V44.4763H29.2462V51.6415C29.2462 51.8733 29.2919 52.0935 29.3575 52.3045C28.3373 53.0331 27.667 54.2203 27.667 55.5694C27.667 57.7874 29.4656 59.5868 31.6844 59.5868C33.9033 59.5868 35.7011 57.7874 35.7011 55.5694C35.701 54.0698 34.8703 52.778 33.6541 52.0878Z" fill="black"/>
<path d="M40.7178 57.4303C40.7178 58.6589 41.7147 59.6566 42.9441 59.6566C44.1736 59.6566 45.1705 58.6597 45.1705 57.4303V44.4763H40.7178V57.4303Z" fill="black"/>
<path d="M33.8573 26.1091L30.6074 24.6228L30.0732 25.584L33.3232 27.0694L33.8573 26.1091Z" fill="black"/>
<path d="M49.477 26.2725L48.981 25.2524L45.7402 26.7337L46.2362 27.7537L49.477 26.2725Z" fill="black"/>
<path d="M48.6252 41.6204C49.6096 41.6204 50.4072 40.8238 50.4072 39.8384V28.5952C50.4072 28.326 50.3457 28.0603 50.2278 27.8168L49.8315 27.002L46.5908 28.4832L46.8441 29.0049V39.8386C46.8432 40.8239 47.6417 41.6204 48.6252 41.6204Z" fill="black"/>
<path d="M42.9004 38.6658L42.333 39.5074V39.5173H43.1695V38.6807C43.1695 38.5046 43.1795 38.3302 43.1887 38.1458H43.1695C43.0756 38.3402 42.9951 38.4963 42.9004 38.6658Z" fill="black"/>
<path d="M45.1725 35.3675H33.9916L32.444 37.2157V28.6509L32.9274 27.782L29.6775 26.2949L29.106 27.3217C28.9581 27.5868 28.8809 27.8849 28.8809 28.1882V37.6894C28.8809 38.6397 29.6269 39.4073 30.564 39.4605L29.7648 40.4143C29.4292 40.8156 29.2456 41.3222 29.2456 41.8457V42.8583H33.6983V42.6549L37.0105 38.6997H40.7189V42.8583H45.1718V35.3675H45.1725V35.3675ZM44.1168 39.9572H43.7187V40.7366H43.1704V39.9572H41.7756V39.5786L43.0333 37.6627H43.7187V39.5161H44.1168V39.9572Z" fill="black"/>
<path d="M45.1707 25.5656L45.3843 26.0051L48.625 24.523L46.495 20.1358C46.2309 19.5916 45.7258 19.246 45.1707 19.1564V19.1049H34.7059V19.1414C34.0812 19.1431 33.4748 19.4646 33.1491 20.0486L31 23.9132L34.2499 25.3986L34.706 24.5787V33.7484H45.1708V25.5656H45.1707ZM40.5153 24.842H38.6818C37.3402 24.842 36.2527 24.5246 36.2527 24.1334C36.2527 23.7412 37.3402 23.4239 38.6818 23.4239H40.5153C41.8569 23.4239 42.9444 23.7412 42.9444 24.1334C42.9444 24.5246 41.857 24.842 40.5153 24.842Z" fill="black"/>
</g>
<defs>
<filter id="filter0_d_499_272" x="0.367086" y="-3.31429" width="77.3332" height="77.3333" filterUnits="userSpaceOnUse" color-interpolation-filters="sRGB">
<feFlood flood-opacity="0" result="BackgroundImageFix"/>
<feColorMatrix in="SourceAlpha" type="matrix" values="0 0 0 0 0 0 0 0 0 0 0 0 0 0 0 0 0 0 127 0" result="hardAlpha"/>
<feOffset dy="1.10476"/>
<feGaussianBlur stdDeviation="2.20952"/>
<feComposite in2="hardAlpha" operator="out"/>
<feColorMatrix type="matrix" values="0 0 0 0 0 0 0 0 0 0 0 0 0 0 0 0 0 0 0.15 0"/>
<feBlend mode="normal" in2="BackgroundImageFix" result="effect1_dropShadow_499_272"/>
<feBlend mode="normal" in="SourceGraphic" in2="effect1_dropShadow_499_272" result="shape"/>
</filter>
<clipPath id="clip0_499_272">
<rect width="50.819" height="50.819" fill="white" transform="translate(13.625 8.83826)"/>
</clipPath>
</defs>
</svg>
