<svg width="78" height="75" viewBox="0 0 78 75" fill="none" xmlns="http://www.w3.org/2000/svg">
<g filter="url(#filter0_d_499_288)">
<circle cx="39.2505" cy="34.2476" r="34.2476" fill="white"/>
</g>
<g clip-path="url(#clip0_499_288)">
<path d="M17.2838 13.1628C16.6659 13.1628 16.166 13.7287 16.166 14.4273C16.166 16.5416 16.166 20.7775 16.166 22.8908C16.166 23.5894 16.666 24.1553 17.2838 24.1553C17.8999 24.1553 18.4009 23.5894 18.4009 22.8908C18.4009 22.0623 18.4009 20.9046 18.4009 19.6781C18.4861 19.6781 19.2553 19.6781 20.5197 19.6781C20.6144 20.0584 20.8082 20.4184 21.1125 20.7097L33.9696 33.0436V40.4124H26.8968C25.3716 40.4124 24.1331 41.6499 24.1331 43.1751V56.9859C24.1331 58.512 25.3707 59.7495 26.8968 59.7495C28.422 59.7495 29.6577 58.512 29.6577 56.9859V45.9388H39.0749L51.612 58.9072C52.1538 59.4675 52.8746 59.7505 53.5983 59.7505C54.2904 59.7505 54.9815 59.4926 55.5176 58.973C56.6151 57.9126 56.6439 56.1649 55.5836 55.0673L43.0083 42.0591V33.7117C43.1929 33.6151 43.371 33.4983 43.5269 33.3434L57.0316 19.9157C57.1058 19.8415 57.1652 19.7599 57.2264 19.6782C58.7979 19.6782 59.8231 19.6782 60.0699 19.6782C60.0699 20.9047 60.0699 22.0615 60.0699 22.8918C60.0699 23.5895 60.5699 24.1554 61.1868 24.1554C61.8038 24.1554 62.3047 23.5895 62.3047 22.8909C62.3047 20.7766 62.3047 16.5407 62.3047 14.4274C62.3047 13.7288 61.8038 13.1629 61.1868 13.1629C60.57 13.1629 60.0699 13.7288 60.0699 14.4274C60.0699 15.2568 60.0699 16.4136 60.0699 17.6401C59.8388 17.6401 58.926 17.6401 57.5242 17.6401C57.4204 17.3627 57.2617 17.1011 57.039 16.8776C56.2023 16.0361 54.8413 16.0333 54.0017 16.8692L53.2261 17.6401C45.0864 17.6401 31.7089 17.6401 24.1183 17.6401L24.0858 17.6095C23.2425 16.8005 21.9112 16.82 21.0874 17.6401C19.4843 17.6401 18.4972 17.6401 18.3998 17.6401C18.3998 16.4136 18.3998 15.2568 18.3998 14.4265C18.4008 13.7279 17.8998 13.1628 17.2838 13.1628ZM35.068 19.6782C34.3908 20.5298 33.9696 21.593 33.9696 22.7656C33.9696 25.5219 36.2026 27.753 38.956 27.753C41.7123 27.753 43.9443 25.5218 43.9443 22.7656C43.9443 21.593 43.5231 20.5289 42.8459 19.6782C45.8053 19.6782 48.6636 19.6782 51.1768 19.6782L41.5888 29.2113H36.1803L26.2437 19.6782C28.8422 19.6782 31.886 19.6782 35.068 19.6782Z" fill="black"/>
<path d="M63.8172 22.4677C64.2828 22.4677 64.6595 22.0911 64.6595 21.6253C64.6595 20.1605 64.6595 17.1593 64.6586 15.6945C64.6586 15.2278 64.2819 14.8512 63.8162 14.8512C63.781 14.8512 63.7448 14.8512 63.7076 14.8512C63.2428 14.8512 62.8652 15.2269 62.8652 15.6936C62.8652 17.1584 62.8652 20.1605 62.8652 21.6254C62.8652 22.092 63.2428 22.4686 63.7076 22.4686C63.7448 22.4677 63.781 22.4677 63.8172 22.4677Z" fill="black"/>
<path d="M14.7917 22.4677C15.2573 22.4677 15.634 22.0911 15.634 21.6253C15.634 20.1605 15.634 17.1593 15.634 15.6945C15.634 15.2278 15.2574 14.8512 14.7917 14.8512C14.7555 14.8512 14.7193 14.8512 14.6813 14.8512C14.2174 14.8512 13.8398 15.2269 13.8398 15.6936C13.8398 17.1584 13.8398 20.1605 13.8398 21.6254C13.8398 22.092 14.2174 22.4686 14.6822 22.4686C14.7193 22.4677 14.7555 22.4677 14.7917 22.4677Z" fill="black"/>
</g>
<defs>
<filter id="filter0_d_499_288" x="0.583883" y="-3.31429" width="77.3332" height="77.3333" filterUnits="userSpaceOnUse" color-interpolation-filters="sRGB">
<feFlood flood-opacity="0" result="BackgroundImageFix"/>
<feColorMatrix in="SourceAlpha" type="matrix" values="0 0 0 0 0 0 0 0 0 0 0 0 0 0 0 0 0 0 127 0" result="hardAlpha"/>
<feOffset dy="1.10476"/>
<feGaussianBlur stdDeviation="2.20952"/>
<feComposite in2="hardAlpha" operator="out"/>
<feColorMatrix type="matrix" values="0 0 0 0 0 0 0 0 0 0 0 0 0 0 0 0 0 0 0.15 0"/>
<feBlend mode="normal" in2="BackgroundImageFix" result="effect1_dropShadow_499_288"/>
<feBlend mode="normal" in="SourceGraphic" in2="effect1_dropShadow_499_288" result="shape"/>
</filter>
<clipPath id="clip0_499_288">
<rect width="50.819" height="50.819" fill="white" transform="translate(13.8418 11.0475)"/>
</clipPath>
</defs>
</svg>
