<svg width="78" height="75" viewBox="0 0 78 75" fill="none" xmlns="http://www.w3.org/2000/svg">
<g filter="url(#filter0_d_499_298)">
<circle cx="38.9166" cy="34.2476" r="34.2476" fill="white"/>
</g>
<g clip-path="url(#clip0_499_298)">
<path d="M18.1593 54.1453C17.0528 55.0801 16.9127 56.7411 17.8474 57.8501C18.7489 58.9135 20.4851 59.0625 21.5504 58.162L28.1111 52.6218C28.5421 52.2574 28.8487 51.7545 28.9757 51.2052L29.9473 46.9915L34.1365 49.2631V57.0283C34.1365 58.4773 35.3156 59.6565 36.7647 59.6565C38.2137 59.6565 39.3927 58.4774 39.3927 57.0283V47.6986C39.3927 46.7341 38.8662 45.8492 38.0175 45.3885L34.2251 43.3315L31.9544 30.0946L35.4603 25.5252C35.7231 25.1827 35.8677 24.757 35.8677 24.325V19.5226C35.8677 18.4355 34.9837 17.5515 33.8966 17.5515C32.8094 17.5515 31.9254 18.4354 31.9254 19.5226V23.6566L29.8965 26.3014L23.2413 27.4428L21.2535 25.124L21.8195 18.1489C21.9071 17.0661 21.0968 16.113 20.0131 16.0245C18.9286 15.9509 17.9772 16.7657 17.8905 17.8309L17.2588 25.6242C17.2159 26.1515 17.3824 26.664 17.7266 27.0661L22.6579 32.82L24.989 45.1047L24.0507 49.1704L18.1593 54.1453Z" fill="black"/>
<path d="M28.1533 25.0057C30.3881 24.2094 31.5348 21.7521 30.7464 19.541C29.9413 17.3141 27.4963 16.1472 25.265 16.954C23.0329 17.739 21.8896 20.205 22.6754 22.4345C23.4735 24.6439 25.9282 25.809 28.1533 25.0057Z" fill="black"/>
<path d="M34.9337 15.9844C36.9072 15.9844 38.507 14.3846 38.507 12.4111C38.507 10.4376 36.9072 8.83777 34.9337 8.83777C32.9602 8.83777 31.3604 10.4376 31.3604 12.4111C31.3604 14.3846 32.9602 15.9844 34.9337 15.9844Z" fill="black"/>
<path d="M46.2643 27.938H47.1569C47.8341 29.3642 48.7724 32.1578 48.1321 35.8574C48.0908 36.0957 48.2502 36.3225 48.4886 36.3636C48.514 36.368 48.5395 36.3698 48.5639 36.3698C48.7733 36.3698 48.9581 36.22 48.995 36.0071C49.1053 35.3702 49.1648 34.764 49.1964 34.1797H52.3404V36.2235C52.3404 36.4653 52.5368 36.6615 52.7784 36.6615C53.0203 36.6615 53.2164 36.4652 53.2164 36.2235V34.1797H56.1433C56.1749 34.764 56.2344 35.3694 56.3448 36.0071C56.3815 36.22 56.5664 36.3698 56.7758 36.3698C56.8003 36.3698 56.8257 36.3679 56.8511 36.3636C57.0894 36.3225 57.2488 36.0956 57.2077 35.8574C56.5699 32.1683 57.509 29.3677 58.1854 27.938H59.2927C60.0189 27.938 60.6068 27.3501 60.6068 26.6239C60.6068 25.8977 60.0189 25.3098 59.2927 25.3098H46.2643C45.538 25.3098 44.9502 25.8977 44.9502 26.6239C44.9502 27.3501 45.5381 27.938 46.2643 27.938ZM53.2184 27.938H57.2148C56.9635 28.5161 56.7041 29.2503 56.4992 30.1123H53.2175V27.938H53.2184ZM53.2184 30.9884H56.3213C56.2013 31.691 56.1285 32.4645 56.1242 33.3038H53.2175V30.9884H53.2184ZM52.3423 33.3038H49.2183C49.2139 32.4645 49.1412 31.691 49.0212 30.9884H52.3423V33.3038ZM52.3423 27.938V30.1123H48.8434C48.6384 29.2503 48.3791 28.5161 48.1278 27.938H52.3423Z" fill="black"/>
</g>
<defs>
<filter id="filter0_d_499_298" x="0.249898" y="-3.31429" width="77.3332" height="77.3333" filterUnits="userSpaceOnUse" color-interpolation-filters="sRGB">
<feFlood flood-opacity="0" result="BackgroundImageFix"/>
<feColorMatrix in="SourceAlpha" type="matrix" values="0 0 0 0 0 0 0 0 0 0 0 0 0 0 0 0 0 0 127 0" result="hardAlpha"/>
<feOffset dy="1.10476"/>
<feGaussianBlur stdDeviation="2.20952"/>
<feComposite in2="hardAlpha" operator="out"/>
<feColorMatrix type="matrix" values="0 0 0 0 0 0 0 0 0 0 0 0 0 0 0 0 0 0 0.15 0"/>
<feBlend mode="normal" in2="BackgroundImageFix" result="effect1_dropShadow_499_298"/>
<feBlend mode="normal" in="SourceGraphic" in2="effect1_dropShadow_499_298" result="shape"/>
</filter>
<clipPath id="clip0_499_298">
<rect width="50.819" height="50.819" fill="white" transform="translate(13.5078 8.83826)"/>
</clipPath>
</defs>
</svg>
