<svg width="78" height="75" viewBox="0 0 78 75" fill="none" xmlns="http://www.w3.org/2000/svg">
<g filter="url(#filter0_d_499_309)">
<circle cx="39.1382" cy="34.2476" r="34.2476" fill="white"/>
</g>
<g clip-path="url(#clip0_499_309)">
<path d="M48.9713 54.3942C48.4622 54.0695 47.7852 54.2198 47.4608 54.7296C46.7595 55.8307 44.4085 55.23 42.9044 54.8182C42.8719 54.8094 21.0141 48.717 21.0141 48.717C20.4318 48.555 19.8285 48.8953 19.6663 49.4776C19.5044 50.06 19.8448 50.6631 20.427 50.8255L24.3208 51.9098C24.1206 52.1446 23.9653 52.4239 23.8771 52.7409C23.5525 53.9053 24.2337 55.1121 25.3978 55.4361C26.5623 55.7605 27.7689 55.0793 28.0933 53.9153C28.1815 53.5984 28.1932 53.2789 28.1427 52.9742L39.1835 56.0491C38.9837 56.284 38.8281 56.5632 38.74 56.8801C38.4156 58.0445 39.0968 59.2515 40.2607 59.5755C41.4253 59.9 42.6322 59.2188 42.9562 58.0546C43.0407 57.7506 43.0554 57.4444 43.0127 57.1512C43.0196 57.153 43.0255 57.1548 43.0327 57.157C44.6469 57.6063 47.8745 58.1534 49.3065 55.9049C49.631 55.3955 49.4811 54.719 48.9713 54.3942Z" fill="black"/>
<path d="M37.2363 18.5985C37.8262 18.9954 38.4943 19.2703 39.1916 19.4066L39.1986 19.408C40.9265 19.7433 42.7436 19.1871 43.9897 17.9442C45.2532 16.6828 45.8079 14.8178 45.4396 13.0704C45.0812 11.3684 43.8778 9.91123 42.2712 9.24283C40.6268 8.55883 38.7098 8.74855 37.2334 9.74377C35.7567 10.739 34.8616 12.4444 34.8782 14.2254C34.895 15.9654 35.7938 17.6275 37.2363 18.5985Z" fill="black"/>
<path d="M60.725 17.8859C60.6146 16.6926 59.5578 15.8148 58.3645 15.9256L48.7082 16.8199C48.1625 16.8837 46.5307 17.5152 45.1097 18.0039C44.9057 18.3083 44.6721 18.5943 44.4102 18.856C43.0619 20.2008 41.0957 20.8028 39.2262 20.4399L39.2185 20.4384C38.4641 20.2909 37.7413 19.9935 37.103 19.5642C36.7701 19.3399 36.4656 19.08 36.1897 18.7943C32.9905 18.5132 29.2941 18.217 26.8528 18.6174L18.7489 21.3648C17.9232 21.6437 17.4191 22.5029 17.6049 23.376C17.8052 24.3163 18.7298 24.9163 19.6703 24.7162L27.5347 23.0417L33.5837 23.8523C33.5837 23.8523 31.2114 32.7308 31.2111 32.7317C30.1818 36.9171 33.8029 39.9664 33.8029 39.9664L29.3192 47.0671C28.7194 48.0221 28.9471 49.299 29.8713 49.9763C30.8378 50.685 32.1959 50.4758 32.9045 49.5091L38.9609 41.2469C39.2967 40.7864 39.4553 40.2206 39.4164 39.6584L42.5043 40.234L37.0725 48.713C36.4559 49.6786 36.6942 50.9741 37.6371 51.6484C38.6119 52.3453 39.9668 52.1204 40.6642 51.1459L48.74 39.8554C48.9201 39.6009 49.063 39.2983 49.1381 38.976C49.4493 37.6422 48.6204 36.3086 47.2864 35.997L47.1681 35.9697L41.9945 34.7622L44.4349 25.6291C44.5499 25.1992 44.6087 24.7679 44.6187 24.342C44.6771 24.315 44.7353 24.2867 44.7926 24.2552L49.7539 21.5313L58.8705 20.2337C60.0063 20.07 60.8319 19.0415 60.725 17.8859Z" fill="black"/>
</g>
<defs>
<filter id="filter0_d_499_309" x="0.471578" y="-3.31429" width="77.3332" height="77.3333" filterUnits="userSpaceOnUse" color-interpolation-filters="sRGB">
<feFlood flood-opacity="0" result="BackgroundImageFix"/>
<feColorMatrix in="SourceAlpha" type="matrix" values="0 0 0 0 0 0 0 0 0 0 0 0 0 0 0 0 0 0 127 0" result="hardAlpha"/>
<feOffset dy="1.10476"/>
<feGaussianBlur stdDeviation="2.20952"/>
<feComposite in2="hardAlpha" operator="out"/>
<feColorMatrix type="matrix" values="0 0 0 0 0 0 0 0 0 0 0 0 0 0 0 0 0 0 0.15 0"/>
<feBlend mode="normal" in2="BackgroundImageFix" result="effect1_dropShadow_499_309"/>
<feBlend mode="normal" in="SourceGraphic" in2="effect1_dropShadow_499_309" result="shape"/>
</filter>
<clipPath id="clip0_499_309">
<rect width="50.819" height="50.819" fill="white" transform="translate(13.7295 8.83826)"/>
</clipPath>
</defs>
</svg>
