<svg width="79" height="75" viewBox="0 0 79 75" fill="none" xmlns="http://www.w3.org/2000/svg">
<g filter="url(#filter0_d_499_320)">
<circle cx="39.358" cy="34.2476" r="34.2476" fill="white"/>
</g>
<g clip-path="url(#clip0_499_320)">
<path d="M32.6795 31.3122C34.4064 31.3122 35.8063 29.9123 35.8063 28.1855C35.8063 26.4586 34.4064 25.0587 32.6795 25.0587C30.9526 25.0587 29.5527 26.4586 29.5527 28.1855C29.5527 29.9123 30.9526 31.3122 32.6795 31.3122Z" fill="black"/>
<path d="M42.4583 29.9076C42.0312 29.1527 41.0661 28.9154 40.3405 29.372L34.8258 32.8435L30.6778 32.1796L28.3225 29.2519C27.6135 28.3705 26.343 28.2108 25.4378 28.8685L27.2866 29.8025L21.742 28.4911C20.9273 28.2983 20.0703 28.5306 19.4643 29.1082L15.2545 33.1203C14.6733 33.6766 14.6321 34.5918 15.1616 35.1976C15.17 35.2072 15.1785 35.2169 15.187 35.2267C15.7577 35.8808 16.7624 35.9171 17.3794 35.3065L21.2486 31.5571H21.2487L26.8481 32.8108L21.8516 32.9853L18.4824 36.2133C17.9292 36.7433 17.2028 37.0352 16.4369 37.0352C16.1618 37.0352 15.8898 36.9953 15.6284 36.9206L15.4066 37.1029C15.8553 37.2201 16.2671 37.4543 16.6039 37.7911C16.8151 38.0024 17.0971 38.1187 17.398 38.1187C17.6989 38.1187 17.9809 38.0024 18.1922 37.791C19.4018 36.5816 21.0119 35.9155 22.7258 35.9155C24.4033 35.9155 25.9802 36.5549 27.1804 37.716L30.3327 35.1802L34.9103 35.9128C34.9897 35.9255 35.0693 35.9318 35.1487 35.9318C35.4315 35.9318 35.7103 35.8522 35.9524 35.6998L41.9119 31.9483C42.5994 31.5155 42.8583 30.6146 42.4583 29.9076Z" fill="black"/>
<path d="M42.7062 37.4143C41.8807 37.6365 41.1007 38.0692 40.4522 38.7133C40.1422 39.0213 39.765 39.2578 39.3409 39.3635C38.4626 39.5823 37.5902 39.334 36.9819 38.7255C36.0206 37.7642 34.7425 37.2349 33.3832 37.2349C32.0317 37.2349 30.7606 37.7581 29.8012 38.7089C29.346 39.1601 28.7328 39.4322 28.0919 39.4415C27.4252 39.4511 26.7969 39.196 26.3265 38.7255C24.3419 36.741 21.1134 36.7413 19.129 38.7255C18.6672 39.1874 18.0531 39.4418 17.3999 39.4418C16.7595 39.4418 16.1566 39.1972 15.698 38.7522C15.1881 38.2573 14.375 38.2026 13.8489 38.6801C13.2854 39.1916 13.2696 40.0634 13.8013 40.5953C15.7859 42.5796 19.0144 42.5796 20.9988 40.5953C21.4694 40.1246 22.0982 39.8694 22.7652 39.8793C23.4056 39.8888 24.0184 40.1607 24.4732 40.6116C25.4325 41.5626 26.7039 42.0859 28.0555 42.0859C29.4073 42.0859 30.6786 41.5626 31.638 40.6115C32.0928 40.1606 32.7055 39.8888 33.346 39.8793C34.0129 39.8695 34.6416 40.1246 35.1123 40.5952C36.0736 41.5565 37.3516 42.0859 38.711 42.0859C40.0704 42.0859 41.3485 41.5566 42.3095 40.5953C42.6229 40.2821 43.0005 40.0726 43.4004 39.966C43.9705 39.8138 44.3536 39.278 44.3536 38.688C44.3535 37.8267 43.5378 37.1905 42.7062 37.4143Z" fill="black"/>
<path d="M42.7063 43.0553C41.8807 43.2775 41.1008 43.7103 40.4524 44.3543C40.1424 44.6623 39.765 44.8989 39.341 45.0046C38.4627 45.2235 37.5904 44.9752 36.982 44.3666C36.0207 43.4053 34.7426 42.876 33.3833 42.876C32.0317 42.876 30.7606 43.3992 29.8012 44.35C29.346 44.8012 28.7328 45.0733 28.092 45.0826C27.4252 45.0922 26.7969 44.8371 26.3266 44.3666C24.3419 42.3822 21.1135 42.3824 19.129 44.3666C18.6672 44.8286 18.0531 45.0829 17.4 45.0829C16.7595 45.0829 16.1566 44.8383 15.698 44.3933C15.1881 43.8985 14.375 43.8437 13.849 44.3212C13.2855 44.8328 13.2695 45.7045 13.8013 46.2364C15.786 48.2209 19.0144 48.2206 20.9989 46.2364C21.4694 45.7657 22.0982 45.5105 22.7652 45.5204C23.4056 45.5299 24.0184 45.8018 24.4733 46.2527C25.4326 47.2037 26.7039 47.727 28.0556 47.727C29.4073 47.727 30.6786 47.2037 31.6381 46.2526C32.0928 45.8017 32.7056 45.5299 33.346 45.5204C34.013 45.5106 34.6417 45.7657 35.1124 46.2363C36.0737 47.1977 37.3516 47.727 38.711 47.727C40.0704 47.727 41.3485 47.1977 42.3097 46.2364C42.6229 45.9232 43.0006 45.7136 43.4004 45.607C43.9705 45.4548 44.3537 44.919 44.3537 44.329C44.3536 43.4677 43.5379 42.8315 42.7063 43.0553Z" fill="black"/>
<path d="M53.2416 18.8251C55.4634 18.8251 57.2645 17.024 57.2645 14.8022C57.2645 12.5804 55.4634 10.7793 53.2416 10.7793C51.0199 10.7793 49.2188 12.5804 49.2188 14.8022C49.2188 17.024 51.0199 18.8251 53.2416 18.8251Z" fill="black"/>
<path d="M63.0277 24.6779C63.0149 22.1577 60.9544 20.1073 58.4341 20.1073H53.2154C53.2148 20.1073 53.2141 20.1074 53.2134 20.1074C53.2128 20.1074 53.2121 20.1073 53.2114 20.1073H49.8653L42.8993 16.1252L39.7702 9.90671C39.2883 8.94917 38.1215 8.56346 37.1637 9.04533C36.2062 9.5273 35.8204 10.6941 36.3023 11.6518L39.6943 18.3927C39.8658 18.7334 40.1338 19.0161 40.465 19.2054L48.0516 23.5423V32.0887H58.333V23.9896H58.4341C58.8243 23.9896 59.1435 24.3071 59.1455 24.6974L59.2171 38.9577C59.2225 40.0265 60.0906 40.8891 61.158 40.8891C61.1612 40.8891 61.1647 40.8891 61.1679 40.8891C62.24 40.8836 63.1047 40.0103 63.0993 38.9382L63.0277 24.6779Z" fill="black"/>
<path d="M48.0557 57.3277C48.0557 58.6142 49.0985 59.657 50.385 59.657C51.6715 59.657 52.7143 58.6142 52.7143 57.3277V44.6926H48.0557V57.3277Z" fill="black"/>
<path d="M53.7217 57.3277C53.7217 57.8253 53.879 58.2854 54.1448 58.6638C54.5661 59.2638 55.2621 59.657 56.051 59.657C57.3375 59.657 58.3803 58.6142 58.3803 57.3277V44.6926H53.7217V57.3277Z" fill="black"/>
<path d="M48.1948 36.6434L47.8606 42.1571C47.8439 42.4318 47.9953 42.6987 48.2646 42.8198C48.3546 42.8603 48.4537 42.8765 48.5523 42.8765H52.1887C52.5067 42.8765 52.7821 42.6555 52.851 42.3452L53.2407 40.5899L53.5098 42.3033C53.5616 42.6333 53.8459 42.8765 54.18 42.8765H57.9291C58.0277 42.8765 58.1268 42.8603 58.2168 42.8198C58.4861 42.6986 58.6374 42.4318 58.6208 42.1571L58.2866 36.6434H48.1948Z" fill="black"/>
<path d="M58.3324 33.7484H48.0383L47.9434 35.3158H58.3167L58.3324 33.7484Z" fill="black"/>
</g>
<defs>
<filter id="filter0_d_499_320" x="0.691305" y="-3.31429" width="77.3332" height="77.3333" filterUnits="userSpaceOnUse" color-interpolation-filters="sRGB">
<feFlood flood-opacity="0" result="BackgroundImageFix"/>
<feColorMatrix in="SourceAlpha" type="matrix" values="0 0 0 0 0 0 0 0 0 0 0 0 0 0 0 0 0 0 127 0" result="hardAlpha"/>
<feOffset dy="1.10476"/>
<feGaussianBlur stdDeviation="2.20952"/>
<feComposite in2="hardAlpha" operator="out"/>
<feColorMatrix type="matrix" values="0 0 0 0 0 0 0 0 0 0 0 0 0 0 0 0 0 0 0.15 0"/>
<feBlend mode="normal" in2="BackgroundImageFix" result="effect1_dropShadow_499_320"/>
<feBlend mode="normal" in="SourceGraphic" in2="effect1_dropShadow_499_320" result="shape"/>
</filter>
<clipPath id="clip0_499_320">
<rect width="50.819" height="50.819" fill="white" transform="translate(12.8467 8.83826)"/>
</clipPath>
</defs>
</svg>
