<svg width="78" height="75" viewBox="0 0 78 75" fill="none" xmlns="http://www.w3.org/2000/svg">
<g filter="url(#filter0_d_499_337)">
<circle cx="39.024" cy="34.2476" r="34.2476" fill="white"/>
</g>
<path d="M20.7858 38.009C21.2055 36.9623 22.131 34.8647 22.9247 33.2263H21.8091V32.5681C21.8091 32.2129 21.5211 31.9248 21.1658 31.9248H19.938C19.5828 31.9248 19.2947 32.2128 19.2947 32.5681V33.2263H16.1835C15.8283 33.2263 15.5402 33.5143 15.5402 33.8696V35.874C15.5402 36.2292 15.8282 36.5173 16.1835 36.5173H19.2947V38.1157H16.1835C15.8283 38.1157 15.5402 38.4036 15.5402 38.759V40.7634C15.5402 41.1186 15.8282 41.4067 16.1835 41.4067H19.2947V43.7804H15.9268C15.7104 43.7804 15.5213 43.9267 15.4667 44.1362L14.7301 46.968C14.6931 47.1106 14.7242 47.262 14.8141 47.3784C14.9041 47.4948 15.043 47.5631 15.1901 47.5631H16.1112V52.7112C16.1112 53.0664 16.3991 53.3545 16.7545 53.3545H17.9543C18.3095 53.3545 18.5976 53.0665 18.5976 52.7112V47.5631H19.2948V48.7382C19.2948 49.0934 19.5828 49.3816 19.9382 49.3816H21.4576C21.2327 47.9264 21.2528 48.0569 21.1087 47.1263C20.9606 46.1689 21.2345 45.2229 21.8031 44.497L21.8089 41.6658C20.6848 40.8287 20.2546 39.3366 20.7858 38.009Z" fill="black"/>
<path d="M47.6527 44.1553C47.6052 43.9367 47.4119 43.7807 47.1881 43.7807H43.6719V41.4069H46.783C47.1382 41.4069 47.4264 41.119 47.4264 40.7636V38.7592C47.4264 38.404 47.1384 38.1159 46.783 38.1159H43.6719V36.5176H46.783C47.1382 36.5176 47.4264 36.2296 47.4264 35.8743V33.8699C47.4264 33.5147 47.1384 33.2265 46.783 33.2265H43.6719V32.5684C43.6719 32.2132 43.384 31.925 43.0286 31.925H41.8008C41.4456 31.925 41.1575 32.213 41.1575 32.5684V33.2265H39.7461C40.5388 34.8631 41.4641 36.9597 41.8853 38.0104C42.3639 39.2066 42.062 40.5402 41.1669 41.4069C41.1637 41.41 41.1608 41.4131 41.1575 41.4163L41.1592 43.972C42.0656 44.7234 42.5519 45.9163 42.3646 47.1272C42.218 48.0754 42.2421 47.919 42.0157 49.3825H43.0284C43.3836 49.3825 43.6717 49.0945 43.6717 48.7392V47.564H44.369V52.7121C44.369 53.0673 44.657 53.3554 45.0123 53.3554H46.2121C46.5673 53.3554 46.8554 53.0675 46.8554 52.7121V47.564H47.8017C47.9454 47.564 48.0815 47.4989 48.1718 47.387C48.2622 47.2747 48.297 47.128 48.2665 46.9874L47.6527 44.1553Z" fill="black"/>
<path d="M39.6096 44.9395L35.6852 43.4759C35.004 43.776 35.1919 43.6932 34.857 43.8406C33.4671 44.4529 31.8345 43.7548 31.3356 42.2928C30.8368 43.7543 29.2043 44.4531 27.8141 43.8406C27.3456 43.6341 27.4333 43.6729 27.3539 43.6379L23.8642 44.9395C23.093 45.2271 22.598 46.029 22.729 46.8762L24.0402 55.3552C24.1902 56.3256 25.0988 56.9899 26.068 56.8399C27.0323 56.6907 27.7025 55.7811 27.5526 54.8119L26.4626 47.7636C30.7508 46.1642 30.645 46.2147 30.8245 46.1166H32.649C32.8296 46.2153 32.5715 46.1075 37.0111 47.7636L35.9211 54.8119C35.771 55.7818 36.4357 56.6899 37.4057 56.8397C38.3744 56.9896 39.284 56.3225 39.4335 55.3551L40.7447 46.876C40.8736 46.0432 40.3994 45.2341 39.6096 44.9395Z" fill="black"/>
<path d="M28.2714 42.8081C29.0197 43.1379 29.894 42.7984 30.2236 42.0499C30.5511 41.306 30.2174 40.4291 29.4654 40.0978C27.9915 39.4485 29.0398 39.9103 25.6167 38.4025C25.7471 38.1031 27.0715 35.1649 27.1766 35.0391C27.199 35.0126 27.2191 34.9938 27.2405 34.9773C27.2717 34.9531 27.314 34.9488 27.3495 34.9662C27.385 34.9836 27.4074 35.0196 27.4074 35.0592V37.9585L28.3583 38.3774V36.1627C28.3583 36.0282 28.4223 35.9016 28.5307 35.8219C28.6391 35.7421 28.779 35.7188 28.9074 35.7587L31.3074 36.5068L33.7075 35.7587C33.836 35.7186 33.9758 35.7421 34.0842 35.8219C34.1926 35.9016 34.2566 36.0282 34.2566 36.1627V38.4044L35.251 37.9664V35.0587C35.251 35.0176 35.274 34.9798 35.3107 34.9611C35.3474 34.9423 35.3915 34.9457 35.4249 34.9701C35.4275 34.972 35.4302 34.9737 35.4326 34.9756C35.5436 35.0602 36.9284 38.1029 37.0589 38.4026L33.2104 40.0979C32.462 40.4277 32.1225 41.3016 32.4522 42.0501C32.7825 42.7997 33.6573 43.1377 34.4044 42.8083L39.5878 40.525C40.3182 40.2034 40.6623 39.3605 40.3657 38.6196C39.9814 37.6574 39.0374 35.5129 38.2182 33.828C37.6659 32.6923 36.4777 31.925 35.1759 31.925C34.3185 31.925 28.2936 31.925 27.4992 31.925C26.365 31.925 25.2813 32.5138 24.6585 33.4747C24.32 33.9967 22.8149 37.3541 22.3095 38.6196C22.013 39.3605 22.3569 40.2032 23.0873 40.525L28.2714 42.8081Z" fill="black"/>
<path d="M31.3437 30.9466C33.0381 30.9466 34.413 29.5731 34.413 27.8773C34.413 26.1822 33.0395 24.808 31.3437 24.808C29.6512 24.808 28.2744 26.1793 28.2744 27.8773C28.2746 29.5729 29.649 30.9466 31.3437 30.9466Z" fill="black"/>
<path d="M57.1009 12.1531C53.1698 12.1531 48.6689 20.2398 48.6689 27.5699C48.6689 33.691 51.3023 37.3466 54.8823 38.3868V52.7116C54.8823 53.0668 55.1703 53.3549 55.5256 53.3549H58.6762C59.0314 53.3549 59.3195 53.0669 59.3195 52.7116V38.3868C62.8997 37.3466 65.5329 33.691 65.5329 27.5699C65.5329 20.2399 61.032 12.1531 57.1009 12.1531Z" fill="black"/>
<defs>
<filter id="filter0_d_499_337" x="0.35732" y="-3.31429" width="77.3332" height="77.3333" filterUnits="userSpaceOnUse" color-interpolation-filters="sRGB">
<feFlood flood-opacity="0" result="BackgroundImageFix"/>
<feColorMatrix in="SourceAlpha" type="matrix" values="0 0 0 0 0 0 0 0 0 0 0 0 0 0 0 0 0 0 127 0" result="hardAlpha"/>
<feOffset dy="1.10476"/>
<feGaussianBlur stdDeviation="2.20952"/>
<feComposite in2="hardAlpha" operator="out"/>
<feColorMatrix type="matrix" values="0 0 0 0 0 0 0 0 0 0 0 0 0 0 0 0 0 0 0.15 0"/>
<feBlend mode="normal" in2="BackgroundImageFix" result="effect1_dropShadow_499_337"/>
<feBlend mode="normal" in="SourceGraphic" in2="effect1_dropShadow_499_337" result="shape"/>
</filter>
</defs>
</svg>
