<svg width="78" height="75" viewBox="0 0 78 75" fill="none" xmlns="http://www.w3.org/2000/svg">
<g filter="url(#filter0_d_499_350)">
<circle cx="38.688" cy="34.2476" r="34.2476" fill="white"/>
</g>
<g clip-path="url(#clip0_499_350)">
<path d="M64.0221 17.4421L53.9268 48.0413C53.8006 48.4242 53.5322 48.7353 53.171 48.9174C52.9564 49.0255 52.7245 49.0802 52.4913 49.0802C52.3321 49.0802 52.1723 49.0547 52.017 49.0034L49.4918 48.1704C48.9829 48.0026 48.7065 47.454 48.8744 46.9453C49.0422 46.4364 49.5914 46.16 50.0995 46.3278L52.2182 47.0268L62.0456 17.2401L42.8019 10.8911L40.0713 19.168C39.9034 19.6769 39.3543 19.9532 38.8462 19.7853C38.3373 19.6175 38.0609 19.069 38.2287 18.5601L41.0934 9.87677C41.3551 9.08483 42.2117 8.65313 43.0034 8.91442L63.0601 15.5316C63.443 15.6577 63.7543 15.9262 63.9364 16.2875C64.1183 16.6488 64.1487 17.0589 64.0221 17.4421ZM44.1409 16.569C44.2419 16.6023 44.3443 16.6181 44.4451 16.6181C44.8523 16.6181 45.2317 16.3596 45.3662 15.9516L45.6555 15.0749C45.8234 14.5661 45.547 14.0176 45.0382 13.8496C44.5296 13.6818 43.9807 13.9581 43.8129 14.4669L43.5236 15.3437C43.3558 15.8526 43.6322 16.4011 44.1409 16.569ZM49.6542 41.9662L49.3649 42.843C49.197 43.3517 49.4735 43.9004 49.9823 44.0682C50.0832 44.1015 50.1856 44.1174 50.2864 44.1174C50.6937 44.1174 51.073 43.8589 51.2075 43.4509L51.4968 42.5741C51.6647 42.0654 51.3883 41.5167 50.8794 41.3489C50.3713 41.1813 49.8221 41.4572 49.6542 41.9662ZM42.8275 24.9164C43.1071 24.069 43.7002 23.3812 44.4974 22.9794C45.2948 22.5775 46.2005 22.5103 47.048 22.7899C48.0938 23.1349 48.6621 23.747 48.9911 24.4697C49.6857 24.0846 50.5064 23.9309 51.5527 24.2761C53.3022 24.8534 54.2562 26.7467 53.6792 28.4963C52.8099 31.131 49.582 32.7571 46.4605 34.3296C46.3206 34.4001 46.1715 34.4336 46.0248 34.4336C45.6701 34.4336 45.3283 34.2382 45.1577 33.8998C43.5847 30.7784 41.9583 27.5505 42.8275 24.9164ZM46.4546 32.1584C48.9292 30.8965 51.2836 29.5646 51.8367 27.8886C52.0787 27.1549 51.6785 26.3608 50.9448 26.1187C50.3534 25.9235 49.9702 25.9791 49.1272 26.8272C48.8682 27.0878 48.4842 27.1799 48.1352 27.0647C47.7863 26.9495 47.5323 26.6472 47.4792 26.2836C47.3063 25.1001 47.0314 24.8275 46.4401 24.6325C46.296 24.5849 46.1478 24.5613 46.0003 24.5613C45.7841 24.5613 45.5694 24.612 45.3705 24.7121C45.0359 24.8806 44.7873 25.169 44.6701 25.5242C44.117 27.2 45.2167 29.6716 46.4546 32.1584ZM39.0436 31.6645V41.126C39.0436 41.6618 39.4779 42.0961 40.0137 42.0961C40.5496 42.0961 40.9839 41.6618 40.9839 41.126V31.6645C40.9839 28.2657 40.3622 25.4103 39.1364 23.1777C37.9973 21.103 36.3332 19.6091 34.3219 18.8541L27.8489 15.9347C27.5064 15.7803 27.1057 15.8375 26.8202 16.0812C26.5346 16.325 26.4153 16.7119 26.5141 17.0742L27.0536 19.0527C23.7202 20.2949 20.6445 22.9288 18.314 26.5599C18.2136 26.7162 18.1602 26.8981 18.1602 27.0838V33.0865C18.1602 33.6223 18.5945 34.0566 19.1304 34.0566H22.8864C22.9189 34.0566 22.9512 34.055 22.9833 34.0518C24.0107 33.9486 25.6825 33.4066 25.9251 31.0077C26.2509 30.8806 26.5998 30.8146 26.954 30.8146C28.5142 30.8146 29.7833 32.0837 29.7833 33.6437C29.7833 35.4372 28.6807 35.8662 26.3869 36.5933C23.529 37.4991 19.6149 38.7398 19.6149 45.2269V46.7709C17.7929 46.7752 16.3118 48.2586 16.3118 50.0818C16.3118 50.3794 16.3522 50.6743 16.4307 50.9586C15.7791 51.5758 15.3975 52.4376 15.3975 53.359C15.3974 54.2408 15.7425 55.0715 16.3695 55.6984C16.9962 56.3251 17.827 56.6704 18.7084 56.6704H31.1152C31.651 56.6704 32.0853 56.2361 32.0853 55.7002C32.0853 55.1644 31.651 54.7301 31.1152 54.7301H18.7084C18.3451 54.7301 18.0017 54.5868 17.7413 54.3265C17.4809 54.0661 17.3376 53.7227 17.3377 53.3592C17.3377 53.0742 17.4267 52.8026 17.5852 52.5767H30.0837C30.6196 52.5767 31.0539 52.1424 31.0539 51.6066C31.0539 51.0707 30.6196 50.6364 30.0837 50.6364H18.3712C18.2933 50.4625 18.2522 50.2737 18.2522 50.0821C18.2522 49.3261 18.867 48.7112 19.6229 48.7112L31.1152 48.7113C31.6509 48.7113 32.0853 48.2769 32.0853 47.7412C32.0853 47.2055 31.651 46.7711 31.1152 46.7711L21.5552 46.771V45.2272C21.5552 40.1605 24.187 39.3263 26.9733 38.4431C29.2 37.7372 31.7237 36.9373 31.7237 33.6439C31.7237 31.0141 29.584 28.8746 26.9541 28.8746C26.0804 28.8746 25.2253 29.1134 24.4812 29.5654C24.1915 29.7413 24.0147 30.0556 24.0147 30.3945C24.0147 31.7096 23.5829 32.031 22.835 32.1165H20.1005V30.9414H20.5144C21.0502 30.9414 21.4845 30.5071 21.4845 29.9712C21.4845 29.4354 21.0502 29.0011 20.5144 29.0011H20.1005V27.3722C22.3417 23.9817 25.3917 21.5255 28.5036 20.6139C29.011 20.4653 29.3059 19.9377 29.1668 19.4277L28.9274 18.5496L33.4802 20.6029C33.5175 20.6224 33.556 20.6396 33.5957 20.6541C37.058 21.9253 39.0436 25.9385 39.0436 31.6645ZM29.4637 24.1474C28.9279 24.1474 28.4936 24.5817 28.4936 25.1175C28.4936 25.6534 28.9279 26.0876 29.4637 26.0876H29.6806C30.2164 26.0876 30.6507 25.6534 30.6507 25.1175C30.6507 24.5817 30.2164 24.1474 29.6806 24.1474H29.4637ZM47.2066 45.6824V54.6163C47.2066 55.7489 46.285 56.6703 45.1522 56.6703H36.2184C35.0858 56.6703 34.1643 55.7489 34.1643 54.6163V45.6824C34.1643 44.5497 35.0858 43.6282 36.2184 43.6282H45.1522C46.285 43.6282 47.2066 44.5496 47.2066 45.6824ZM45.2664 45.6824C45.2664 45.6217 45.213 45.5685 45.1522 45.5685H36.2184C36.1577 45.5685 36.1045 45.6217 36.1045 45.6824V54.6163C36.1045 54.6769 36.1577 54.73 36.2184 54.73H45.1522C45.2129 54.73 45.2664 54.6769 45.2664 54.6163V45.6824ZM42.4868 47.4265H42.2733C41.7374 47.4265 41.3031 47.8608 41.3031 48.3967C41.3031 48.9325 41.7374 49.3668 42.2733 49.3668H42.4868C43.0226 49.3668 43.4569 48.9325 43.4569 48.3967C43.4569 47.8608 43.0226 47.4265 42.4868 47.4265ZM42.4867 50.9315H42.2731C41.7373 50.9315 41.303 51.3658 41.303 51.9016C41.303 52.4374 41.7373 52.8717 42.2731 52.8717H42.4867C43.0225 52.8717 43.4568 52.4374 43.4568 51.9016C43.4568 51.3658 43.0224 50.9315 42.4867 50.9315ZM39.0978 47.4265H38.8843C38.3485 47.4265 37.9142 47.8608 37.9142 48.3967C37.9142 48.9325 38.3485 49.3668 38.8843 49.3668H39.0978C39.6337 49.3668 40.068 48.9325 40.068 48.3967C40.068 47.8608 39.6337 47.4265 39.0978 47.4265ZM39.0977 50.9315H38.8842C38.3484 50.9315 37.9141 51.3658 37.9141 51.9016C37.9141 52.4374 38.3484 52.8717 38.8842 52.8717H39.0977C39.6336 52.8717 40.0679 52.4374 40.0679 51.9016C40.0679 51.3658 39.6336 50.9315 39.0977 50.9315Z" fill="black"/>
</g>
<defs>
<filter id="filter0_d_499_350" x="0.0213828" y="-3.31429" width="77.3332" height="77.3333" filterUnits="userSpaceOnUse" color-interpolation-filters="sRGB">
<feFlood flood-opacity="0" result="BackgroundImageFix"/>
<feColorMatrix in="SourceAlpha" type="matrix" values="0 0 0 0 0 0 0 0 0 0 0 0 0 0 0 0 0 0 127 0" result="hardAlpha"/>
<feOffset dy="1.10476"/>
<feGaussianBlur stdDeviation="2.20952"/>
<feComposite in2="hardAlpha" operator="out"/>
<feColorMatrix type="matrix" values="0 0 0 0 0 0 0 0 0 0 0 0 0 0 0 0 0 0 0.15 0"/>
<feBlend mode="normal" in2="BackgroundImageFix" result="effect1_dropShadow_499_350"/>
<feBlend mode="normal" in="SourceGraphic" in2="effect1_dropShadow_499_350" result="shape"/>
</filter>
<clipPath id="clip0_499_350">
<rect width="50.819" height="49.7603" fill="white" transform="translate(13.2773 8.83826)"/>
</clipPath>
</defs>
</svg>
