<svg width="79" height="75" viewBox="0 0 79 75" fill="none" xmlns="http://www.w3.org/2000/svg">
<g filter="url(#filter0_d_499_356)">
<circle cx="39.3599" cy="34.2476" r="34.2476" fill="white"/>
</g>
<g clip-path="url(#clip0_499_356)">
<path d="M31.8392 37.126V43.8617C31.8392 44.4039 32.2787 44.8435 32.8213 44.8435C33.3638 44.8435 33.8034 44.4039 33.8034 43.8617V37.7416L30.6925 34.458C30.013 33.7406 29.7449 32.7387 29.9756 31.7778L30.7243 28.6582H29.8493L30.5056 27.6627C30.644 27.726 30.7895 27.776 30.9424 27.807C31.1003 27.3409 31.368 26.9339 31.7126 26.6126C32.1641 26.1919 32.7474 25.9202 33.3862 25.853C33.4818 25.8429 33.5783 25.8365 33.6766 25.8359V22.6224C33.6766 22.0801 33.2369 21.6405 32.6948 21.6405C32.1526 21.6405 31.7129 22.0805 31.7129 22.6224V23.8073C31.5955 23.7861 31.475 23.7732 31.3514 23.7732C31.227 23.7732 31.1059 23.786 30.9877 23.8075V21.0115C30.9877 20.4692 30.5482 20.0297 30.0056 20.0297C29.4634 20.0297 29.0238 20.4692 29.0238 21.0115V26.343L28.5482 27.0646L28.0727 26.343V21.0115C28.0727 20.4692 27.633 20.0297 27.0909 20.0297C26.5487 20.0297 26.109 20.4692 26.109 21.0115V23.8075C25.9908 23.7863 25.8698 23.7732 25.7453 23.7732C25.4946 23.7732 25.2553 23.8207 25.0332 23.9037V19.3379C25.0332 18.7956 24.5936 18.3561 24.0511 18.3561C23.5087 18.3561 23.0693 18.7957 23.0693 19.3379V24.6694L22.4665 25.5841V21.0115C22.4665 20.4692 22.0269 20.0297 21.4847 20.0297C20.9425 20.0297 20.5029 20.4692 20.5029 21.0115V22.2301C20.2808 22.1473 20.0418 22.0996 19.7908 22.0996C18.6656 22.0996 17.7534 23.0117 17.7534 24.1369C17.7534 25.2621 18.6655 26.1743 19.7908 26.1743C20.0415 26.1743 20.2808 26.1268 20.5029 26.0438V26.6374C20.5029 26.7568 20.5271 26.8739 20.569 26.9844H19.7908H18.0376L16.5116 24.6692V19.3381C16.5116 18.7958 16.072 18.3563 15.5298 18.3563C14.9876 18.3563 14.5479 18.7957 14.5479 19.3379V24.9639C14.5479 25.1561 14.6042 25.3438 14.7099 25.5042L17.358 29.5219V33.8144C17.3455 33.8774 17.3385 33.9424 17.3385 34.0091V42.1882C17.3385 42.7305 17.7781 43.17 18.3204 43.17C18.8626 43.17 19.3025 42.7305 19.3025 42.1882V35.4523H19.7906H20.2787V42.188C20.2787 42.7303 20.7184 43.1698 21.2608 43.1698C21.8033 43.1698 22.2429 42.7303 22.2429 42.188V34.0089C22.2429 33.9423 22.236 33.8773 22.2234 33.8142V29.5421L23.3132 31.1953V35.4878C23.3006 35.5508 23.2936 35.6158 23.2936 35.6825V43.8617C23.2936 44.4039 23.7332 44.8435 24.2757 44.8435C24.818 44.8435 25.2576 44.4039 25.2576 43.8617V37.126H25.7457H26.2338V43.8617C26.2338 44.4039 26.6734 44.8435 27.2157 44.8435C27.7579 44.8435 28.1975 44.4039 28.1975 43.8617V35.6825C28.1975 35.6159 28.1905 35.5509 28.178 35.4878V31.1953L28.5487 30.6327L28.9193 31.1953V35.4878C28.9067 35.5508 28.8998 35.6158 28.8998 35.6825V43.8617C28.8998 44.4039 29.3394 44.8435 29.8816 44.8435C30.4239 44.8435 30.8637 44.4039 30.8637 43.8617V37.126H31.3519H31.8392ZM25.7445 28.6582H23.9916L23.3916 27.7477L23.9892 26.8412C24.3434 27.4428 24.9958 27.8478 25.7444 27.8478C26.0465 27.8478 26.3319 27.7802 26.5899 27.6626L27.2462 28.6581H25.7445V28.6582Z" fill="black"/>
<path d="M35.9163 26.8713C36.0172 26.7099 36.1255 26.5537 36.244 26.4058C36.3545 26.268 36.4703 26.135 36.5947 26.01C36.8131 25.7905 37.0522 25.5922 37.3085 25.4171C37.5888 25.2257 37.8904 25.0639 38.2081 24.9334V23.3588C38.2081 22.8166 37.7685 22.377 37.2263 22.377C36.9845 22.377 36.7658 22.4679 36.5948 22.6126V21.0119C36.5948 20.4696 36.1551 20.03 35.6127 20.03C35.0702 20.03 34.6309 20.4696 34.6309 21.0119V25.9919C34.8562 26.068 35.0658 26.1712 35.2596 26.2951C35.5088 26.4541 35.7291 26.649 35.9163 26.8713Z" fill="black"/>
<path d="M35.2703 39.2906L34.5029 38.4806V44.3443L35.2703 43.4065V39.2906Z" fill="black"/>
<path d="M62.9109 19.0923C62.3688 19.0923 61.9291 19.5319 61.9291 20.0741V25.4056L60.4031 27.7207H58.6503H57.8721C57.914 27.61 57.9382 27.4931 57.9382 27.3737V26.7801C58.1603 26.863 58.3994 26.9106 58.65 26.9106C59.7753 26.9106 60.6873 25.9986 60.6873 24.8733C60.6873 23.7481 59.7753 22.836 58.65 22.836C58.3994 22.836 58.1599 22.8835 57.9382 22.9665V21.7479C57.9382 21.2056 57.4987 20.766 56.956 20.766C56.4139 20.766 55.9743 21.2056 55.9743 21.7479V26.3207L55.3711 25.4061V20.074C55.3711 19.5317 54.9316 19.0922 54.3894 19.0922C53.8471 19.0922 53.4072 19.5318 53.4072 20.074V24.6398C53.1852 24.557 52.9461 24.5093 52.6951 24.5093C52.5709 24.5093 52.4498 24.5221 52.3314 24.5436V21.7477C52.3314 21.2054 51.8919 20.7658 51.3496 20.7658C50.8075 20.7658 50.3679 21.2054 50.3679 21.7477V27.0792L49.8921 27.8008L49.8174 27.6876V27.9141V31.256V31.4825L49.8921 31.3693L50.2628 31.9319V36.2243C50.2503 36.2873 50.2433 36.3523 50.2433 36.419V44.5982C50.2433 45.1404 50.6829 45.58 51.2254 45.58C51.7676 45.58 52.2072 45.1404 52.2072 44.5982V37.8626H52.6953H53.1834V44.5982C53.1834 45.1404 53.623 45.58 54.1652 45.58C54.7074 45.58 55.1474 45.1404 55.1474 44.5982V36.4189C55.1474 36.3523 55.1404 36.2873 55.1278 36.2242V31.9318L56.2175 30.2785V34.5507C56.205 34.6137 56.1981 34.6787 56.1981 34.7454V42.9245C56.1981 43.4668 56.6376 43.9064 57.1801 43.9064C57.7226 43.9064 58.1619 43.4668 58.1619 42.9245V36.1889H58.65H59.1381V42.9245C59.1381 43.4668 59.5778 43.9064 60.1203 43.9064C60.6627 43.9064 61.1021 43.4668 61.1021 42.9245V34.7454C61.1021 34.6788 61.0952 34.6138 61.0825 34.5507V30.2582L63.7306 26.2405C63.8364 26.08 63.8928 25.8924 63.8928 25.7002V20.0742C63.8931 19.5322 63.4535 19.0923 62.9109 19.0923ZM54.4487 29.3946H52.6959H51.1944L51.8508 28.3991C52.1084 28.5171 52.3941 28.5843 52.6962 28.5843C53.4449 28.5843 54.0975 28.1793 54.4515 27.5777L55.049 28.4842L54.4487 29.3946Z" fill="black"/>
<path d="M49.5242 32.8387C49.4694 32.9514 49.4099 33.0619 49.3401 33.1676L45.4844 39.0176V45.1042C45.5045 45.2431 45.5148 45.3832 45.5148 45.5218V45.5689C45.5503 45.5728 45.5851 45.5798 45.6217 45.5798C46.1639 45.5798 46.6035 45.1402 46.6035 44.598V37.8623H47.0916H47.5797V44.598C47.5797 45.1402 48.0193 45.5798 48.5617 45.5798C49.1042 45.5798 49.5436 45.1402 49.5436 44.598V36.4188C49.5436 36.3522 49.5366 36.2872 49.524 36.2241V32.8387H49.5242Z" fill="black"/>
<path d="M43.8115 21.7474C43.8115 21.2052 43.372 20.7656 42.8297 20.7656C42.2876 20.7656 41.8477 21.2052 41.8477 21.7474V21.8761C41.6764 21.731 41.458 21.6403 41.2162 21.6403C40.6739 21.6403 40.2344 22.0803 40.2344 22.6222V24.5758C40.802 24.5961 41.3452 24.7122 41.8477 24.911C41.967 24.9582 42.0834 25.0112 42.1981 25.0672C42.8209 25.3724 43.3715 25.8016 43.8115 26.3291V21.7474H43.8115Z" fill="black"/>
<path d="M22.6247 17.4398C23.2105 16.6711 23.2367 15.5899 22.7524 14.7442C22.2286 13.8295 19.9391 12.0874 21.2035 11.0739C21.9053 10.5113 20.9118 9.53114 20.2173 10.0876C19.3939 10.7476 19.3155 11.7607 19.602 12.7202C19.9838 13.9985 22.4923 15.3287 21.4206 16.7357C20.8749 17.4514 22.0872 18.1449 22.6247 17.4398Z" fill="black"/>
<path d="M58.9831 11.4796C59.8778 11.389 59.5768 10.0262 58.6916 10.1157C57.6415 10.222 57.0252 11.0294 56.7441 11.9906C56.3696 13.2712 57.7518 15.7515 56.0875 16.3494C55.2406 16.6537 55.881 17.8947 56.7153 17.5949C57.6249 17.268 58.2347 16.3748 58.2881 15.4019C58.3453 14.3496 57.3708 11.6429 58.9831 11.4796Z" fill="black"/>
<path d="M31.6656 17.2861C31.8154 18.249 32.5111 19.0774 33.4486 19.312C34.3088 19.5274 34.8227 18.229 33.9499 18.0103C32.2342 17.5805 33.363 14.9752 32.8632 13.7381C32.488 12.8096 31.7944 12.0673 30.7389 12.0659C29.8491 12.0648 29.6849 13.4508 30.5844 13.4519C32.2043 13.4545 31.5038 16.245 31.6656 17.2861Z" fill="black"/>
<path d="M48.7089 12.2875C49.1189 11.3737 49.1743 10.3592 48.4442 9.59688C47.8289 8.95397 46.7151 9.79551 47.3371 10.4452C48.4577 11.6156 45.9595 13.0426 45.3202 13.8805C44.7291 14.6553 44.6134 15.7307 45.0934 16.5696C45.5337 17.3392 46.8262 16.8109 46.3797 16.0296C45.5016 14.4946 48.1629 13.505 48.7089 12.2875Z" fill="black"/>
<path d="M36.119 13.7492C36.4924 14.6494 37.3647 15.2893 38.3309 15.295C39.2177 15.3006 39.4093 13.9174 38.5094 13.9116C36.7407 13.9003 37.2205 11.1018 36.4416 10.0185C35.857 9.20517 35.0073 8.6484 33.9818 8.89726C33.1168 9.107 33.2855 10.4925 34.1597 10.2804C35.7349 9.89886 35.7151 12.7758 36.119 13.7492Z" fill="black"/>
<path d="M26.2637 17.5636C27.5228 17.5636 27.5228 15.6111 26.2637 15.6111C25.0046 15.6111 25.0046 17.5636 26.2637 17.5636Z" fill="black"/>
<path d="M16.9219 14.7742C18.1809 14.7742 18.1809 12.8217 16.9219 12.8217C15.6628 12.8217 15.6628 14.7742 16.9219 14.7742Z" fill="black"/>
<path d="M43.1386 10.3112C41.8796 10.3112 41.8796 12.2637 43.1386 12.2637C44.3976 12.2637 44.3976 10.3112 43.1386 10.3112Z" fill="black"/>
<path d="M41.3281 17.2848C42.5873 17.2848 42.5873 15.3323 41.3281 15.3323C40.069 15.3323 40.069 17.2848 41.3281 17.2848Z" fill="black"/>
<path d="M52.0703 14.356C53.3293 14.356 53.3293 12.4034 52.0703 12.4034C50.8113 12.4034 50.8112 14.356 52.0703 14.356Z" fill="black"/>
<path d="M63.2255 14.4954C61.9665 14.4954 61.9665 16.4479 63.2255 16.4479C64.4845 16.4479 64.4846 14.4954 63.2255 14.4954Z" fill="black"/>
<path d="M44.6375 37.7652L48.1735 32.4005C48.3367 32.1531 48.4234 31.8632 48.4234 31.567V29.395V29.1406V28.0851V25.0097V20.8778C48.4234 20.8407 48.4206 20.8042 48.4178 20.7677C48.3612 19.9828 47.7078 19.363 46.9081 19.363C46.0713 19.363 45.3934 20.0414 45.3934 20.8779V22.445V25.4192V27.6752V29.3948V31.1125L44.6569 32.2296L43.0393 34.6845H39.3874H39.0532H37.0017L34.4699 32.0118L34.9719 29.9201L35.1689 29.0997C35.1695 29.0969 35.1697 29.0938 35.1706 29.091C35.1798 29.0511 35.1871 29.0113 35.1929 28.9716C35.1948 28.9518 35.1982 28.9326 35.2005 28.9127C35.22 28.739 35.2086 28.5674 35.1703 28.4037C35.1341 28.2483 35.0747 28.1 34.9932 27.9647C34.7909 27.6292 34.4601 27.3715 34.0493 27.2727C34.0395 27.2705 34.03 27.2696 34.0203 27.2674C33.9106 27.2431 33.8013 27.23 33.6934 27.23C33.6876 27.23 33.682 27.2315 33.6762 27.2315C32.9992 27.2392 32.3878 27.7037 32.2226 28.3918L32.1587 28.6581L32.06 29.0698L31.3321 32.1032C31.2124 32.6016 31.3529 33.1269 31.7052 33.499L33.8031 35.7137L34.5227 36.4735L36.6649 38.7351V38.7371V43.9045L36.4669 44.1463L34.8044 46.1781L31.6324 50.0555C31.1251 50.6762 31.1883 51.5842 31.7774 52.1284L35.6373 55.6916C35.9285 55.9605 36.297 56.0932 36.6643 56.0932C37.0724 56.0932 37.4793 55.9292 37.7778 55.6059C38.3454 54.9909 38.3069 54.0327 37.6922 53.4648L34.8811 50.8699L37.4347 47.7493H41.0881V58.1417C41.0881 58.9782 41.7666 59.6566 42.603 59.6566C43.4396 59.6566 44.1179 58.9782 44.1179 58.1417V45.5223C44.1179 45.4194 44.1071 45.3188 44.0875 45.2216V38.6L44.6375 37.7652Z" fill="black"/>
<path d="M36.6607 30.2693C36.8925 31.2394 37.5257 32.0531 38.3784 32.5209C38.6886 32.6909 39.0278 32.8146 39.3862 32.884C39.6033 32.9261 39.8267 32.9498 40.0556 32.9498C41.428 32.9498 42.6121 32.1565 43.1835 31.0054C43.3169 30.7368 43.4196 30.4504 43.4803 30.1479C43.5253 29.9242 43.5496 29.6927 43.5496 29.4556C43.5496 29.1825 43.515 28.9182 43.4558 28.6632C43.2717 27.8702 42.8186 27.182 42.1962 26.6984C42.0846 26.6116 41.9674 26.5321 41.8458 26.4593C41.6342 26.3327 41.4087 26.2269 41.1711 26.1469C40.8741 26.0467 40.5592 25.9871 40.2326 25.9706C40.1737 25.9675 40.1154 25.9617 40.0557 25.9617C39.5482 25.9617 39.067 26.0724 38.6318 26.2671C38.4837 26.3332 38.342 26.4102 38.2056 26.4956C37.3208 27.0498 36.7011 27.9864 36.583 29.076C36.5808 29.0957 36.5806 29.1155 36.5777 29.1353C36.5691 29.2293 36.5644 29.3244 36.5633 29.4203C36.5633 29.432 36.5615 29.4435 36.5615 29.4555C36.5615 29.5685 36.568 29.6798 36.5786 29.79C36.5941 29.9538 36.6233 30.1131 36.6607 30.2693Z" fill="black"/>
</g>
<defs>
<filter id="filter0_d_499_356" x="0.693258" y="-3.31429" width="77.3332" height="77.3333" filterUnits="userSpaceOnUse" color-interpolation-filters="sRGB">
<feFlood flood-opacity="0" result="BackgroundImageFix"/>
<feColorMatrix in="SourceAlpha" type="matrix" values="0 0 0 0 0 0 0 0 0 0 0 0 0 0 0 0 0 0 127 0" result="hardAlpha"/>
<feOffset dy="1.10476"/>
<feGaussianBlur stdDeviation="2.20952"/>
<feComposite in2="hardAlpha" operator="out"/>
<feColorMatrix type="matrix" values="0 0 0 0 0 0 0 0 0 0 0 0 0 0 0 0 0 0 0.15 0"/>
<feBlend mode="normal" in2="BackgroundImageFix" result="effect1_dropShadow_499_356"/>
<feBlend mode="normal" in="SourceGraphic" in2="effect1_dropShadow_499_356" result="shape"/>
</filter>
<clipPath id="clip0_499_356">
<rect width="50.819" height="50.819" fill="white" transform="translate(13.9492 8.83826)"/>
</clipPath>
</defs>
</svg>
