<svg width="79" height="75" viewBox="0 0 79 75" fill="none" xmlns="http://www.w3.org/2000/svg">
<g filter="url(#filter0_d_499_382)">
<circle cx="39.5757" cy="34.2476" r="34.2476" fill="white"/>
</g>
<path d="M63.7772 33.7282H50.7964V27.2925C50.7964 26.8129 50.4088 26.4253 49.9292 26.4253C49.4496 26.4253 49.062 26.8129 49.062 27.2925V33.7282H36.0802C35.4142 33.7282 34.873 34.2685 34.873 34.9354V38.1312C34.873 38.7982 35.4142 39.3384 36.0802 39.3384H39.5058V53.9158C39.5058 54.3954 39.8934 54.783 40.3729 54.783H43.3104C43.7899 54.783 44.1775 54.3954 44.1775 53.9158V39.3383H63.778C64.4449 39.3383 64.9852 38.7981 64.9852 38.1311V34.9353C64.9845 34.2685 64.4441 33.7282 63.7772 33.7282Z" fill="black"/>
<path d="M17.9672 54.3443L25.513 49.0498C26.1262 48.6189 26.5043 47.9276 26.5381 47.1783L26.8312 40.3982L31.8577 44.7014V52.3696C31.8577 53.7025 32.9383 54.7831 34.2713 54.7831C35.6034 54.7831 36.684 53.7025 36.684 52.3696V43.5906C36.684 42.8862 36.377 42.215 35.8402 41.7571L29.5206 36.3456V32.28L31.7858 32.1759C32.0738 32.1629 32.3513 32.0736 32.5923 31.9157L36.2546 29.5257L37.657 29.9646C37.8174 30.014 37.9779 30.0383 38.1383 30.0383C38.8235 30.0383 39.4574 29.5969 39.6724 28.9083C39.8337 28.3932 39.7201 27.8607 39.4183 27.4609L40.9255 26.4765C41.6697 25.9909 41.8787 24.9935 41.393 24.2503C41.3306 24.1541 41.2586 24.0682 41.1805 23.9901L41.3453 23.3935C41.4077 23.1714 41.3253 22.9416 41.1544 22.8055C41.3383 22.4412 41.8041 22.1854 41.8084 22.182L41.8101 22.1811C42.7476 22.2236 43.6262 21.6174 43.8855 20.6755L44.1031 19.8898C44.4049 18.797 43.7614 17.6618 42.6687 17.3592L41.5873 17.06C40.4937 16.7574 39.3585 17.4008 39.0558 18.4944L38.8382 19.28C38.5875 20.188 38.99 21.1238 39.7592 21.5878L39.7774 21.6207C39.7808 21.6251 40.0644 22.1107 40.015 22.5261C39.8312 22.5763 39.6742 22.7186 39.6203 22.9163L39.4174 23.65C39.3316 23.6865 39.2457 23.7281 39.1642 23.781L35.7637 26.001L31.2064 24.5771C31.0511 24.5276 30.8899 24.5033 30.7268 24.5033H29.5205V24.499H24.592C23.2599 24.499 22.1793 25.5787 22.1793 26.9125V37.0393H22.188C22.1576 37.1772 22.1316 37.3185 22.1256 37.4651L21.7675 45.7801L15.1947 50.3913C14.1037 51.157 13.841 52.6626 14.6058 53.7535C15.075 54.4222 15.8235 54.7813 16.5831 54.7813C17.0618 54.7824 17.5457 54.6401 17.9672 54.3443ZM29.5205 27.7228H30.4831L32.2731 28.283L31.202 28.982L29.5204 29.0575V27.7228H29.5205Z" fill="black"/>
<path d="M25.8505 23.7473C27.8319 23.7473 29.4382 22.141 29.4382 20.1595C29.4382 18.1781 27.8319 16.5718 25.8505 16.5718C23.869 16.5718 22.2627 18.1781 22.2627 20.1595C22.2627 22.141 23.869 23.7473 25.8505 23.7473Z" fill="black"/>
<defs>
<filter id="filter0_d_499_382" x="0.909078" y="-3.31429" width="77.3332" height="77.3333" filterUnits="userSpaceOnUse" color-interpolation-filters="sRGB">
<feFlood flood-opacity="0" result="BackgroundImageFix"/>
<feColorMatrix in="SourceAlpha" type="matrix" values="0 0 0 0 0 0 0 0 0 0 0 0 0 0 0 0 0 0 127 0" result="hardAlpha"/>
<feOffset dy="1.10476"/>
<feGaussianBlur stdDeviation="2.20952"/>
<feComposite in2="hardAlpha" operator="out"/>
<feColorMatrix type="matrix" values="0 0 0 0 0 0 0 0 0 0 0 0 0 0 0 0 0 0 0.15 0"/>
<feBlend mode="normal" in2="BackgroundImageFix" result="effect1_dropShadow_499_382"/>
<feBlend mode="normal" in="SourceGraphic" in2="effect1_dropShadow_499_382" result="shape"/>
</filter>
</defs>
</svg>
