<svg width="79" height="75" viewBox="0 0 79 75" fill="none" xmlns="http://www.w3.org/2000/svg">
<g filter="url(#filter0_d_499_401)">
<circle cx="39.4615" cy="34.2476" r="34.2476" fill="white"/>
</g>
<path d="M63.2815 44.7948L61.6561 41.4924L57.6573 43.8054L57.531 43.6871C57.5628 43.6673 57.5954 43.6514 57.6263 43.6291C57.6263 43.6291 61.2781 41.4654 61.3687 41.4003C62.6765 40.453 62.6121 37.9668 61.2257 35.8467C59.8377 33.725 57.6501 32.7745 56.3423 33.7202L52.8803 35.7847C52.7834 35.8324 52.6897 35.8872 52.6 35.9515C51.991 36.3914 51.8568 37.3998 52.0005 38.4845L51.8885 38.3789V35.3512L48.4114 29.8421L46.389 28.5049C46.389 28.5049 46.678 28.3453 46.7836 28.2715C48.2915 27.1781 48.2192 24.3123 46.6184 21.8667C45.0184 19.4234 42.4965 18.3236 40.9878 19.4162L33.9693 23.6017L34.0233 24.5021L33.5405 24.7665L29.1581 23.0657V22.0771L35.2477 18.8636L32.0913 15.9844L15.6387 22.1446L20.5125 26.6421L25.9573 23.7684V25.1707L28.8484 27.3361L27.4446 28.1039L25.5865 27.6791L22.7049 29.3244V29.8048L18.3861 32.3775C18.259 32.4386 18.136 32.5117 18.0184 32.5959C16.4494 33.7313 17.2919 37.7572 18.5838 39.7328C19.9384 41.8005 21.6639 43.0836 23.1639 43.0836C23.675 43.0869 24.1736 42.9257 24.586 42.6239L29.1033 39.9329C29.2326 39.8707 29.3561 39.7974 29.4726 39.7137C29.7428 39.5134 29.972 39.263 30.1475 38.976L34.0773 41.9299L39.2878 43.1098C39.2084 43.1535 39.129 43.1964 39.0543 43.2512C37.6679 44.2533 38.4112 47.8082 39.5522 49.5535C40.748 51.3783 42.2718 52.5106 43.5947 52.5106C44.0426 52.5106 44.4674 52.3811 44.8485 52.1048L48.629 49.8529L52.8811 51.7634L63.2815 44.7948ZM60.6016 42.3984L61.9586 45.3101L61.0852 45.8946L59.5765 43.0098L60.6016 42.3984M30.8034 16.7562L33.5468 19.4385L32.5003 19.9911L29.4853 17.2493L30.8034 16.7562M22.7049 25.1175L18.1693 21.5792L20.1092 20.8527L24.1207 24.3711L22.7049 25.1175M53.0661 36.5939C53.2757 36.4467 53.5271 36.3709 53.7831 36.3779C54.5994 36.3779 55.8548 37.0385 56.8188 38.5123C58.0551 40.4005 57.9916 42.3849 57.1602 42.986C57.0832 43.0415 57.0022 43.0781 56.918 43.1098L55.7532 42.0148C56.0001 42.0467 56.2497 41.9816 56.4495 41.833C57.1467 41.3296 57.1118 40.0067 56.3733 38.8799C55.6349 37.75 54.4716 37.245 53.776 37.7484C53.2908 38.0986 53.2908 38.8418 53.5814 39.6414L54.7439 38.9856C55.453 38.6266 56.394 39.6073 55.9199 40.3362L54.7415 41.0628L53.0081 39.4326C52.6453 38.2026 52.6159 36.9186 53.0661 36.5939M52.9462 46.7188L49.8971 48.6046C50.3425 47.674 50.3552 46.3869 49.9201 45.0473L52.9462 46.7188M49.8018 43.8959L49.5262 44.0651C49.3709 43.7435 49.1948 43.4324 48.999 43.1337C48.8703 42.9391 48.7336 42.75 48.5893 42.5667L48.625 42.5469C49.3349 42.1872 50.2758 43.1686 49.8018 43.8959ZM36.5944 22.4598L47.9731 30.0454L51.4597 35.5505L50.5291 36.1135L46.9773 30.5631L35.6177 23.0387L36.5944 22.4598M43.7956 33.2748C43.8877 33.2676 43.9671 33.2073 44.0362 33.1128C43.7019 34.5063 42.7959 35.2107 41.0617 35.2107C38.7915 35.2107 35.9679 34.0116 35.9679 31.6247C35.9679 29.237 37.8085 27.3027 40.0795 27.3027C42.0614 27.3027 43.7146 28.7757 44.1045 30.737C44.0291 30.6266 43.9369 30.5583 43.8226 30.5671C41.5365 30.733 38.5184 30.7108 38.4223 31.5684C38.3254 32.4275 40.1962 33.5344 43.7956 33.2748M26.8403 24.6268V23.3023L28.3649 22.4979V23.6112L37.5711 27.1828L34.8792 28.4732L26.8403 24.6268M25.6024 29.399C24.9846 29.2005 24.3835 29.1568 23.8372 29.2775L24.6932 28.7884L25.6024 29.399M23.1639 42.2896C21.9569 42.2896 20.4562 41.1438 19.2484 39.2984C18.0629 37.4848 17.457 33.9823 18.4845 33.2382C18.7855 33.0207 19.1484 32.9095 19.5636 32.9095C20.9231 32.9095 22.5993 34.0744 23.7324 35.8062C25.2871 38.182 25.465 41.0088 24.1199 41.9791C23.8439 42.1847 23.508 42.2939 23.1639 42.2896M34.0773 37.2942L30.3373 34.6485C29.9198 33.3679 29.2249 32.1953 28.3021 31.2142L35.9202 36.3358L44.5563 39.7891L43.2501 40.5784L34.0773 37.2942M43.5947 51.7165C42.5775 51.7165 41.2507 50.697 40.216 49.1192C39.0988 47.4104 38.7081 44.4812 39.5189 43.8952C39.7682 43.7141 40.0699 43.6236 40.4169 43.6236C41.5882 43.6236 43.0349 44.6328 44.0187 46.136C45.3638 48.1941 45.5314 50.6319 44.3824 51.4624C44.1458 51.6339 43.8877 51.7165 43.5947 51.7165ZM51.586 47.8971L54.813 50.1348L53.9181 50.7351L50.5267 48.5514L51.586 47.8971Z" fill="black"/>
<path d="M19.5573 34.9431C18.6481 35.5998 19.0229 37.3046 19.9876 38.7784C20.9524 40.2513 22.1419 40.9366 23.0503 40.2783C23.9595 39.6209 23.9142 37.8938 22.951 36.4208C21.9854 34.9455 20.4664 34.2856 19.5573 34.9431" fill="black"/>
<path d="M40.4106 45.3242C39.6062 45.903 39.9381 47.4078 40.7885 48.7108C41.6398 50.0114 42.6903 50.6141 43.4923 50.0337C44.2958 49.4532 44.2561 47.9287 43.4049 46.628C42.5529 45.3258 41.2133 44.7445 40.4106 45.3242" fill="black"/>
<defs>
<filter id="filter0_d_499_401" x="0.79482" y="-3.31429" width="77.3332" height="77.3333" filterUnits="userSpaceOnUse" color-interpolation-filters="sRGB">
<feFlood flood-opacity="0" result="BackgroundImageFix"/>
<feColorMatrix in="SourceAlpha" type="matrix" values="0 0 0 0 0 0 0 0 0 0 0 0 0 0 0 0 0 0 127 0" result="hardAlpha"/>
<feOffset dy="1.10476"/>
<feGaussianBlur stdDeviation="2.20952"/>
<feComposite in2="hardAlpha" operator="out"/>
<feColorMatrix type="matrix" values="0 0 0 0 0 0 0 0 0 0 0 0 0 0 0 0 0 0 0.15 0"/>
<feBlend mode="normal" in2="BackgroundImageFix" result="effect1_dropShadow_499_401"/>
<feBlend mode="normal" in="SourceGraphic" in2="effect1_dropShadow_499_401" result="shape"/>
</filter>
</defs>
</svg>
