<svg width="78" height="75" viewBox="0 0 78 75" fill="none" xmlns="http://www.w3.org/2000/svg">
<g filter="url(#filter0_d_499_409)">
<circle cx="39.1295" cy="34.2476" r="34.2476" fill="white"/>
</g>
<g clip-path="url(#clip0_499_409)">
<path d="M18.3732 21.377L18.1436 23.53L23.6544 30.0775L24.6111 23.0154C24.6557 22.6858 24.7491 22.3769 24.8378 22.0664L18.3732 21.377Z" fill="black"/>
<path d="M23.0629 34.4574L23.3515 32.3265L17.8982 25.8464L17.0918 33.4076C16.8917 35.2823 18.2493 36.9634 20.1242 37.1639L23.3829 37.5115C23.058 36.5566 22.9184 35.5249 23.0629 34.4574Z" fill="black"/>
<path d="M34.39 21.6393C33.9179 20.33 32.4724 19.6487 31.1623 20.1239C29.8522 20.5968 29.1733 22.0415 29.647 23.3516L32.7064 31.8255C32.9839 32.5963 33.6193 33.184 34.4098 33.4007L42.3401 35.581C42.5634 35.6425 42.7883 35.6721 43.01 35.6721C44.1165 35.6721 45.132 34.9374 45.4398 33.8178C45.8092 32.4749 45.0195 31.0875 43.6765 30.7182L37.0061 28.8844L34.39 21.6393Z" fill="black"/>
<path d="M42.6945 49.1744L41.6577 42.0221C41.5379 41.1963 41.0733 40.4608 40.3796 39.997L36.176 37.1903L34.6993 36.2043C34.7057 36.1613 34.7137 36.1069 34.7237 36.0371L34.829 35.2591L33.9652 35.0216C32.6485 34.6596 31.5896 33.6803 31.1258 32.3964L30.165 29.735L25.003 32.6583C25.003 32.6583 24.7974 34.1765 24.7289 34.6825C24.6709 35.1098 24.6595 36.5159 24.8487 37.123C25.1478 38.0827 26.0459 40.962 26.0459 40.962L27.6536 46.1181L25.4052 54.6674C24.9915 56.2394 25.9306 57.8484 27.5017 58.2612C27.753 58.3269 28.0049 58.3589 28.252 58.3589C29.5563 58.3589 30.7483 57.4846 31.0955 56.1647L33.559 46.7977C33.6993 46.2633 33.6871 45.7002 33.522 45.1731L32.4665 41.7885L36.0224 44.1626L36.8711 50.0179C37.0838 51.4833 38.3413 52.5388 39.7795 52.538C39.9198 52.538 40.0618 52.5282 40.2047 52.5077C41.8129 52.2749 42.9277 50.7826 42.6945 49.1744Z" fill="black"/>
<path d="M61.5851 30.7668C60.8431 30.2079 59.7882 30.3572 59.2309 31.0985L52.9208 39.483C52.796 39.6495 52.7024 39.8367 52.6458 40.037L50.0478 49.2251L46.0608 49.7948C45.8539 49.8244 45.6545 49.8916 45.4722 49.995L33.9308 56.512C33.1222 56.9683 32.8374 57.9937 33.2937 58.8022C33.6024 59.3498 34.1721 59.6568 34.759 59.6568C35.039 59.6568 35.323 59.587 35.5839 59.4393L46.8496 53.0783L51.6057 52.3987C52.2633 52.3051 52.8042 51.8323 52.9856 51.192L55.7963 41.2545L61.9168 33.1213C62.4759 32.379 62.3264 31.3251 61.5851 30.7668Z" fill="black"/>
<path d="M19.0646 20.494L25.1815 21.1469L25.9566 21.2296C26.3373 21.2702 26.7151 21.2327 27.0811 21.1484C26.6751 21.7623 26.3835 22.4635 26.2785 23.2416L25.2863 30.5663L29.5857 28.1313L28.0663 23.9229C27.6595 22.7958 27.7719 21.6126 28.2686 20.6191C28.3323 20.5746 28.402 20.5409 28.4629 20.4917C28.8886 20.1477 29.207 19.7036 29.4248 19.2124C29.5672 18.8911 29.675 18.5534 29.713 18.1973C29.7421 17.9242 29.7294 17.6578 29.6956 17.3967C29.4978 15.8666 28.2823 14.6121 26.6807 14.441L19.7861 13.7055C18.8864 13.6094 17.9859 13.8745 17.2817 14.4425C16.5782 15.0115 16.1282 15.8355 16.0323 16.7377C15.832 18.6127 17.1898 20.2939 19.0646 20.494Z" fill="black"/>
<path d="M34.4428 18.6355C37.1483 18.6355 39.3416 16.4422 39.3416 13.7366C39.3416 11.0311 37.1483 8.83777 34.4428 8.83777C31.7372 8.83777 29.5439 11.0311 29.5439 13.7366C29.5439 16.4422 31.7372 18.6355 34.4428 18.6355Z" fill="black"/>
</g>
<defs>
<filter id="filter0_d_499_409" x="0.462789" y="-3.31429" width="77.3332" height="77.3333" filterUnits="userSpaceOnUse" color-interpolation-filters="sRGB">
<feFlood flood-opacity="0" result="BackgroundImageFix"/>
<feColorMatrix in="SourceAlpha" type="matrix" values="0 0 0 0 0 0 0 0 0 0 0 0 0 0 0 0 0 0 127 0" result="hardAlpha"/>
<feOffset dy="1.10476"/>
<feGaussianBlur stdDeviation="2.20952"/>
<feComposite in2="hardAlpha" operator="out"/>
<feColorMatrix type="matrix" values="0 0 0 0 0 0 0 0 0 0 0 0 0 0 0 0 0 0 0.15 0"/>
<feBlend mode="normal" in2="BackgroundImageFix" result="effect1_dropShadow_499_409"/>
<feBlend mode="normal" in="SourceGraphic" in2="effect1_dropShadow_499_409" result="shape"/>
</filter>
<clipPath id="clip0_499_409">
<rect width="50.819" height="50.819" fill="white" transform="translate(13.7207 8.83826)"/>
</clipPath>
</defs>
</svg>
