<svg width="78" height="75" viewBox="0 0 78 75" fill="none" xmlns="http://www.w3.org/2000/svg">
<g filter="url(#filter0_d_499_423)">
<circle cx="38.7974" cy="34.2476" r="34.2476" fill="white"/>
</g>
<g clip-path="url(#clip0_499_423)">
<path d="M23.407 17.8895C26.5921 15.3597 25.4004 9.99056 21.424 8.99491C17.9026 8.10963 14.6372 11.0914 15.1831 14.6922C15.764 18.5241 20.3573 20.309 23.407 17.8895Z" fill="black"/>
<path d="M26.6991 20.8732C26.0759 19.6424 24.5396 19.075 23.2655 19.6062L18.4029 21.6367C17.5259 22.004 16.9997 22.8036 16.9389 23.6744L16.9213 23.6414C16.9213 23.6414 14.8836 29.4738 16.9213 33.3263C18.3378 36.0047 21.4589 37.3564 23.2314 37.9321L23.9371 39.4436C23.9598 39.491 23.9909 39.5304 24.0145 39.5757L24.062 39.6769L24.0712 39.6728C24.552 40.5095 25.3713 41.0522 26.2853 41.1967C25.7127 44.4157 25.9398 49.1163 30.4236 52.9585C30.5412 53.0597 30.6857 53.1091 30.8302 53.1091C31.0055 53.1091 31.181 53.0359 31.3037 52.8914C31.5286 52.6293 31.4987 52.2352 31.2357 52.0103C27.0252 48.4002 26.9395 44.0308 27.5297 41.1399C27.5989 41.1224 27.6679 41.1151 27.7371 41.0933L40.0323 37.0852L53.9402 45.8942C54.2921 46.1161 54.6707 46.2532 55.0565 46.3234L58.2467 55.2553C58.7119 56.5552 59.8377 58.3195 60.762 59.1955C61.6875 60.0714 62.4386 59.6629 62.4407 58.2835L62.4768 15.6167C62.4768 14.0794 61.2418 12.8454 59.7066 12.8454H31.2202C30.8818 12.3595 30.3205 12.0406 29.6839 12.0406H28.1218C27.509 12.0406 26.9343 12.3409 26.5835 12.8444C26.2337 13.3468 26.1501 13.9896 26.3637 14.5653L29.5951 23.302L28.0165 23.4827L26.6991 20.8732ZM43.2615 19.6217C44.6028 19.9487 45.8356 21.3138 46.0152 22.6704C46.1947 24.0261 47.4121 25.4499 48.7338 25.8492L55.0862 27.7673C56.4079 28.1666 57.7822 29.4201 58.1546 30.5675C58.526 31.7147 58.3774 33.6678 57.8172 34.9296L55.7341 39.6334L42.1337 31.0204C41.3433 30.522 40.3796 30.3994 39.4924 30.6893L34.0119 32.4762C36.1971 30.2445 40.1167 25.3645 40.3467 18.9119L43.2615 19.6217ZM32.3974 26.7541C32.97 26.6881 33.4797 26.3642 33.7809 25.8731C34.0821 25.3819 34.142 24.7804 33.9419 24.2408L31.1407 16.6689L39.1037 18.6086C38.9737 25.5378 34.2266 30.6036 32.4551 32.2555L29.8231 27.0483L32.3974 26.7541Z" fill="black"/>
</g>
<defs>
<filter id="filter0_d_499_423" x="0.130758" y="-3.31429" width="77.3332" height="77.3333" filterUnits="userSpaceOnUse" color-interpolation-filters="sRGB">
<feFlood flood-opacity="0" result="BackgroundImageFix"/>
<feColorMatrix in="SourceAlpha" type="matrix" values="0 0 0 0 0 0 0 0 0 0 0 0 0 0 0 0 0 0 127 0" result="hardAlpha"/>
<feOffset dy="1.10476"/>
<feGaussianBlur stdDeviation="2.20952"/>
<feComposite in2="hardAlpha" operator="out"/>
<feColorMatrix type="matrix" values="0 0 0 0 0 0 0 0 0 0 0 0 0 0 0 0 0 0 0.15 0"/>
<feBlend mode="normal" in2="BackgroundImageFix" result="effect1_dropShadow_499_423"/>
<feBlend mode="normal" in="SourceGraphic" in2="effect1_dropShadow_499_423" result="shape"/>
</filter>
<clipPath id="clip0_499_423">
<rect width="50.819" height="50.819" fill="white" transform="translate(13.3887 8.83826)"/>
</clipPath>
</defs>
</svg>
