<svg width="79" height="75" viewBox="0 0 79 75" fill="none" xmlns="http://www.w3.org/2000/svg">
<g filter="url(#filter0_d_499_432)">
<circle cx="39.4615" cy="34.2476" r="34.2476" fill="white"/>
</g>
<g clip-path="url(#clip0_499_432)">
<path d="M40.2045 18.9428C42.9238 17.975 44.3189 14.9846 43.3586 12.2953C42.3796 9.58635 39.405 8.16688 36.6906 9.14876C33.977 10.1034 32.5846 13.1032 33.5403 15.8159C34.5117 18.5023 37.4984 19.92 40.2045 18.9428Z" fill="black"/>
<path d="M19.0471 37.8355C19.1789 38.0974 19.2555 38.3181 19.4052 38.4882C19.6352 38.9193 19.9307 39.313 20.2673 39.6533C20.3496 39.7206 20.4262 39.7683 20.5086 39.8356L24.9578 45.2414L20.6817 54.6998C19.9383 56.3361 20.662 58.2596 22.3218 59.0058C23.9471 59.751 25.8817 59.0255 26.612 57.3797L31.7335 46.0932C31.8008 45.923 31.7952 45.7743 31.8429 45.6182C31.914 45.3835 31.9888 45.1684 31.9981 44.9366C32 44.7186 31.9692 44.5186 31.9383 44.3082C31.9092 44.108 31.898 43.892 31.8307 43.7041C31.7522 43.4833 31.6167 43.2898 31.5071 43.0775C33.5213 43.8873 35.4373 44.6905 36.3602 45.0702C36.9502 47.5894 39.1805 57.1656 39.1832 57.1861C39.6181 58.9085 41.3255 59.9709 43.0787 59.5734C44.8227 59.1433 45.9205 57.4058 45.524 55.6545L42.3222 41.9545C42.081 40.925 41.3779 40.0769 40.3829 39.6738L31.5875 36.0391L33.2397 34.3411L51.4543 37.6961C51.6273 37.7279 51.7975 37.743 51.9667 37.743C53.1636 37.743 54.2342 36.9687 54.6158 35.8251C54.7083 35.726 54.7981 35.626 54.8757 35.51C55.6705 34.3299 55.3507 32.7534 54.1856 31.9791L36.2965 20.0193C34.8846 19.0749 32.7628 19.2835 31.5612 20.486L20.214 31.8294C18.8787 33.1909 18.3747 35.0835 18.7272 36.8247C18.7721 37.1753 18.8815 37.5176 19.0471 37.8355ZM39.3018 28.1097L42.6728 30.3746L37.945 29.504L39.3018 28.1097Z" fill="black"/>
<path d="M55.7393 28.5383C58.2672 28.5383 60.3165 26.489 60.3165 23.9611C60.3165 21.4332 58.2672 19.3839 55.7393 19.3839C53.2114 19.3839 51.1621 21.4332 51.1621 23.9611C51.1621 26.489 53.2114 28.5383 55.7393 28.5383Z" fill="black"/>
</g>
<defs>
<filter id="filter0_d_499_432" x="0.79482" y="-3.31429" width="77.3332" height="77.3333" filterUnits="userSpaceOnUse" color-interpolation-filters="sRGB">
<feFlood flood-opacity="0" result="BackgroundImageFix"/>
<feColorMatrix in="SourceAlpha" type="matrix" values="0 0 0 0 0 0 0 0 0 0 0 0 0 0 0 0 0 0 127 0" result="hardAlpha"/>
<feOffset dy="1.10476"/>
<feGaussianBlur stdDeviation="2.20952"/>
<feComposite in2="hardAlpha" operator="out"/>
<feColorMatrix type="matrix" values="0 0 0 0 0 0 0 0 0 0 0 0 0 0 0 0 0 0 0.15 0"/>
<feBlend mode="normal" in2="BackgroundImageFix" result="effect1_dropShadow_499_432"/>
<feBlend mode="normal" in="SourceGraphic" in2="effect1_dropShadow_499_432" result="shape"/>
</filter>
<clipPath id="clip0_499_432">
<rect width="50.819" height="50.819" fill="white" transform="translate(14.0508 8.83826)"/>
</clipPath>
</defs>
</svg>
