<svg width="78" height="75" viewBox="0 0 78 75" fill="none" xmlns="http://www.w3.org/2000/svg">
<g filter="url(#filter0_d_499_442)">
<circle cx="38.6832" cy="34.2476" r="34.2476" fill="white"/>
</g>
<g clip-path="url(#clip0_499_442)">
<path d="M42.3023 24.0871C44.2393 24.0871 45.8096 22.5168 45.8096 20.5797C45.8096 18.6427 44.2393 17.0724 42.3023 17.0724C40.3652 17.0724 38.7949 18.6427 38.7949 20.5797C38.7949 22.5168 40.3652 24.0871 42.3023 24.0871Z" fill="black"/>
<path d="M15.6215 48.1402C15.8127 48.6831 16.323 49.0223 16.8675 49.0223C17.0138 49.0223 17.1619 48.9976 17.3072 48.9466C17.9954 48.7033 18.3567 47.949 18.1135 47.2598C16.9177 43.8688 17.9514 40.1333 18.5066 38.5567H40.0106C40.5675 40.128 41.6029 43.8513 40.4009 47.2598C40.1577 47.9481 40.519 48.7033 41.2073 48.9466C41.3527 48.9985 41.5007 49.0223 41.647 49.0223C42.1916 49.0223 42.7019 48.683 42.893 48.1393C44.1735 44.5122 43.4474 40.7414 42.7899 38.5567H44.9278C45.6575 38.5567 46.2497 37.9655 46.2497 37.2349V33.7346C46.2497 33.0041 45.6575 32.4127 44.9278 32.4127H42.7493L43.2992 31.4707H48.8616L51.0064 33.8412L47.0188 38.7735C46.7023 39.1656 46.5289 39.6547 46.5289 40.1588V49.2188C46.5289 50.4357 47.5149 51.4219 48.732 51.4219C49.9489 51.4219 50.9351 50.4357 50.9351 49.2188V40.9386L54.8574 36.0865C55.0239 35.8821 55.1376 35.6538 55.2186 35.4186L59.7861 49.6259C60.0867 50.56 60.9512 51.1549 61.8826 51.1549C62.1063 51.1549 62.3338 51.1205 62.5575 51.0483C63.7163 50.6764 64.3535 49.4347 63.9807 48.2768L58.7197 31.9113C58.6686 31.7526 58.5955 31.6081 58.5135 31.4707H59.9015C60.1447 31.4707 60.3421 31.2732 60.3421 31.0301C60.3421 30.7868 60.1446 30.5895 59.9015 30.5895H57.6772L51.2319 24.3864H55.7879L60.5193 30.1691C60.8683 30.5948 61.3741 30.8151 61.8843 30.8151C62.2764 30.8151 62.6713 30.6846 62.9999 30.4168C63.7524 29.8008 63.8635 28.6905 63.2476 27.937L57.9866 21.5075C57.6516 21.0986 57.1511 20.8616 56.6224 20.8616H48.7318C48.4022 20.8616 48.0964 20.9576 47.8329 21.1163L47.832 21.1144L47.8259 21.1189C47.6671 21.2149 47.5271 21.3348 47.4055 21.474L43.4128 24.8501C43.1174 24.9981 42.8593 25.229 42.6804 25.5348L40.1222 29.9207H33.2432C32.6863 29.9207 32.1946 30.1841 31.872 30.5887H25.8267C25.5835 30.5887 25.3861 30.7861 25.3861 31.0293C25.3861 31.2725 25.5835 31.4699 25.8267 31.4699H31.5019C31.4931 31.5404 31.4808 31.6101 31.4808 31.6831C31.4808 31.9439 31.5407 32.1889 31.6421 32.4119H14.5904C13.8607 32.412 13.2686 33.0033 13.2686 33.7338V37.2339C13.2686 37.9646 13.8607 38.5558 14.5904 38.5558H15.7246C15.0672 40.7422 14.3411 44.513 15.6215 48.1402ZM45.4805 27.7334L48.0652 30.5904H43.814L45.4805 27.7334Z" fill="black"/>
</g>
<defs>
<filter id="filter0_d_499_442" x="0.0165" y="-3.31429" width="77.3332" height="77.3333" filterUnits="userSpaceOnUse" color-interpolation-filters="sRGB">
<feFlood flood-opacity="0" result="BackgroundImageFix"/>
<feColorMatrix in="SourceAlpha" type="matrix" values="0 0 0 0 0 0 0 0 0 0 0 0 0 0 0 0 0 0 127 0" result="hardAlpha"/>
<feOffset dy="1.10476"/>
<feGaussianBlur stdDeviation="2.20952"/>
<feComposite in2="hardAlpha" operator="out"/>
<feColorMatrix type="matrix" values="0 0 0 0 0 0 0 0 0 0 0 0 0 0 0 0 0 0 0.15 0"/>
<feBlend mode="normal" in2="BackgroundImageFix" result="effect1_dropShadow_499_442"/>
<feBlend mode="normal" in="SourceGraphic" in2="effect1_dropShadow_499_442" result="shape"/>
</filter>
<clipPath id="clip0_499_442">
<rect width="50.819" height="50.819" fill="white" transform="translate(13.2744 8.83826)"/>
</clipPath>
</defs>
</svg>
