<svg width="79" height="75" viewBox="0 0 79 75" fill="none" xmlns="http://www.w3.org/2000/svg">
<g filter="url(#filter0_d_499_451)">
<circle cx="39.3443" cy="34.2476" r="34.2476" fill="white"/>
</g>
<g clip-path="url(#clip0_499_451)">
<path d="M22.2014 53.9123C24.2936 53.9123 25.9896 52.2163 25.9896 50.1241C25.9896 48.0319 24.2936 46.3358 22.2014 46.3358C20.1092 46.3358 18.4131 48.0319 18.4131 50.1241C18.4131 52.2163 20.1092 53.9123 22.2014 53.9123Z" fill="black"/>
<path d="M20.1897 43.3091C20.5325 43.3091 20.8092 43.0323 20.8092 42.6897V36.9605C20.8092 36.6179 20.5324 36.3411 20.1897 36.3411C19.8471 36.3411 19.5703 36.6179 19.5703 36.9605V42.6897C19.5703 43.0324 19.8471 43.3091 20.1897 43.3091Z" fill="black"/>
<path d="M27.5367 45.6471V41.7753C27.5367 41.4327 27.2599 41.1559 26.9173 41.1559C26.5745 41.1559 26.2979 41.4327 26.2979 41.7753V45.6471C26.2979 45.9897 26.5746 46.2665 26.9173 46.2665C27.2599 46.2665 27.5367 45.9897 27.5367 45.6471Z" fill="black"/>
<path d="M18.0159 39.4397C18.3586 39.4397 18.6353 39.1629 18.6353 38.8203V33.092C18.6353 32.7493 18.3586 32.4725 18.0159 32.4725C17.6732 32.4725 17.3965 32.7493 17.3965 33.092V38.8203C17.3964 39.1629 17.6732 39.4397 18.0159 39.4397Z" fill="black"/>
<path d="M24.362 33.7206C24.5022 33.7206 24.6461 33.7039 24.7892 33.6703L32.6832 31.8129C33.0547 31.7256 33.39 31.5259 33.6444 31.2408L39.0681 25.1568V35.1069C39.0737 35.1014 39.0802 35.0968 39.0858 35.0912C39.0821 35.1498 39.0681 35.2054 39.0681 35.2658V41.4575H36.1408L37.8766 33.8421C38.1618 32.5912 37.3789 31.3467 36.1287 31.0624C34.8806 30.7772 33.6342 31.5601 33.3491 32.8103L27.878 56.8183C27.5929 58.0693 28.3757 59.3137 29.6259 59.5979C29.7996 59.6369 29.9723 59.6565 30.1441 59.6565C31.2038 59.6565 32.1603 58.9265 32.4055 57.8501L35.0969 46.0378C35.2631 46.076 35.4349 46.1001 35.6124 46.1001H39.0681V48.2668C39.0681 49.8057 40.3153 51.053 41.8543 51.053C42.8535 51.053 43.7229 50.5227 44.2151 49.7324C44.7064 50.5227 45.5766 51.053 46.5759 51.053C48.1148 51.053 49.3621 49.8057 49.3621 48.2668V46.1001H53.8904L56.568 57.8493C56.8131 58.9266 57.7696 59.6556 58.8293 59.6556C59.0002 59.6556 59.1739 59.6362 59.3475 59.597C60.5985 59.3119 61.3805 58.0685 61.0954 56.8175L56.6366 37.2514C57.0463 37.061 57.3973 36.7406 57.5821 36.2893L61.1417 27.6141C61.5085 26.7217 61.1307 25.6973 60.2725 25.257L48.8958 19.4119C48.4147 19.1649 47.8779 19.1527 47.407 19.3255H40.8744C40.1798 19.0682 39.3681 19.241 38.8443 19.827L31.2623 28.3313L23.9395 30.054C22.9411 30.2889 22.3217 31.2892 22.5566 32.2876C22.7572 33.1439 23.5196 33.7206 24.362 33.7206ZM49.3611 34.939V23.8279L57.0563 27.7823L55.2992 32.0647C54.7819 31.2715 53.8141 30.8387 52.8437 31.0616C51.5927 31.3468 50.8107 32.5903 51.0958 33.8413L52.8315 41.4567H49.3611V35.265C49.3611 35.1433 49.3397 35.0282 49.3248 34.9102C49.3369 34.9214 49.3499 34.9287 49.3611 34.939Z" fill="black"/>
<path d="M44.219 17.7346C46.6758 17.7346 48.6675 15.743 48.6675 13.2861C48.6675 10.8293 46.6758 8.83765 44.219 8.83765C41.7622 8.83765 39.7705 10.8293 39.7705 13.2861C39.7705 15.743 41.7622 17.7346 44.219 17.7346Z" fill="black"/>
</g>
<defs>
<filter id="filter0_d_499_451" x="0.677633" y="-3.31429" width="77.3332" height="77.3333" filterUnits="userSpaceOnUse" color-interpolation-filters="sRGB">
<feFlood flood-opacity="0" result="BackgroundImageFix"/>
<feColorMatrix in="SourceAlpha" type="matrix" values="0 0 0 0 0 0 0 0 0 0 0 0 0 0 0 0 0 0 127 0" result="hardAlpha"/>
<feOffset dy="1.10476"/>
<feGaussianBlur stdDeviation="2.20952"/>
<feComposite in2="hardAlpha" operator="out"/>
<feColorMatrix type="matrix" values="0 0 0 0 0 0 0 0 0 0 0 0 0 0 0 0 0 0 0.15 0"/>
<feBlend mode="normal" in2="BackgroundImageFix" result="effect1_dropShadow_499_451"/>
<feBlend mode="normal" in="SourceGraphic" in2="effect1_dropShadow_499_451" result="shape"/>
</filter>
<clipPath id="clip0_499_451">
<rect width="50.819" height="50.819" fill="white" transform="translate(13.9336 8.83826)"/>
</clipPath>
</defs>
</svg>
