<svg width="28" height="33" viewBox="0 0 28 33" fill="none" xmlns="http://www.w3.org/2000/svg">
<path d="M3.01367 5.82892C3.01367 2.88584 5.39951 0.5 8.34256 0.5C11.2856 0.5 13.6715 2.88584 13.6715 5.82892C13.6715 8.77197 11.2856 11.1578 8.34256 11.1578C5.39951 11.1578 3.01367 8.77197 3.01367 5.82892V5.82892ZM8.34256 3.16711C6.87251 3.16711 5.68079 4.35883 5.68079 5.82892C5.68079 7.29898 6.87251 8.4907 8.34256 8.4907C9.81265 8.4907 11.0044 7.29898 11.0044 5.82892C11.0044 4.35883 9.81265 3.16711 8.34256 3.16711V3.16711Z" fill="white"/>
<path d="M16.3438 7.16229C16.3438 4.95277 18.135 3.16162 20.3444 3.16162C22.5539 3.16162 24.3451 4.95277 24.3451 7.16229C24.3451 9.37181 22.5539 11.163 20.3444 11.163C18.135 11.163 16.3438 9.37181 16.3438 7.16229ZM20.3444 5.82873C19.608 5.82873 19.0109 6.42579 19.0109 7.16229C19.0109 7.89879 19.608 8.49585 20.3444 8.49585C21.0808 8.49585 21.678 7.89879 21.678 7.16229C21.678 6.42579 21.0808 5.82873 20.3444 5.82873Z" fill="white"/>
<path d="M17.8477 29.3491C18.619 29.6608 19.4621 29.8326 20.3451 29.8326C24.0276 29.8326 27.0129 26.8473 27.0129 23.1648V16.4962C27.0129 15.0232 25.8189 13.8291 24.3458 13.8291H18.2979C18.7518 14.6137 19.0116 15.5246 19.0116 16.4962L24.3458 16.4962V23.1648C24.3458 25.3745 22.5546 27.1655 20.3451 27.1655C19.78 27.1655 19.242 27.0484 18.7545 26.8369C18.5568 27.7208 18.2496 28.5631 17.8477 29.3491V29.3491Z" fill="white"/>
<path d="M3.00891 13.8291C1.53592 13.8291 0.341797 15.0232 0.341797 16.4962V24.4984C0.341797 28.9175 3.92413 32.4997 8.34314 32.4997C12.7621 32.4997 16.3445 28.9175 16.3445 24.4984V16.4962C16.3445 15.0232 15.1504 13.8291 13.6774 13.8291H3.00891ZM3.00891 16.4962H13.6774V24.4984C13.6774 27.4445 11.2892 29.8326 8.34314 29.8326C5.39712 29.8326 3.00891 27.4445 3.00891 24.4984V16.4962Z" fill="white"/>
</svg>
