<svg width="28" height="33" viewBox="0 0 28 33" fill="none" xmlns="http://www.w3.org/2000/svg">
<path d="M8.67069 0.5C5.72764 0.5 3.3418 2.88584 3.3418 5.82892C3.3418 8.77197 5.72764 11.1578 8.67069 11.1578C11.6138 11.1578 13.9996 8.77197 13.9996 5.82892C13.9996 2.88584 11.6138 0.5 8.67069 0.5V0.5Z" fill="black"/>
<path d="M20.6725 3.16162C18.4631 3.16162 16.6719 4.95277 16.6719 7.16229C16.6719 9.37181 18.4631 11.163 20.6725 11.163C22.882 11.163 24.6732 9.37181 24.6732 7.16229C24.6732 4.95277 22.882 3.16162 20.6725 3.16162Z" fill="black"/>
<path d="M0.669975 16.479C0.679257 15.0139 1.86978 13.8291 3.33704 13.8291H14.0055C15.4785 13.8291 16.6726 15.0232 16.6726 16.4962V24.4984C16.6726 24.7744 16.6587 25.0475 16.6313 25.3164C16.5734 25.8874 16.4552 26.4406 16.2837 26.9697C15.2425 30.1793 12.2278 32.4997 8.67126 32.4997C5.08079 32.4997 2.04269 30.1348 1.02964 26.8777C0.795863 26.1261 0.669922 25.3271 0.669922 24.4984V16.4962C0.669922 16.4905 0.669949 16.4847 0.669975 16.479V16.479Z" fill="black"/>
<path d="M19.3397 16.4962V24.4984C19.3397 26.2451 18.9199 27.8939 18.1758 29.3491C18.9471 29.6608 19.7902 29.8326 20.6733 29.8326C24.3558 29.8326 27.3411 26.8473 27.3411 23.1648V16.4962C27.3411 15.0232 26.147 13.8291 24.6739 13.8291H18.626C19.0799 14.6137 19.3397 15.5246 19.3397 16.4962V16.4962Z" fill="black"/>
</svg>
