<svg width="27" height="33" viewBox="0 0 27 33" fill="none" xmlns="http://www.w3.org/2000/svg">
<path d="M8.01249 0.5C5.06943 0.5 2.68359 2.88584 2.68359 5.82892C2.68359 8.77197 5.06943 11.1578 8.01249 11.1578C10.9556 11.1578 13.3414 8.77197 13.3414 5.82892C13.3414 2.88584 10.9556 0.5 8.01249 0.5V0.5Z" fill="white"/>
<path d="M20.0143 3.16162C17.8049 3.16162 16.0137 4.95277 16.0137 7.16229C16.0137 9.37181 17.8049 11.163 20.0143 11.163C22.2238 11.163 24.015 9.37181 24.015 7.16229C24.015 4.95277 22.2238 3.16162 20.0143 3.16162Z" fill="white"/>
<path d="M0.0117722 16.479C0.0210537 15.0139 1.21157 13.8291 2.67883 13.8291H13.3473C14.8203 13.8291 16.0144 15.0232 16.0144 16.4962V24.4984C16.0144 24.7744 16.0005 25.0475 15.9731 25.3164C15.9152 25.8874 15.797 26.4406 15.6255 26.9697C14.5843 30.1793 11.5696 32.4997 8.01306 32.4997C4.42259 32.4997 1.38448 30.1348 0.371432 26.8777C0.13766 26.1261 0.0117188 25.3271 0.0117188 24.4984V16.4962C0.0117188 16.4905 0.0117455 16.4847 0.0117722 16.479V16.479Z" fill="white"/>
<path d="M18.6815 16.4962V24.4984C18.6815 26.2451 18.2617 27.8939 17.5176 29.3491C18.2889 29.6608 19.132 29.8326 20.0151 29.8326C23.6975 29.8326 26.6828 26.8473 26.6828 23.1648V16.4962C26.6828 15.0232 25.4888 13.8291 24.0157 13.8291H17.9678C18.4217 14.6137 18.6815 15.5246 18.6815 16.4962V16.4962Z" fill="white"/>
</svg>
