<svg width="27" height="33" viewBox="0 0 27 33" fill="none" xmlns="http://www.w3.org/2000/svg">
<path d="M2.67188 5.82892C2.67188 2.88584 5.05772 0.5 8.00077 0.5C10.9438 0.5 13.3297 2.88584 13.3297 5.82892C13.3297 8.77197 10.9438 11.1578 8.00077 11.1578C5.05772 11.1578 2.67188 8.77197 2.67188 5.82892V5.82892ZM8.00077 3.16711C6.53071 3.16711 5.33899 4.35883 5.33899 5.82892C5.33899 7.29898 6.53071 8.4907 8.00077 8.4907C9.47085 8.4907 10.6626 7.29898 10.6626 5.82892C10.6626 4.35883 9.47085 3.16711 8.00077 3.16711V3.16711Z" fill="black"/>
<path d="M16.002 7.16229C16.002 4.95277 17.7932 3.16162 20.0026 3.16162C22.2121 3.16162 24.0033 4.95277 24.0033 7.16229C24.0033 9.37181 22.2121 11.163 20.0026 11.163C17.7932 11.163 16.002 9.37181 16.002 7.16229ZM20.0026 5.82873C19.2662 5.82873 18.6691 6.42579 18.6691 7.16229C18.6691 7.89879 19.2662 8.49585 20.0026 8.49585C20.739 8.49585 21.3362 7.89879 21.3362 7.16229C21.3362 6.42579 20.739 5.82873 20.0026 5.82873Z" fill="black"/>
<path d="M17.5059 29.3491C18.2772 29.6608 19.1203 29.8326 20.0033 29.8326C23.6858 29.8326 26.6711 26.8473 26.6711 23.1648V16.4962C26.6711 15.0232 25.4771 13.8291 24.004 13.8291H17.9561C18.41 14.6137 18.6698 15.5246 18.6698 16.4962L24.004 16.4962V23.1648C24.004 25.3745 22.2128 27.1655 20.0033 27.1655C19.4382 27.1655 18.9002 27.0484 18.4127 26.8369C18.215 27.7208 17.9078 28.5631 17.5059 29.3491V29.3491Z" fill="black"/>
<path d="M2.66711 13.8291C1.19412 13.8291 0 15.0232 0 16.4962V24.4984C0 28.9175 3.58233 32.4997 8.00134 32.4997C12.4203 32.4997 16.0027 28.9175 16.0027 24.4984V16.4962C16.0027 15.0232 14.8086 13.8291 13.3356 13.8291H2.66711ZM2.66711 16.4962H13.3356V24.4984C13.3356 27.4445 10.9474 29.8326 8.00134 29.8326C5.05533 29.8326 2.66711 27.4445 2.66711 24.4984V16.4962Z" fill="black"/>
</svg>
